<?xml version="1.0" encoding="UTF-8" standalone="no"?>
<svg
   xmlns:dc="http://purl.org/dc/elements/1.1/"
   xmlns:cc="http://creativecommons.org/ns#"
   xmlns:rdf="http://www.w3.org/1999/02/22-rdf-syntax-ns#"
   xmlns:svg="http://www.w3.org/2000/svg"
   xmlns="http://www.w3.org/2000/svg"
   version="1.1"
   id="svg2"
   viewBox="0 0 208.37591 302.75484"
   height="85.444145mm"
   width="58.808311mm">
  <defs
     id="defs4" />
  <metadata
     id="metadata7">
    <rdf:RDF>
      <cc:Work
         rdf:about="">
        <dc:format>image/svg+xml</dc:format>
        <dc:type
           rdf:resource="http://purl.org/dc/dcmitype/StillImage" />
        <dc:title></dc:title>
      </cc:Work>
    </rdf:RDF>
  </metadata>
  <g
     transform="translate(-227.10993,-141.34877)"
     style="display:inline"
     id="layer1">
    <path
       id="path4150"
       d="m 229.16026,442.11177 c -3.72509,-3.00983 -1.07304,-8.66114 -1.86922,-12.88415 0,-94.67172 0,-189.34343 0,-284.01514 2.57654,-4.53846 7.29704,-3.9006 11.81932,-3.74131 64.17563,0.003 128.35127,0.006 192.5269,0.01 4.53377,2.57158 3.87981,7.29204 3.72733,11.80478 0.002,95.65159 0.004,191.30319 0.006,286.95478 -2.57612,4.53809 -7.29653,3.89933 -11.81814,3.74072 -64.17449,0 -128.34899,0 -192.52348,0 -0.6224,-0.62293 -1.24809,-1.24706 -1.86855,-1.86928 z m 201.90596,-0.2968 c 6.03352,-4.6959 2.5426,-12.96539 3.46716,-19.46962 0,-91.30741 0,-182.61483 0,-273.92225 -1.62715,-6.46103 -7.99913,-6.30713 -13.23943,-5.9045 -62.66848,0 -125.33696,0 -188.00544,0 -7.90205,3.7876 -4.41323,13.02373 -5.16182,19.85674 0.17485,91.5641 -0.44389,183.13766 0.45021,274.69432 6.18811,11.33504 23.60213,3.74268 34.7052,5.99344 55.36319,0.0145 110.72634,-0.0841 166.08951,-0.12667 0.56487,-0.37382 1.12975,-0.74763 1.69461,-1.12146 z m -16.70856,-2.68937 c 1.37821,-9.50086 -5.42904,-26.37118 6.87512,-30.00669 10.686,-4.21847 10.58212,17.36788 4.46649,6.56719 -9.79736,-6.53258 -6.37263,11.5856 -7.14604,17.87321 -0.14526,3.53561 1.06687,7.28188 -4.19557,5.56629 z m 3.46327,-11.96216 c -3.27913,-12.00456 5.84667,-17.82062 11.67885,-10.08546 -3.08364,-14.78145 -19.82462,-2.03317 -14.59904,9.00669 1.36276,3.61712 -3.01805,12.99611 2.91955,12.04674 1.5e-4,-3.65593 8e-4,-7.31236 6.4e-4,-10.96797 z M 257.58352,416.71286 c -6.59152,-4.73582 -3.10281,-13.37446 -3.96184,-20.17039 0.0671,-74.38858 0.13426,-148.77715 0.20139,-223.16573 2.29638,-5.95465 8.30166,-5.72687 13.50937,-5.37068 45.45115,0.0715 90.90609,-0.2076 136.35397,0.31325 9.88697,6.93577 3.27668,22.09512 5.28335,32.56329 0.11641,70.22053 0.0506,140.44124 0.076,210.66185 -1.49709,6.45717 -7.61866,6.34764 -12.8175,5.9156 -45.65787,0.0627 -91.31573,0.12541 -136.9736,0.18811 -0.55691,-0.31176 -1.11482,-0.62356 -1.67112,-0.9353 z m 146.28089,-0.68678 c 8.23,-8.37853 2.46071,-22.84314 4.23886,-33.79714 -0.0336,-68.59835 0.277,-137.20308 -0.42461,-205.79721 0.72366,-7.91558 -7.64394,-7.60185 -13.02031,-7.17219 -45.13451,0 -90.26901,0 -135.40352,0 -8.33719,7.17432 -2.55859,20.62695 -4.32918,30.43697 -0.1092,70.60973 -0.0377,141.21964 -0.058,211.82945 3.22716,7.96963 12.32105,4.60252 18.85858,5.29392 42.56428,-0.13657 85.13759,0.32454 127.69473,-0.35648 l 2.44346,-0.43747 0,1.5e-4 z M 258.335,415.16782 c -6.11184,-10.60019 -1.23313,-25.24846 -2.95454,-37.33595 0.24394,-17.91107 -0.8245,-35.93434 0.75385,-53.76731 12.44904,7.96523 25.46999,15.51527 37.15592,24.37089 -3.47503,4.75828 8.54498,-8.08586 1.38239,-5.45189 -12.93594,-8.51229 -26.48291,-16.30581 -38.79604,-25.64236 -1.03178,-1.47688 10.61792,-0.15459 7.29626,-4.45461 -13.40779,9.3762 -6.77351,-19.17406 -6.35804,-22.55713 12.28453,9.01716 20.53463,23.40122 21.3723,38.66813 2.30373,0.37607 9.70889,3.77898 8.43542,5.89078 3.57095,2.06788 -2.53709,-2.52187 3.55717,1.15808 6.98229,1.66938 -4.3582,-8.92552 5.61639,-2.77846 2.41108,-8.88588 2.03638,5.48078 -1.46017,5.56447 8.44674,-2.33701 11.36193,-23.81955 20.57624,-23.60357 2.35495,2.2813 -15.65381,-10.76307 -14.61958,0.97334 -3.74585,4.69627 -14.02248,27.50133 -13.79772,9.87671 -1.77949,-18.96499 -13.24614,-37.3426 -30.20716,-46.20639 1.9184,2.83784 -1.56887,13.82356 -0.60062,3.78479 0.0418,-36.0516 -0.72067,-72.11613 -0.10106,-108.15973 4.17448,-10.54466 19.47712,-3.75201 28.66474,-5.61011 5.74492,-5.5e-4 11.48984,-10e-4 17.23476,-0.002 2.38285,4.67495 15.34121,25.42398 7.92523,12.28957 -5.59657,-4.6898 -6.57635,-18.52346 -0.051,-8.79407 -0.14683,10.3977 17.61738,14.4537 14.42449,2.11502 -1.47991,-12.15774 6.63463,-0.47816 5.0875,5.80093 6.73934,-0.99499 17.94312,2.5569 17.23225,-7.68864 4.51461,-9.7148 5.34817,2.33876 3.41098,7.09965 9.90854,5.77054 14.86359,-2.9696 18.25416,-10.82246 11.84744,0.57853 24.08267,-0.17706 36.19663,0.20888 6.91023,8.47505 1.66715,21.74129 3.40853,31.9741 -0.39215,19.05952 0.83396,38.34938 -0.73079,57.26501 0.0876,8.21759 -14.0233,-6.91774 -19.76342,-8.92381 -6.55374,-1.62308 -17.2915,-17.59931 -20.32353,-8.49343 12.93342,9.63554 26.88649,17.91585 40.37816,26.78537 0.66483,4.66855 -6.95781,4.52487 0.0732,4.49164 2.49082,5.36539 -3.94779,13.53244 0.0105,9.80315 0.37929,42.3953 0.66127,84.81039 0.0232,127.20075 -5.42482,11.88724 -24.02682,3.11306 -34.83205,5.7548 -12.90569,4.7136 -20.68017,-8.76086 -22.65032,-17.05266 2.50554,4.54973 14.19113,24.15959 6.58963,9.78958 -3.39083,-8.275 -6.27168,-13.68592 -12.72821,-11.60981 -2.09762,4.37532 -3.21594,-2.95756 -3.75174,0.41787 -3.65103,1.18561 -12.24196,5.4585 -8.95814,-3.16115 -1.40537,10.05372 -7.46513,2.65398 -9.95566,6.01787 -10.97682,2.98954 -24.40859,-9.4926 -28.43323,6.102 -4.96604,5.303 -6.79647,12.8811 -0.53122,3.06003 4.65638,-14.8706 19.91505,-6.79609 31.0533,-7.58708 -7.39139,2.19753 -23.96223,-3.22458 -25.25705,0.9182 6.70612,-3.72173 17.00162,2.00807 25.04467,0.0904 13.05164,0.18842 30.12893,-8.65579 33.03115,10.04761 -1.83009,10.83514 -6.0634,-14.70686 -14.06273,-8.48203 -10.3185,-3.14474 0.35449,17.66577 -7.72404,9.04717 2.04546,-10.6635 -11.85446,-7.46969 -17.27626,-6.33223 0.30202,7.71299 -7.96102,12.81905 -4.27617,1.01251 -3.04935,-4.82306 -15.94003,-5.62141 -16.11823,3.99102 -6.49539,10.44033 -5.89971,-3.47043 -3.55674,-2.65173 -2.18358,5.45519 -6.01639,7.6463 -11.7195,6.41523 -7.50738,-0.27071 -15.28046,0.75448 -22.594,-0.81732 z m 26.44452,-0.33668 c 4.18162,-6.05502 9.41087,-11.94933 12.71035,-18.38224 4.73956,-9.80825 -8.093,-18.4318 0.8318,-26.45998 1.75105,-6.44208 4.17592,-13.18894 -4.01419,-15.42096 -6.36863,-3.77549 -13.88324,-12.20487 -17.26484,-0.5008 -3.49551,3.88952 -13.05377,3.52253 -5.69598,9.26179 1.17549,7.80902 -7.48149,13.6931 0.80392,20.03131 -10.16992,6.5184 9.01646,24.60308 -9.18441,24.38259 -13.9851,-4.64658 4.07248,-17.56466 -6.00938,-24.32015 9.15013,-7.80408 -5.71986,-18.41222 3.75999,-26.14809 -8.41921,-6.9237 -0.38533,-19.86685 2.20793,-22.57839 -3.69556,-2.63183 -7.84966,-6.11004 -6.19233,1.13899 -0.0231,25.00534 -0.30641,50.01355 0.0171,75.01671 5.07112,8.61745 19.5573,2.43843 28.03008,3.97922 z m 11.87085,-5.03992 c 2.50163,-10.29472 22.54018,-5.76013 15.17272,5.24182 4.69103,-2.86773 2.7161,-13.43385 12.73267,-9.42664 9.17639,-3.52586 8.92448,4.87431 10.97068,9.54452 3.38859,-2.41226 -3.2252,-13.84032 7.45094,-11.58194 7.4581,-5.18816 10.31752,17.82618 11.88753,9.11448 -4.05319,-19.72099 -24.07172,-6.43921 -37.74912,-9.13751 -10.80961,-1.81757 -21.01935,-3.12149 -25.19622,8.83111 -4.52823,5.56152 5.05929,1.90118 4.7308,-2.58583 l 0,-10e-6 z m 106.11366,4.81382 c 5.83155,-2.82329 2.47434,-10.03928 3.35709,-15.08741 0,-14.49736 0,-28.99471 0,-43.49206 -9.15441,-3.86642 -18.04332,-8.66152 -26.23439,-0.18222 -3.29902,3.36157 -11.77066,3.06618 -12.30289,8.2455 -2.19085,6.57702 -11.48159,7.1264 -8.85679,16.32169 -7.95384,10.18865 -8.38933,21.35088 0.42162,31.30629 1.21717,5.61374 7.37531,2.76012 11.48152,3.42288 10.70651,-0.12788 21.46248,0.32462 32.13384,-0.53467 z m -21.0735,-3.02235 c -6.64432,-10.84705 -18.61481,-19.61688 -20.48584,-32.74351 -0.65749,-11.28575 14.68679,-11.91687 19.27474,-3.38186 -1.19803,-6.78199 -10.2838,-17.67909 2.66119,-14.62396 14.77404,-4.57753 1.65213,11.39031 3.08853,14.86849 5.57633,-11.65798 24.25041,-4.95408 18.10178,7.86246 -5.59295,9.42035 -15.2385,26.0059 -22.6404,28.01838 l 0,0 z m 2.53574,-1.55534 c 6.70287,-10.22922 17.55935,-18.78552 19.90732,-31.21339 -0.76518,-12.85372 -14.77825,-7.28727 -19.24084,-1.13813 0.5682,-8.06139 8.84301,-18.64969 -4.62104,-15.58899 -8.03594,-0.73912 4.55546,11.76059 0.85037,15.87747 -5.60042,-12.85168 -25.46214,-6.15255 -17.05943,7.28136 5.30006,7.7497 13.92366,22.36186 20.16362,24.78168 z m -118.38492,-3.52711 c -4.68688,-0.66175 -0.85655,0.65535 0,0 z m -3.45282,-0.28791 c -1.2591,-1.37843 -1.27349,0.5672 0,0 z m 5.63771,-0.24884 c -0.31155,-0.97733 -1.76831,1.53214 0,0 z m -0.77298,-0.68786 c 6.48088,-6.75914 -5.0114,-16.45001 2.65884,-22.87541 -9.88646,-5.70112 8.56176,-21.63737 -7.25181,-21.94689 -4.80275,3.82394 -2.04646,-2.68762 -4.38737,5.56417 0.31001,5.6419 0.66901,-1.90776 1.383,5.22926 4.80176,7.26158 0.36607,0.68909 3.34059,4.00713 1.91353,1.76854 -4.40007,7.26561 -0.9961,2.19922 -5.27246,4.42321 -3.6597,12.55503 -1.39888,2.76323 -3.39829,5.86613 7.15176,11.24503 -1.18863,17.22395 -2.57394,4.73735 2.93408,10.62224 7.84036,7.83534 z m -4.91425,-1.19844 c -7.7531,-7.14968 7.04493,-17.91261 6.33563,-3.77073 0.22136,3.17671 -3.65944,5.51343 -6.33563,3.77073 z m 4.38036,-1.0736 c 2.51932,-1.04988 -7.667,1.87657 -5.89755,-4.77469 -0.77728,3.38808 2.38177,7.38505 5.89755,4.77469 z m -0.49884,-1.079 c 3.84681,-8.33009 -8.01282,-7.67463 -3.2836,0.36323 l 1.661,0.29193 1.62258,-0.65516 2e-5,0 z m 1.88931,-2.53871 c -0.71699,-0.48582 0.51819,3.43548 0,0 z m -5.72131,-3.45503 c 1.02451,-2.96564 -1.98657,2.99842 0,0 z m 2.57301,-1.9508 c 2.5778,-1.98239 -5.01112,0.95301 0,0 z m -1.80402,-6.71911 c -8.65259,-11.81042 13.59424,-7.38446 1.36281,1.14902 l -1.36281,-1.14902 z m 3.30483,-2.15443 c 3.61141,-10.83561 -10.62347,-2.15842 -1.85661,1.93966 l 1.85661,-1.93966 0,0 z m -3.49395,-1.12175 c 1.2737,-7.08326 5.17055,4.07841 0,0 z m 2.29891,-0.32437 c 0.39211,-4.24807 -3.70887,2.20781 0,0 z m -2.61841,-10.81436 c -9.69916,-7.89004 8.58652,-17.23049 5.53536,-3.7779 -1.08734,1.32814 -3.24263,7.54885 -5.53536,3.7779 z m 1.20587,-0.20905 c -4.51948,-6.23919 0.84694,2.93176 0,0 z m 1.92967,-0.83565 c 1.39768,-1.99483 -2.54233,2.46185 0,0 z m 1.0153,-3.6724 c 0.55817,-11.57757 -10.60805,3.10852 -1.6067,2.88083 l 0.86702,-1.3384 0.73968,-1.54243 z m -5.03169,-4.43825 c -1.472,2.51783 -1.44448,9.586 0,0 z m 6.34179,2.26902 c -0.71698,-0.48586 0.51818,3.4355 0,0 z m -0.65638,-2.06576 c -1.52225,-1.91221 1.13415,3.0828 0,0 z m -1.09557,-0.97144 c -2.21294,-1.52648 0.4684,1.44 0,0 z m -5.64067,42.46063 c -1.35278,-1.93535 -1.47158,-0.32716 0,0 z m -2.29831,-4.43835 c -2.13025,-5.78054 1.80797,8.20535 0,0 z m 61.90077,-1.50575 c 4.65772,-8.4607 12.08976,-17.94064 3.66826,-25.35037 1.25739,-5.67455 10.31058,-7.0425 1.19338,-11.67855 -6.34063,-5.79102 -26.42641,-7.65258 -22.79953,3.39057 5.06274,0.28694 19.57694,0.64125 12.50483,8.30277 -7.86331,-0.99837 5.36947,-4.83977 -3.55452,-3.87818 -9.04425,-0.32289 -2.16687,8.68389 -7.54067,8.84568 3.14608,-5.62807 -13.50938,-3.50825 -5.02251,2.95407 5.22976,6.42444 -4.25344,18.80188 9.60338,16.82664 3.95784,0.21613 8.00424,0.88311 11.94738,0.58737 z m -15.93398,-2.04889 c -8.29382,-6.88564 11.21013,-1.20865 14.58204,-6.84244 1.76054,4.61149 -10.81679,8.73601 -14.58204,6.84244 z m 9.44994,-2.41606 c 13.72933,-6.86126 -11.48669,2.47661 -10.02487,0.96076 3.17645,1.7007 6.98472,0.42548 10.02487,-0.96076 z m -8.30644,-1.86356 c -8.02183,-3.56248 8.90946,-19.34304 4.9797,-8.32421 16.78541,-1.76298 2.45964,10.88103 -4.9797,8.32421 z m 3.35057,-0.37853 c -2.40905,-0.32069 -1.02173,0.59663 0,0 z m -1.02606,-2.16637 c 5.49046,-1.30695 7.64314,-2.56066 5.85667,-0.12511 11.46771,-8.78906 -12.25081,2.47703 -3.59761,-4.85288 -4.23741,-6.41278 -8.31225,8.88356 -2.25906,4.97799 z m 4.56094,-4.49723 c -1.53826,-0.47389 -0.76756,0.72761 0,0 z m 13.01435,11.56077 c 1.34755,-5.47154 7.8968,-14.8181 6.80462,-18.25642 -1.15103,2.3641 -12.27908,24.57071 -6.80462,18.25642 z m 3.75224,-1.18197 c 4.20928,-6.96692 13.37915,-30.45651 -2.25794,-25.06872 -6.07373,10.50385 13.25207,5.25954 2.98136,1.37261 -3.56294,1.96799 5.89498,4.97403 -1.9888,3.68604 -2.1987,-11.37969 12.64648,-1.36687 5.73501,6.15663 -0.88677,1.48414 -10.49054,23.92863 -4.46963,13.85344 z m 3.49471,-0.51821 c 2.9185,-4.73948 9.04147,-22.62141 2.17826,-8.75583 -1.55997,2.57612 -7.51522,18.15319 -2.17826,8.75583 z m 3.27093,0.31524 c 2.62628,-5.0583 9.76482,-22.20907 2.31031,-9.03893 -0.8549,0.6073 -7.37441,17.72511 -2.31031,9.03893 z m -74.78784,-3.22981 c 5.15028,-14.11543 -7.18958,14.30585 0,0 z m 79.15541,0.72285 c 6.34603,-6.21987 9.79705,-30.89074 -3.42606,-19.1735 -5.22594,-0.15038 8.79234,10.48821 6.42375,0.22966 -5.40381,-1.09515 -2.47147,1.75465 -0.53117,2.057 -8.27489,5.60654 -2.44187,-11.60304 2.63875,-1.99898 1.71051,6.94643 -10.34733,21.06454 -6.69041,22.29 l 0.73977,-1.48408 0.84537,-1.9201 0,0 z m 1.74893,2.99575 c 2.92396,-4.6602 11.22056,-25.17634 3.51262,-10.89496 -0.70518,2.17658 -6.9906,13.90571 -3.51262,10.89496 z m 4.33088,-1.95118 c 2.52009,-4.4615 9.98862,-21.8278 2.40809,-8.73054 -0.98232,1.17608 -7.43662,16.69854 -2.40809,8.73054 z m -22.18009,0.52228 c -1.46418,0.56806 -0.34039,2.33395 0,0 z m 24.54216,0.94011 c 3.93312,-6.40574 15.90761,-27.63849 0.3241,-23.45191 -5.19231,4.71286 6.29083,-7.20471 8.94676,-0.17802 -3.89774,-2.07628 3.74895,-9.65718 -3.36187,-2.1709 -2.97247,-4.8613 -10.65962,6.7687 -6.6316,-2.72836 -6.60577,0.24384 -2.69542,-11.81679 -5.19935,-2.70339 6.40774,3.08814 0.78566,10.13454 7.30635,15.08243 2.62501,2.15671 -6.5302,-7.66151 1.08848,-1.35934 6.11232,-2.03907 -0.40544,-6.79663 0.63333,-1.1883 -6.03597,-8.42908 10.10495,-3.5843 2.51268,3.99744 -0.56107,3.38321 -8.35013,13.96587 -5.61888,14.70035 z m -50.13538,-3.1337 c -0.61659,1.00591 0.60963,5.0992 0,0 z m 28.93584,1.77576 c -1.46419,0.56807 -0.34039,2.33395 0,0 z m 10.44568,-1.25348 c -1.46417,0.56805 -0.34039,2.33396 0,0 z m -11.30796,-3.76044 c -3.35055,4.85926 -2.96896,7.10373 0,0 z m 21.33582,3.34262 c -1.46419,0.56805 -0.34039,2.33394 0,0 z m -6.26741,-0.41783 c -1.46419,0.56804 -0.34038,2.33396 0,0 z m -10.02786,-0.41783 c -1.46418,0.56803 -0.34038,2.33397 0,0 z m 13.37048,0 c -1.46419,0.56804 -0.34038,2.33396 0,0 z m -8.7966,-2.50696 c -2.24947,2.59084 -1.2804,3.91332 0,0 z m 3.34803,0 c -1.83042,1.63954 -0.81041,3.05632 0,0 z m 3.34262,0 c -1.83042,1.63954 -0.81041,3.05632 0,0 z m 7.29786,-1.35794 c 3.88955,-8.89494 -5.09047,9.65161 0,0 z m 2.30823,1.56685 c 1.17455,-2.96902 -2.24366,3.9493 0,0 z m -18.80371,-2.29805 c -2.24946,2.59084 -1.2804,3.91332 0,0 z m -2.92479,-0.41783 c -2.24948,2.59083 -1.2804,3.91333 0,0 z m 13.81917,-0.89344 c 3.76731,-9.34938 -4.42704,8.66006 0,0 z m -15.49321,-2.03135 c -2.68833,3.52005 -1.74426,4.80267 0,0 z m 10.02619,-0.83565 c -3.35054,4.85923 -2.96896,7.10376 0,0 z m 10.86158,-1.67131 c -3.37547,4.77107 -4.74776,10.85041 0,0 z m -88.95586,5.48291 c -1.35279,-1.93537 -1.47158,-0.32712 0,0 z m 75.1793,-5.06508 c -1.83042,1.63954 -0.81041,3.05632 0,0 z m -3.3258,0.41782 c -1.46419,0.56807 -0.34039,2.33395 0,0 z m -2.5448,-1.88022 c -1.79934,2.24776 -0.68043,3.79496 0,0 z m -59.86466,0.90843 c -1.97398,-1.72895 2.21106,3.53288 0,0 z m 83.30082,-0.69952 c -1.46419,0.56807 -0.34039,2.33395 0,0 z m -11.98976,-0.31337 c 10.2925,-4.59416 -8.41859,2.37455 0,0 z m 5.72235,-0.94011 c -1.46418,0.56806 -0.34039,2.33395 0,0 z m -13.91661,-0.31337 c -0.7313,0.41759 0.67817,2.30091 0,0 z m 4.8074,0.61582 c -2.13682,-5.37262 -2.9736,2.33707 0,0 z m 16.6429,-2.53253 c -5.82475,0.89729 -0.54294,4.83043 0,0 z m -24.02803,1.60813 c -0.22446,-1.04567 -1.82261,1.58801 0,0 z M 295.9589,378.573 c -1.33876,-1.64536 0.45721,2.07162 0,0 z m 37.46667,-0.31005 c 0.53199,-5.97775 0.45682,-5.77935 -0.7376,-0.42944 -2.13563,1.70408 0.30686,0.11986 0.7376,0.42944 z m -6.27381,-0.0386 c -1.35278,-1.93536 -1.47158,-0.32713 0,0 z m -21.30919,-1.68237 c -1.79659,-6.00685 -12.86455,2.60349 -2.12912,-1.92032 2.18486,-0.70316 1.31854,5.54646 2.12912,1.92032 z m 35.84958,0.92091 c -2.27304,1.85101 -1.23227,-8.54342 -2.88978,-1.57046 0.4078,0.99206 1.64166,3.00926 2.88978,1.57046 z m 16.66838,-1.05751 c -0.71697,-0.48583 0.5182,3.43549 0,0 z m -13.3833,-0.21687 c -0.7313,0.41759 0.67817,2.30091 0,0 z m -78.20151,-0.0836 c -0.64218,-2.53779 -0.30316,3.16968 0,0 z m 84.51306,-0.22981 c 0.59383,-6.09022 -0.9663,2.46285 0,0 z m 4.14283,-0.0783 c -0.71637,-0.71836 0.36074,2.3359 0,0 z m -56.27428,-3.14236 c -4.33568,3.79911 -4.65125,4.80793 0,0 z m 30.08357,3.47432 c -1.2591,-1.37841 -1.27348,0.5672 0,0 z m -2.99958,-4.73742 c 4.81799,-8.22541 -3.57098,8.30866 -0.79036,2.81249 l 0.79033,-2.81249 3e-5,0 z m 2.35893,1.06946 c -1.92506,2.14793 -0.48384,3.29617 0,0 z m 26.20471,1.6525 c -1.62214,-1.14147 1.01554,2.59258 0,0 z m -52.75446,-0.73942 c -0.44685,-7.3283 -4.95669,2.74387 0,0 z m 35.93396,-2.44303 c -6.3752,2.39827 1.86045,-15.16134 -3.3909,-2.89538 -4.38592,2.15147 0.97046,-5.78871 -3.85737,-2.08373 2.20606,0.92261 -4.53059,4.78631 2.16088,3.27517 2.95054,-0.61037 3.08821,7.51352 5.08739,1.70394 z m -29.17152,-0.69638 c 5.31553,-2.19825 10.57476,-0.7418 2.0231,-1.83662 -6.34053,1.12142 -12.10685,5.64417 -2.0231,1.83662 l 0,0 z m -6.66426,-1.48728 c 10.11479,-2.92466 1.18017,0.12397 -1.63266,-3.23241 2.52874,-8.72747 -4.93974,10.73606 1.63266,3.23241 z m 29.06819,2.69724 c -1.53822,-0.47391 -0.76758,0.72763 0,0 z m 17.8125,-1.36764 c 1.73317,-5.81371 -4.40673,5.43656 0,0 z m 9.87727,-0.74273 c -3.02969,-1.57973 -1.41911,4.43435 0,0 z m 2.3287,-0.25975 c -1.02258,-4.96256 -4.13782,5.68469 0,0 z m -22.80846,-3.97398 c 5.75874,-18.06011 -8.19531,17.026 0,0 z m 5.71033,4.17282 c -2.18749,-0.90536 -6.34896,2.3289 0,0 z m -3.00378,-3.44321 c -0.32543,-9.68517 14.35372,-4.67988 6.29997,-0.099 -6.45249,-4.49816 5.96139,-1.75907 -2.27494,-4.03414 -3.02604,10.00435 13.40964,1.33999 3.51858,-3.12435 -6.70928,-4.67078 -13.65943,19.65939 -7.54361,7.25749 z m -35.29086,3.35997 c 0.48374,-1.54269 -5.03409,1.5774 0,0 z m 40.24684,-0.16807 c -0.0697,-2.79565 -2.65364,2.32179 0,0 z m 10.08774,-0.72762 c 2.72014,-6.23479 -5.23149,4.78178 0,0 z m -1.48097,-3.05831 c 1.09076,-10.05355 15.80102,-3.44547 7.24237,1.3666 -7.01926,-4.20284 6.4604,-2.28721 -2.17339,-5.02976 -5.77844,11.28788 13.75523,3.06016 2.95073,-2.61689 -6.08359,-4.81719 -16.30987,18.27412 -8.01971,6.28005 z m -13.4707,2.62217 c -0.71636,-0.71836 0.36074,2.3359 0,0 z m 2.23584,0.0516 c 0.30393,-6.18302 -3.58025,3.96406 0,0 z m -72.84865,-0.46947 c -0.71637,-0.71837 0.36075,2.3359 0,0 z m 65.06869,-3.44992 c 4.73184,-10.39635 -5.09994,3.00102 -1.6715,3.77203 l 0.66466,-1.3424 1.00684,-2.42963 z m 18.83338,3.26791 c 1.18584,-3.08122 -2.67654,3.87106 0,0 z m -2.60601,-1.53947 c 1.97257,-4.24373 -4.9747,5.79432 0,0 z m -9.72798,-0.0804 c -1.46419,0.56807 -0.34039,2.33395 0,0 z m -2.30452,-1.58767 c 3.0527,-8.36341 -4.3892,8.87677 0,0 z m 17.21046,1.42878 c 4.90926,-6.31637 -4.69395,-0.50558 0,0 z m 6.33248,-0.13359 c 0.38392,-1.15783 -7.07558,-0.41365 0,0 l 0,0 z M 333.2472,361.0438 c -6.03272,-3.71546 -8.25585,0.13822 -2.26191,3.71593 1.31513,2.46026 1.39981,-5.0421 2.26191,-3.71593 z m 15.54802,3.4664 c 1.10389,-1.76956 -6.21902,0.61529 0,0 z m 17.92782,-1.68733 c -0.64489,0.75807 0.60712,3.66393 0,0 z m -30.3221,-3.88786 c 2.46227,5.79068 8.3287,-5.2925 15.30192,1.06096 2.33004,11.90255 1.77662,-11.85561 2.53038,0.83735 11.2871,-6.66899 -3.3466,-28.60984 10.074,-32.51798 -1.5482,-5.49828 -9.63202,-4.08353 -11.24999,-7.88166 -6.60851,13.49982 -12.03723,-9.06222 -9.73265,-4.41434 -1.78262,11.86447 11.24522,3.89131 10.26712,2.52436 -1.82847,-0.81622 10.4698,10.18948 3.27383,2.21455 -2.32662,-9.98218 -3.37984,-7.4797 -3.80913,-8.6018 0.85783,-7.62197 -7.79322,-11.29541 -9.19222,-11.37646 8.81142,-1.81479 6.38781,9.29491 12.89894,7.95321 -0.13138,2.12199 5.2451,5.03243 0.88419,7.04587 6.72281,-4.5611 3.97098,4.30997 7.54501,5.43266 -6.18156,4.78217 6.65274,2.13269 -0.95602,-3.92582 -2.8025,-8.25322 -11.96902,-10.48004 -11.8613,-12.01846 -8.68182,-13.77955 11.99818,-0.0654 14.08875,5.31105 3.11773,5.73839 3.25253,7.49134 7.8215,3.06495 4.9576,1.84139 -1.1446,-8.17042 -2.06948,-0.11837 -7.56809,1.15916 -3.37337,-8.83204 0.96304,-5.76028 -3.91826,-10.86471 -3.36732,5.95694 -9.78348,-1.57367 -2.01475,-6.7646 11.19352,-1.4842 1.79763,-7.27569 -4.68142,-3.6587 -18.66608,-14.52459 -13.5822,-3.0447 -5.27168,6.35495 -1.46562,-9.26218 -2.67076,-0.34152 2.82554,-5.01747 -4.37375,-5.66241 -0.93645,-13.77353 0.91171,7.61954 2.95866,4.77649 0.68931,-1.04599 8.7707,0.044 1.66271,7.01336 1.98243,4.75021 7.45491,2.41692 15.70504,13.37029 18.62891,6.52196 7.71964,0.0179 -5.25697,-3.66054 -4.49234,0.78379 -2.17844,-3.08245 -5.70877,-4.16986 -10.30988,-6.33514 7.13524,-7.47105 5.83151,2.88689 7.90672,-0.0359 1.33199,-3.1734 8.27419,5.54451 2.38554,-0.73229 -3.92037,-6.87005 -10.91825,1.65651 -10.17021,-5.22786 -8.05786,3.10182 -8.10301,-12.58224 -14.42991,-16.90676 6.26957,-11.16861 13.81944,-21.58056 20.45949,-32.51335 -7.18792,-1.07308 -9.17972,15.08248 -19.74112,10.98172 12.60671,-2.39189 1.89877,9.84063 -1.93047,16.04335 -4.15682,10.94924 -12.29524,-3.66188 -20.27757,-0.58229 -7.42526,-1.12178 -13.11809,0.185 -10.55946,-10.07928 -1.44196,-10.10196 12.24212,-4.29356 18.50861,-5.80711 -4.07847,-0.11867 -10.6764,-0.25416 -15.71888,-0.37926 -6.61774,2.05302 -0.83859,-19.94535 -2.10286,-10.08583 3.04745,1.44109 8.99895,0.20959 13.16647,0.61988 11.10733,-0.34671 22.53564,0.81452 33.42674,-0.0418 -12.02038,-0.94173 -17.92327,-4.88551 -28.95361,-3.22332 -1.37073,-1.05711 -10.18784,2.55416 -4.82673,-4.0537 -4.82155,14.1619 -20.14545,-2.76035 -6.7782,-5.08658 4.40959,-10.39046 -8.06623,-1.48254 -5.25199,-1.73769 4.86956,4.85222 -8.44734,9.99718 -5.73406,16.8453 -1.54908,7.41757 3.93073,20.66718 -4.96619,22.33809 -2.45519,3.00633 3.59833,8.0907 -1.98502,1.61435 -5.27219,-5.39692 -8.35608,-10.41914 -5.13745,-19.46119 2.03064,2.20763 -4.5119,-15.84086 1.32909,-7.7168 0.6885,11.04853 4.569,-10.99745 5.095,1.89062 -6.84491,2.40227 5.64933,17.1799 -3.64224,16.46912 8.34482,15.73792 2.59057,-13.47332 5.27036,-19.26784 -1.29234,1.15347 -6.46575,-13.2339 -4.8696,-3.37463 -6.89174,2.75942 -7.22088,1.61777 -5.99356,8.4826 1.23057,5.22613 -0.91324,20.72805 -3.21361,9.4728 1.02525,-5.30364 -0.0302,-20.05602 -4.27691,-9.27775 0.78582,7.6621 -2.57445,5.972 0.072,10.92097 0.25753,4.97122 -2.75366,11.25351 4.08483,6.59732 6.91074,3.58125 -3.79772,9.57665 -4.62324,3.43796 0.88913,7.45065 -0.8851,7.47861 4.24029,3.58981 6.57614,8.17795 0.91765,-15.43999 5.59355,-5.31862 -0.16732,5.64131 1.76372,13.58962 0.50651,3.32754 -1.97696,-8.4388 7.99805,2.3413 2.82723,2.63231 0.43639,-2.1561 8.36071,2.64668 1.21898,2.80067 -1.83781,3.89251 16.26685,-7.31234 13.43304,5.88042 0.557,11.48522 -1.81502,-13.8 7.73501,-6.42231 5.10805,5.42768 1.61203,14.37455 2.43629,21.40766 -2.0177,3.68722 -16.19846,-2.6871 -7.74185,1.35505 4.63119,7.1851 0.6223,13.99878 -2.66534,6.89694 -10.32965,5.61871 -3.77426,-12.4737 0.57717,-2.37878 7.02126,1.4457 -4.12744,-5.29011 -6.99861,-6.11459 1.72248,11.9163 -10.97364,-0.5813 -1.33695,-1.19557 -6.1,-4.43067 -10.51207,-14.70407 -12.18646,-19.12525 -2.78506,5.96114 -9.8006,-3.21716 -5.39509,5.84704 4.52867,13.79694 17.1713,23.49651 30.37707,28.03581 -0.18536,7.44958 -10.10121,-1.6989 -14.91451,-2.59683 2.98106,5.76688 10.20523,3.0961 5.01177,8.46814 4.24107,-0.31741 5.16701,-5.68335 8.77852,1.06964 -4.57723,-8.15396 0.89214,0.95246 0.82472,-1.96339 2.09992,-0.35242 0.64693,17.49271 8.79216,19.77711 -6.05436,11.68404 -15.19502,22.51126 -20.61402,34.00623 4.49295,-2.08762 13.77562,-14.5262 15.59447,-11.88424 -7.52702,-1.25086 6.69288,-18.74079 11.12047,-20.57652 8.34399,10.16455 31.55285,-2.21009 25.98499,16.96044 0.86102,6.92052 -7.82786,2.90746 -11.92158,4.03078 -4.56429,0.0421 -11.84368,0.0673 -3.11718,0.19188 4.97222,0.10926 9.94443,0.2185 14.91665,0.32775 -1.0734,3.018 2.70659,10.90353 -1.96657,10.31132 -15.33594,-0.26805 -30.72989,-1.01082 -46.0349,-0.14596 -3.65461,0.9577 20.18425,3.14213 18.13601,3.7835 2.88057,-1.20626 13.36073,-2.38119 9.41382,3.78977 0.87947,-1.46407 1.31887,-3.31279 2.75131,-4.38606 z m -1.23117,-37.10706 c -5.23613,-6.61696 -5.41888,-29.07871 7.84672,-20.17265 -5.21506,-2.35319 -13.6306,-0.30366 -10.00788,8.8301 -3.83841,17.7724 12.06912,4.50856 9.53632,6.47632 0.87279,4.34601 -3.73562,6.6398 -7.37516,4.86623 z m 11.09504,-0.68271 c -3.11455,-3.44697 2.94991,-22.6283 3.22425,-8.7398 -0.30815,3.08033 3.96221,11.64317 -3.22425,8.7398 z m 3.10336,-0.69701 c 0.002,-4.35232 -0.80187,-20.20272 -2.5786,-6.41157 -1.88545,1.97122 -1.59777,8.87495 2.5786,6.41157 z m -14.08777,-1.58756 c -3.11546,-4.66161 6.43765,-21.31513 1.33107,-7.20547 -6.91318,6.09622 6.7911,10.08797 1.11213,2.28394 0.34398,-6.29977 1.86515,-11.773 1.06661,-2.07122 0.54835,2.75664 2.80894,10.41024 -3.50981,6.99275 z m -11.34651,-3.13578 c -8.37255,-6.87633 1.01981,-22.13942 8.23032,-13.57412 0.0571,5.77732 1.18166,17.49614 -8.23032,13.57412 z m 4.75101,-0.4084 c 4.32401,-3.52274 5.7785,-17.67153 -3.36414,-14.10262 -5.84535,-0.65091 -4.10228,14.36937 1.22595,14.82435 l 2.13819,-0.7217 0,-3e-5 z m -4.1149,-2.126 c -2.64813,-4.94575 4.78087,-14.54296 3.64704,-3.31265 2.97478,2.29911 -1.5679,6.57244 -3.64704,3.31265 z m 3.33385,-0.0731 c -1.00676,-4.15659 -0.5965,-13.18038 -3.30867,-3.10678 -1.44831,2.00329 1.44606,4.69872 3.30867,3.10678 z m 31.22991,-10.42244 c 0.52588,-5.2968 -11.30217,-2.5086 -5.09585,-9.37996 6.06069,0.44145 3.92063,5.49399 10.20491,5.45473 2.1781,2.97525 -2.6968,6.55064 -5.10906,3.92523 z m 4.02271,-0.63117 c 2.24729,-11.08577 -11.50949,2.16966 0,0 z m -3.3755,-0.30647 c -1.66791,-9.48747 9.30224,2.26577 0,0 z m 2.45163,-0.44436 c -0.0336,-3.87769 -4.62653,0.5913 0.0167,-1.11446 0.29244,0.10177 -2.40559,3.16957 -0.0167,1.11446 z m -0.819,-1.06464 c -0.50529,-1.52765 -1.03049,1.48843 0,0 z m -4.27124,-1.90391 c 1.19032,-9.99653 0.41428,3.98199 -3.64617,-1.69624 3.64266,-8.40909 -5.02526,5.58167 3.64617,1.69624 z m -1.6828,-0.89107 c -3.32272,-2.53447 1.33882,1.32522 0,0 z m 1.32305,-2.05207 c -6.64047,-2.78644 2.31418,3.75108 0,0 z m -34.14338,2.25652 c -0.32719,-4.88642 -8.22379,1.9286 -5.01123,-7.16722 4.70728,-0.13693 17.07535,-6.37256 22.36895,0.4783 8.18074,-4.05412 3.52869,9.44829 -0.54521,6.37248 -5.2827,1.48553 -11.35508,0.87157 -16.81251,0.31644 z m 15.98473,-1.90111 c 2.65662,-1.30248 5.95941,0.58137 4.82307,-5.13537 -5.26359,2.01458 -10.30646,-4.2113 -18.27995,-1.41446 -2.8243,4.0043 -8.3152,-0.7461 -6.78969,6.45693 4.75698,-2.52394 6.87081,3.99899 13.36693,1.55389 1.95367,-0.63764 6.66345,1.28036 6.87964,-1.46099 z m -17.00841,-10.02161 c -4.19769,-0.56395 -0.99968,-7.96343 -1.98468,-11.49672 -2.25593,-5.81374 3.66083,-14.35598 9.14701,-7.70188 0.5461,10.18086 2.56784,2.14745 8.64809,3.3307 9.09281,5.81041 0.24203,24.7095 -7.36158,13.3025 -1.40883,-14.65133 3.2154,6.25239 -6.14272,2.70831 l -2.30614,-0.14295 2e-5,4e-5 z m 7.36421,-1.83424 c 2.49128,-6.50122 -1.2063,-27.21294 -8.61375,-14.77163 -0.65351,7.87907 -2.19871,21.87008 8.61375,14.77163 z m -5.74292,-2.97702 c 1.43,-4.60157 -4.87128,-18.25291 4.08205,-12.51136 0.48264,2.47947 -2.28351,14.43084 -4.08205,12.51136 z m 2.60321,-6.95713 c 5.90061,-7.20296 -7.80251,-8.68507 -1.69643,-1.46685 -0.62009,6.12877 -0.56131,13.21629 1.14496,2.99458 l 0.55147,-1.52773 0,0 z m 14.18789,7.47941 c 4.57281,-9.7213 -10.42689,-16.39708 -9.35112,-4.01454 -1.94175,7.08285 1.65873,8.97299 7.72476,7.60581 2.70225,0.86648 1.11084,-2.24844 1.62636,-3.59127 z m -5.49576,-1.16694 c -3.55839,-4.36653 1.14477,-13.45056 3.88024,-5.22391 -0.0771,2.87935 -4.40191,10.58206 -3.88024,5.22391 z m 3.46282,-5.14858 c -6.43722,-10.03256 -3.18182,14.2667 -0.43859,1.27441 l 0.43859,-1.27441 0,0 z m -45.75177,8.97039 c -3.63227,-13.81196 14.97625,2.87204 0,0 z m 4.06087,-0.42158 c 2.81592,-1.83916 -8.41956,1.50178 -1.58206,-4.30569 -4.7151,0.97532 -2.11779,6.85741 1.58206,4.30569 z m -1.84732,-0.59545 c -1.94674,-3.94066 -0.21763,1.96582 0,0 z m 1.51267,-1.54488 c -4.11769,-4.26454 1.77314,4.49893 0,0 z m 0.6893,-1.12743 c -2.76647,-2.44258 1.50194,2.62099 0,0 z m -8.19792,-1.37443 c -5.68708,-13.43733 14.6402,-0.39637 0,0 z m 3.665,-1.20739 c -0.10164,-4.67197 -1.23089,-4.59012 -0.36867,-0.1535 -5.30955,1.66972 -1.87294,-8.1631 -3.44864,0.0368 0.87382,1.19109 2.79294,0.95192 3.81731,0.11668 z m -0.92387,-0.75082 c 1.21436,-6.0166 -5.39605,1.69696 0,0 z m -1.3674,-0.081 c -1.28933,-3.66788 3.578,-0.24265 0,0 z m -4.88336,-4.74408 c -3.89684,-10.7031 12.93012,-1.2206 1.80924,0.8195 l -0.97062,-0.24852 -0.83862,-0.57098 z m 1.34646,-0.65043 c -0.23678,-8.30892 -1.48697,1.20982 0,0 z m 2.90337,-0.0411 c 3.19954,-5.52023 -3.27474,2.70943 0,0 z m -0.69829,-1.60082 c -2.48367,-3.49609 -0.0232,1.92815 -2.11008,1.02018 0.73909,0.84341 2.5378,0.23131 2.11008,-1.02018 z m -0.83566,0.20319 c -0.50527,-1.52764 -1.03051,1.4884 0,0 z m 1.88022,-1.41124 c -1.35276,-1.93537 -1.47159,-0.32713 0,0 z m -6.67626,-17.17252 c -2.46831,-6.96239 2.12923,-2.67473 1.97571,-1.1816 -0.73256,-6.09198 7.41032,5.60434 -1.97571,1.1816 l 0,0 z m 4.14878,-0.40266 c -3.15245,0.0458 -6.98174,-5.04524 -1.48399,0.57383 l 1.48399,-0.57383 z m -1.44187,-1.90495 c -1.49929,-1.59076 -0.51889,1.64724 0,0 z m -1.99256,-3.63841 c -4.77702,-4.4242 5.68502,3.63635 0,0 z m 28.10676,-27.24875 c 3.20668,-9.29025 4.34489,4.11519 0,0 l 0,0 z m 1.98684,-0.13652 c 3.21927,-6.51743 -4.41332,2.49452 0,0 z m 14.30843,144.94638 c -2.09693,-2.41551 -2.5955,-1.79323 0,0 z m 20.68477,-1.94242 c -3.51933,-3.13862 2.2902,3.29368 0,0 z m -79.1806,0.68894 c -2.09692,-2.4155 -2.59548,-1.79324 0,0 z m 99.38725,-2.00283 c 1.1376,-2.60015 -2.89242,-12.12183 -3.44022,-1.17762 -3.5989,-4.61939 1.53915,-11.87372 -1.78561,-18.23266 5.07022,-4.99839 -3.44136,-14.70584 -1.3569,-2.84264 1.68614,9.29368 -5.7841,25.46193 6.58273,22.25292 l 0,0 z m -6.90306,0.37122 c -3.13978,-1.16564 -3.13978,1.16564 0,0 z m -97.70703,-0.7312 c 6.95849,1.05556 0.49723,-5.70473 -3.10517,0.73151 l 0.6752,-0.29063 2.42997,-0.44088 z m 38.13018,-1.35794 c 0.29746,-3.67717 -2.5125,4.9152 0,0 z m 70.29601,0.0613 c 0.80279,-2.5466 -4.09177,-26.29111 3.66593,-18.68177 0.41773,5.32691 -1.42147,21.66206 4.38903,12.64597 -2.83751,-8.76188 3.63636,-10.11326 8.14328,-3.16225 0.71292,-6.59052 3.0183,-4.0846 -1.57433,-6.96156 2.37134,-5.57669 6.50725,4.1724 3.1425,-3.82785 0.69627,-0.45268 -11.57384,5.74251 -3.68224,-2.37067 -3.78008,3.01825 3.18608,-2.09244 -2.23842,-5.77734 1.61194,-7.47445 7.79667,7.38529 6.67688,-1.4134 2.77903,-9.40281 -2.30029,5.73849 -2.89519,-2.81229 6.61761,-4.34184 -3.53222,-12.34597 -2.88375,-14.94376 5.39047,-2.09399 -3.45574,5.36792 2.76531,1.23141 2.88088,2.17998 -4.38566,-6.85243 -5.0506,1.07217 -4.67389,1.79077 -1.67554,-8.92341 -5.80847,-7.83546 -4.78943,-6.42593 9.77529,1.72935 3.96927,-7.25201 -6.42781,-3.58568 -3.63659,0.85899 -0.87976,0.23498 -6.4381,3.82977 5.2866,-1.05296 -0.46907,3.35403 -3.21397,-4.56219 -5.30093,3.00287 -6.81621,-1.95316 0.91039,-1.66975 -7.00068,-5.38561 0.38145,-4.41383 8.93459,-4.43115 -13.85977,-0.31476 -1.27452,5.30857 7.32437,6.90452 11.76515,20.98265 11.44639,28.81493 1.84858,5.35314 -4.37827,16.346 2.63679,12.73515 5.75881,9.91102 -11.18747,-3.13337 -11.15624,-5.37433 -4.49138,-4.50203 8.35602,0.63862 4.96595,-1.71645 3.02206,-7.63151 -9.08756,3.26779 -6.03375,-6.41752 4.6004,-2.37006 8.02942,3.28892 5.45634,-5.17958 -3.37088,5.51071 -8.80077,-1.05885 -6.48161,7.96569 -1.52989,10.90163 -2.5432,-9.31258 -3.90059,0.80114 -2.03383,-3.75759 -2.0861,-10.26776 -3.80636,-4.68095 2.44166,0.674 -0.75604,4.97454 4.38719,5.79917 0.82742,4.92044 1.58693,13.79147 -0.76958,16.46658 4.04334,1.07074 -0.23984,12.17657 3.69438,8.34439 z m 11.54915,-33.21704 c 4.5733,-5.99901 -7.90752,-11.04941 2.48393,-9.58203 6.61785,5.08458 -7.14938,3.56989 2.8095,4.61464 2.03457,2.40355 -4.55309,10.40305 -5.29343,4.96739 z m 3.37605,-0.27965 c 6.57635,-10.80762 -8.78345,2.14572 0,0 z m 0.95224,-5.97231 c -4.60264,-7.56756 -9.35699,-0.92373 0,0 z m -22.77273,33.76702 c -2.21456,-0.0608 -0.81038,9.91142 1e-5,0 l -1e-5,0 z m 3.98156,1.439 c -5.44613,-3.14014 -3.64775,-23.96433 -5.26134,-10.07572 1.67566,1.40365 6.81241,19.9419 5.26134,10.07572 z m 5.62665,3.05743 c -0.22461,-1.04562 -1.82251,1.58801 0,0 z m -109.88562,-0.84044 c -4.64096,-1.79553 -1.72339,1.60787 0,0 z m 34.85376,0.26551 c -5.49871,-3.42896 -0.0555,0.8377 0,0 z m 60.77425,-0.78779 c -0.41802,-5.3793 2.0216,-24.04953 -1.29654,-22.45822 0.57851,6.27182 -1.76007,20.29889 1.29654,22.45822 z m 13.09736,0.60444 c 2.29902,-4.52277 -0.0572,-26.44792 -1.0758,-11.00158 0.48503,2.67276 -1.17046,10.78066 1.0758,11.00158 z m -101.72818,-1.73004 c 6.68445,-3.55323 9.92143,-10.84968 1.26644,-13.08489 -6.84256,-8.17336 -7.09384,0.95693 -4.30698,3.54247 4.25645,-11.0823 2.40743,12.19452 -3.23349,9.09586 1.4488,2.90824 4.13033,1.92045 6.27403,0.44656 z m -8.742,-0.69102 c 4.75742,-2.19912 8.88541,-5.37182 4.53722,-6.64439 1.92853,-10.1912 -9.90064,1.07884 -1.86667,-2.48186 2.93586,2.78713 -7.02312,4.45745 1.83663,4.22494 -0.15312,4.32813 -15.93207,5.05035 -4.7384,5.44893 l 0.23122,-0.5471 0,-5.2e-4 z m 33.53113,0.70235 c 3.40598,-10.91839 13.10066,-21.00635 18.80867,-31.59691 3.95405,-10.29353 -8.50385,9.8943 -10.25498,12.7918 -1.46607,6.2108 -16.6059,17.94212 -8.55369,18.80511 z m 7.84733,-7.03337 c 2.81254,-8.59256 17.57675,-18.91013 13.30636,-26.84188 -6.86573,11.11418 -14.49797,21.79948 -20.93507,33.14972 3.45746,4.97262 5.35957,-4.97952 7.62871,-6.30784 z m 48.07526,7.05494 c -15.08931,-1.72013 -30.59382,-0.72515 -45.83684,-0.59396 15.22997,0.74824 30.601,1.1144 45.83684,0.59396 z m 53.30037,-21.08024 c -0.007,-7.14725 -0.0139,-14.29449 -0.0209,-21.44174 -19.48939,-9.14443 -32.31697,-28.98144 -35.63584,-49.92238 -2.87375,5.07337 -7.68894,10.41831 -9.67146,15.10277 14.11547,6.8554 26.4594,18.09173 31.48034,33.29681 4.38709,12.31221 5.33033,26.60872 0.9203,39.01822 8.52292,6.03126 15.87264,6.50239 12.89878,-5.85559 0.0241,-3.3993 0.032,-6.79878 0.0288,-10.19809 z m -143.58852,18.694 c 4.12711,-5.74481 -7.55151,3.5286 0,0 z m 89.1527,0.67287 c -6.70566,-3.53494 6.68516,-5.81136 -4.91137,-4.74731 -11.78698,-0.1141 -23.58079,-0.24491 -35.36513,0.0181 7.29816,5.23272 -10.76046,3.43328 0.23536,4.63886 13.56863,0.225 27.14051,0.24385 40.71006,0.3245 l -0.66891,-0.23421 -10e-6,6e-5 z m -34.45139,-0.91448 c -2.31008,-8.55469 10.11669,1.52089 0,0 l 0,0 z m 3.24004,-1.60675 c -4.39355,-6.10547 -3.35154,6.00812 0,0 z m 4.77131,1.52523 c -0.0794,-10.93331 10.12326,3.77137 0,0 z m 3.50853,-1.42078 c -4.33094,-6.12711 -3.71731,6.00038 0,0 z m 4.49231,0.90458 c 1.09462,-9.11986 10.21963,4.74953 0,0 z m 3.50646,0.0556 c 1.03446,-5.24482 -6.3714,1.39354 0,0 z m 4.91057,0.7652 c -0.19809,-10.70868 10.42307,2.76766 0,0 z m 3.46263,-1.57623 c -3.05122,-4.96996 -4.37028,4.46149 0,0 z m 36.57285,2.27431 c 4.13959,-2.03546 9.5772,-4.2471 -0.54876,-8.18988 -0.51033,2.18337 -0.97358,7.79688 0.54876,8.18988 z m -28.71083,-2.21455 c -3.13296,-4.82687 -3.57371,4.61267 0,0 z m -92.77676,-0.68589 c -4.29789,-0.44236 2.62777,-7.14451 -2.35378,-4.85032 -0.61455,1.63422 -0.21587,9.19404 2.35378,4.85032 z m 38.44824,-5.26959 c 3.93792,-6.9324 17.67353,-25.32495 14.96498,-25.65873 -7.0514,10.4994 -14.08069,21.08196 -20.30906,32.08135 1.87436,0.72405 3.81765,-5.07821 5.34408,-6.42262 z m 13.66706,5.64211 c -3.01948,-4.44362 -3.97464,4.77429 0,0 z m -22.04039,-0.23899 c 4.2399,-2.37213 -14.10168,-11.55659 -19.71935,-15.85726 -3.7152,-2.89046 -20.25167,-14.06996 -12.93121,-4.33394 4.10931,2.01706 6.6216,3.66076 7.6854,4.34384 0.53673,0.59944 4.51083,2.30777 4.36489,3.09763 3.49348,1.07452 9.03523,6.69431 6.47028,3.45875 6.49812,3.4592 7.87351,6.15025 14.12999,9.29098 z m -3.1337,-1.89822 c -4.62262,-3.60833 5.38915,3.28487 0,0 z m -20.27333,1.46694 c -1.53824,-0.47392 -0.76758,0.72764 0,0 z m 124.73015,-0.67534 c -0.71305,-8.58901 -3.62837,0.11881 0,2e-5 l 0,-2e-5 z m -128.37744,-2.28885 c -4.92282,-1.38966 -5.88291,5.16408 0,0 z m 16.85687,0.50075 c 2.90562,-6.64637 -3.98164,6.70227 0,0 z m 113.59334,-2.32726 c 7.17938,-29.36287 -11.99516,-62.41363 -41.81069,-69.1673 -10.33082,-1.33803 11.23304,3.76819 14.09897,7.1503 21.49103,12.50986 31.91046,39.53062 26.15147,63.48218 -0.8016,5.02636 1.86394,-0.92709 1.56025,-1.46518 z m -40.82625,1.90944 c -13.68293,-0.70629 -27.46314,-0.78108 -41.15599,-0.23279 13.46837,1.32162 27.5686,0.69763 41.15599,0.23279 z m 15.23185,-3.3991 c -0.71944,-13.47583 -4.12997,2.3883 -0.79865,3.55694 0.53056,-1.10328 0.75517,-2.34064 0.79865,-3.55694 z m 1.65297,-0.36135 c -0.20369,-7.18672 -9.67682,-17.34378 -1.99634,-5.36707 2.05079,2.49493 0.55027,14.21694 1.99634,5.36707 z m -85.61741,3.39814 c -5.35529,-4.33394 -7.32184,-3.7977 0,0 z m 102.91359,-1.5429 c -5.837,-7.82186 -0.64245,4.16394 0,0 l 0,0 z m -116.8343,-0.0534 c -0.71637,-0.71837 0.36075,2.3359 0,0 z m -8.03365,-1.16813 c 3.78615,-3.99109 -8.02483,2.80258 0,0 z m 90.89586,-6.73695 c 2.1839,-13.68999 -20.76152,-2.75742 -26.95097,-12.44472 -3.22308,7.07924 -20.98448,23.20658 -2.93252,19.55052 9.96097,0.0733 19.92233,0.0303 29.88349,0.042 0,-2.38259 0,-4.76518 0,-7.14777 z m -18.81817,5.46051 c 1.82566,-4.54622 -9.865,-4.48354 -1.82227,-6.96251 1.30606,0.22236 4.63974,-8.2662 5.33053,-1.87711 1.5307,1.47582 8.2525,6.22594 0.006,5.76369 0.61685,2.03158 -1.1893,5.46474 -3.51393,3.07593 z m 2.37026,-2.0244 c -0.13253,-3.96242 9.61867,-1.7643 0.30075,-4.14158 -1.65772,-10.05612 0.22064,3.74142 -6.2066,0.95909 5.06607,-2.52031 3.83414,8.37079 5.90585,3.18249 z m -75.62345,1.24649 c 2.91323,-2.60257 -7.1583,3.27953 0,0 z m 129.22985,0.84645 c -0.88904,-6.23469 -5.34262,3.3405 0,0 z m -124.49786,-1.30607 c 1.84093,-2.36061 -7.20994,-6.82262 -1.89267,-0.87851 -2.60113,0.23542 1.00131,3.71562 1.89267,0.87851 z m 30.51486,1.30464 c -3.75801,-5.14631 -14.93177,-8.80795 -21.62306,-14.32981 -4.07484,-2.10598 -19.75065,-13.62289 -17.12592,-10.15857 12.56995,8.53809 25.17376,17.07232 38.22669,24.85405 l 0.52229,-0.3657 0,3e-5 z m 86.10414,-4.76504 c 2.83305,-22.17915 -12.21291,-45.82572 -34.49888,-50.37328 9.14375,5.63057 21.97999,11.34379 27.23415,22.6854 7.15142,8.85301 4.01466,23.94365 6.57957,31.69727 l 0.33716,-1.44524 0.348,-2.56415 0,0 z m -85.26849,4.1383 c -1.35277,-1.93536 -1.47159,-0.32715 0,0 z m 3.12387,-3.36618 c 1.96335,-3.93952 -5.51465,8.31646 0,0 z m 79.18811,1.61386 c -0.64947,-2.74495 -1.31731,3.43888 0,0 z M 263.18937,339.6743 c -1.76088,-1.72904 -3.51933,1.88453 0,0 z m 41.04922,-9.34233 c 3.03109,-4.02539 13.81503,-22.48603 4.65342,-9.02319 -2.6879,4.81462 -11.62348,16.51009 -10.49604,18.00764 2.01826,-2.94786 3.89944,-5.98719 5.84262,-8.98445 z m 83.53005,8.66051 c 8.39687,-8.5729 -9.0301,3.24902 0,0 l 0,0 z m 5.16055,-4.17085 c -0.61805,-20.4776 -2.40684,16.98075 0,0 z m -132.5765,3.97134 c 1.29072,-1.88104 -2.33201,2.22414 0,0 z m 32.95506,0.11916 c -1.8855,-1.77184 -1.72352,-0.18527 0,0 z m 85.6546,-1.21703 c -1.61984,-4.1138 -5.98025,-1.97722 -0.41783,-0.57557 -2.96862,-1.86979 1.77211,4.40823 0.41783,0.57557 z m -1.67131,0.15776 c -1.06753,-1.49895 -1.06753,1.49895 0,0 z m -82.6174,-1.10973 c -2.40906,-0.32067 -1.02173,0.59662 0,0 z m 96.4057,-1.3393 c -8.78721,-7.72679 -1.44928,2.84571 0,0 z m -125.13928,0.35989 c -0.5053,-1.52766 -1.03048,1.48843 0,0 z m 38.70269,-3.55153 c 0.40753,-1.79518 -3.44052,5.52125 0,0 z m 67.02702,-7.61956 c -1.06226,-10.57322 -13.64033,-23.69968 -20.27898,-24.1827 12.0273,5.85626 20.14074,18.48521 19.81184,31.94006 1.42487,6.00951 1.03738,-6.99223 0.46714,-7.75736 z m -77.88602,8.65023 c -4.53748,-3.13517 2.34298,2.98531 0,0 z m 3.32287,-1.27538 c -1.32079,-3.12904 0.75105,4.76476 0,0 z m 92.1562,-1.19637 c -9.73647,-8.36184 1.27391,7.95336 0,0 z M 291.3322,328.5562 c 3.26828,-3.6045 14.87293,-24.29001 5.49127,-12.07576 -3.4625,6.64673 -9.28863,15.41815 -8.84582,2.59529 -3.62572,-17.70446 -15.31969,-33.52514 -31.15998,-42.22566 9.45214,9.79383 23.8179,20.43018 27.65367,35.81762 3.36776,3.41704 1.05062,28.93284 6.86086,15.88851 z m 86.94706,3.83458 c 2.25712,-10.21325 -2.25265,3.37417 0,0 z m -2.76399,-0.003 c -1.03496,-5.64326 -1.93018,0.83591 0,0 z m 1.04457,-0.81521 c -2.91742,-3.41912 0.782,1.48778 0,0 z m -6.99245,-2.5982 c 0.40611,-10.14846 -11.04858,-24.34638 -16.91448,-24.84318 9.96301,5.46333 15.36376,16.30026 16.40028,27.26866 1.17033,1.16973 0.29005,-3.44465 0.5142,-2.42548 z m 7.72365,1.35794 c -0.96148,-1.44947 -1.52305,1.60786 0,0 z m -70.11226,-1.98468 c 4.35221,-6.12243 0.40859,-2.26665 -1.23088,1.56685 l 1.23088,-1.56685 z m 84.05761,-1.03673 c -0.41521,-5.13911 -4.92703,2.75464 0,0 z m -116.5388,-0.34847 c -1.38253,-12.57913 -8.31988,-24.34245 -18.19915,-32.14544 0.0675,5.2799 5.3244,8.04656 0.0928,13.36531 10.01094,-5.8584 -3.37147,9.03546 3.28279,2.75456 8.56704,-4.37932 -3.06558,-6.07655 -1.87272,-5.25636 6.43652,-5.61428 6.14287,6.41239 4.01868,5.03808 8.30286,-4.38901 3.13973,7.26777 4.20272,5.54469 7.97348,0.80829 -2.53079,8.48315 5.94021,9.15941 -6.4153,-5.22017 1.79167,0.59804 2.53465,1.53975 z m 2.18766,-2.16633 c -1.97505,-13.0766 -9.34247,-25.59739 -20.20036,-33.08989 6.74549,9.82926 17.38933,19.53773 18.52521,32.92778 -0.0305,1.47793 3.26985,5.45676 1.67515,0.16211 z m 93.17445,1.05251 c -0.717,-0.48581 0.51823,3.43551 0,0 z m -74.95596,-8.26004 c 13.78454,-10.18449 -9.19814,-12.15632 -13.68977,-20.90092 -15.59773,-14.91996 -19.88722,-38.94885 -13.99994,-59.19156 3.48632,-0.12474 3.31383,9.56438 4.59036,0.94067 -6.97501,-3.45742 -20.28754,-10.06897 -15.86769,4.70332 -0.0209,10.80305 0.0176,21.60612 0.0278,32.40918 18.84054,9.82793 32.70327,29.76598 33.41547,51.23151 1.53711,-3.23033 3.64866,-6.15435 5.52373,-9.1922 z m 70.8606,6.66973 c -6.27379,-1.87492 0.69618,5.08891 0,0 z m 8.9127,1.2453 c -3.86129,-5.59731 7.17076,-3.73767 1.83845,0.65043 6.79129,-4.54145 -6.43201,-7.37068 -1.83845,-0.65043 z m -5.248,-1.96099 c -0.7313,0.41759 0.67817,2.30091 0,0 z m 4.3322,-2.49691 c 0.46348,-2.27427 -6.53356,-4.01222 -1.53114,2.86512 l 0.33583,-0.78214 1.19531,-2.08298 0,0 z m 18.36433,2.70583 c 0.45663,-5.82146 -5.36011,-15.69243 -1.87927,-4.65429 0.23884,0.75122 -0.0474,7.40296 1.87927,4.65429 z m -80.99758,-1.98468 c 0.40753,-1.7952 -3.44053,5.52126 0,0 z m 64.70957,1.04457 c 6.1579,0.83808 -5.91601,0.99607 0,0 z m 0.41782,0.83565 c -1.06752,-1.49895 -1.06752,1.49895 0,0 z m -17.09151,-2.82033 c -4.47152,-10.49539 -4.2081,-0.73133 1.50782,2.3664 l -1.50782,-2.3664 z m 4.97299,0.52412 c -0.99111,-5.45082 -5.8782,3.95048 -4e-5,0 l 4e-5,0 z m -97.35223,0.88497 c -1.35279,-1.93535 -1.47157,-0.32713 0,0 z m 111.70169,-2.47959 c -5.54839,-6.16039 0.007,6.77417 2e-5,0 l -2e-5,0 z m -109.61255,-0.32897 c -1.44717,-4.44948 -8.38282,-1.02491 -1.75523,0.0415 -0.6588,2.51529 2.15653,2.36825 1.75523,-0.0415 z m 99.44092,0.57956 c -1.11835,-1.8312 0.97758,4.19193 0,0 z m -103.80351,0.49325 c 4.54142,0.0657 -3.03201,-2.44077 -0.96471,-0.2437 l 1.5177,0.83712 -0.55299,-0.59342 0,0 z m 95.65785,-0.61346 c -0.50532,-1.52763 -1.03047,1.48843 0,0 z m 15.6382,-1.51874 c 1.50349,-11.89021 -10.96276,4.29103 0,0 z m -3.50597,-0.13573 c -1.46121,-9.26166 9.4192,2.55029 0,0 z m 3.04962,-1.00133 c 0.23974,-2.24793 -6.05896,1.95733 0,0 z m -113.71296,1.54809 c 2.26583,-2.62237 -1.83709,0.25942 0,0 z m 99.12797,-0.33923 c 5.19987,-6.11236 -7.71845,-0.49865 0,-1e-5 l 0,1e-5 z m 6.10846,-1.85685 c -2.76279,-4.55603 2.01491,5.01235 0,0 z m -102.28746,-1.14196 c 8.63763,-9.37652 -14.96225,1.37734 -2.82451,-3.0937 9.80486,-1.16193 -5.75128,7.4765 2.82451,3.0937 z m 93.66853,-1.57719 c 2.38371,-7.01199 -6.55798,2.02434 0,0 z m 7.13645,0.17336 c -2.02066,-3.02246 1.07426,2.96998 0,0 z m 17.86601,-2.33053 c 3.57834,-8.12315 -4.90286,-1.80745 -1.41309,1.79285 l 1.41309,-1.79285 z m -10.76294,0.65922 c 2.4241,-8.14926 -7.38799,-0.71282 -3.14516,-0.43048 1.82909,-8.31198 2.83183,3.10261 3.14516,0.43048 l 0,0 z m -112.39555,-0.65614 c -2.18817,0.37129 -2.28616,2.00774 0,0 z m 53.89973,0.64718 c -9.93199,-3.78591 -21.02359,-7.1226 -28.73152,-15.27312 -14.17206,-12.87218 -20.35313,-32.72944 -17.31797,-51.47373 2.80266,-8.23432 -1.28508,-8.61985 -1.50204,-0.14354 -4.99343,26.75053 11.25504,55.23111 36.88681,64.45452 3.25047,0.69815 7.51304,3.38388 10.66472,2.43587 z m 49.73044,-0.81406 c -4.35165,-5.39556 2.69463,4.48296 0,0 z m -8.57446,-0.0126 c -0.5053,-1.52766 -1.03048,1.48843 0,0 z m 15.16272,-0.16677 c -1.91406,-1.78165 0.61902,2.10784 0,0 z m 2.13643,-0.84885 c -1.79312,1.45749 -1.17865,2.27624 0,0 z M 258.66726,310.1718 c 6.08264,-4.41997 -4.40196,-1.99938 -2.04595,1.28198 l 2.04595,-1.28198 z m 112.7742,0.52228 c -1.06756,-1.49892 -1.06751,1.49894 0,0 z m 35.02078,-0.68805 c -11.16003,-8.53592 -22.94803,-18.28509 -28.20908,-32.03901 -4.58261,-5.13042 -2.89886,-23.5397 -6.61002,-22.44359 -2.71545,6.17225 -12.55252,15.38148 -10.97687,20.22751 4.10661,-4.53628 11.87219,-22.76398 12.55915,-6.60599 4.49691,17.73397 16.54152,33.70915 32.98721,41.96698 l 0.24961,-1.10588 0,-2e-5 z m -92.54608,-2.55011 c 0.0463,-6.75618 -0.42901,5.06322 -5.38625,-0.38866 -6.9701,1.238 8.74617,5.87176 5.38625,0.38866 z m 41.92702,2.1612 c -1.17592,-5.62694 -3.37333,2.85987 0,0 z m 15.82357,-0.0191 c 1.33141,-1.92765 -4.44578,1.81958 0,0 z m 16.4878,-0.21945 c -1.74318,-6.4398 -9.4105,-14.02802 -2.79179,-3.17449 -1.05053,0.38947 1.70093,5.33999 2.79179,3.17449 z m -25.90529,-0.074 c -2.70864,-3.06078 -2.43394,-1.65545 0,0 z m 20.9317,-3.01042 c 4.01027,-1.68693 -5.68095,0.30136 -1.77424,2.26586 0.35916,-0.8955 0.84413,-1.84294 1.77424,-2.26586 z m 1.91639,1.39685 c -0.71637,-0.71837 0.36075,2.3359 0,0 z m 21.4416,-0.5484 c -5.63723,-2.5738 4.37641,-11.0918 -5.69473,-13.56078 -10.05246,-8.68366 -17.74131,-21.6218 -17.39751,-35.14321 6.56441,5.33485 5.71294,19.35352 13.68012,25.96467 2.86733,5.43609 12.50463,11.60232 8.67779,3.08245 -6.99765,0.30017 -0.76249,-7.52342 -7.6059,-6.11829 -1.62427,-6.16571 4.86368,-5.38517 -3.42504,-5.38507 -3.02092,-4.53446 4.28835,-6.01379 -2.97674,-7.68227 -1.17943,-9.2178 6.5055,3.16031 5.81196,-1.70157 -7.17887,-3.75744 -14.61849,-10.9865 -22.79083,-11.88644 1.85774,-4.4492 -4.04491,-5.09866 -3.27347,-4.21539 -11.24575,-7.25468 -14.3334,16.53759 -23.06878,22.46726 1.71364,0.60827 13.4384,7.67225 11.30323,-0.20217 4.30934,-5.5252 15.28054,-30.43981 14.96452,-11.34475 2.07188,19.41438 14.70552,36.78256 31.48201,46.34367 l 0.31337,-0.61811 0,0 z m -8.23667,-5.12768 c -0.23705,-11.50122 13.55752,-3.15142 0,0 z m 3.38643,-2.2447 c 4.1805,-7.41952 -7.20651,5.8261 0,0 z m -8.45604,-2.16932 c -2.22864,-5.95483 11.94773,-7.14141 2.79715,0.30513 l -1.47184,0.61637 -1.32531,-0.9215 z m 4.71112,-4.08574 c -5.44941,-0.26018 -3.04501,7.66588 0,0 z m -9.28785,-0.87117 c -0.86877,-8.34184 12.30325,-4.01902 1.305,0.41427 l -0.70643,-0.0119 -0.59857,-0.40235 0,0 z m 4.28884,-3.00882 c -1.26849,-2.98196 -6.34637,5.74278 0,0 z m -8.62107,-2.95373 c 0.58546,-7.23368 12.11572,-3.56058 2.66963,0.69401 -0.84775,0.52946 -2.31904,0.42342 -2.66963,-0.69401 z m 3.84662,-1.43401 c 4.07081,-5.49271 -7.47322,4.40587 0,0 z m -7.07129,-4.07259 c -1.55392,-6.94919 13.29468,-3.09449 2.52992,0.39332 -0.67967,0.399 -2.23239,0.75395 -2.52992,-0.39332 z m 5.03655,-2.75036 c -7.04251,-0.76448 -3.82649,5.60132 0,0 z m -7.59897,-3.26042 c -0.0853,-7.15512 12.43807,-1.66749 1.8422,0.44294 l -1.23378,0.1116 -0.60842,-0.55454 0,0 z m 5.23707,-2.08462 c -3.58719,-1.96897 -6.53856,3.97517 0,0 z m -31.56263,-0.22588 c -0.74036,-6.79115 6.98717,-8.56752 5.77534,-2.88495 3.85445,3.09694 -5.59881,3.31698 -5.77534,2.88495 z m 1.13402,-2.16639 c -0.67209,0.62134 0.65025,3.23627 0,0 z m 3.68133,-0.10446 c -4.53863,-2.89911 1.61022,2.79438 0,0 z m -0.20891,-3.34262 c 0.82382,-1.6056 -3.61546,1.46305 0,0 z m 19.95125,1.85055 c -0.8226,-7.75447 13.30762,-2.28364 2.08543,0.10778 l -2.08543,-0.10778 z m 4.17828,-1.48356 c 3.6299,-4.72116 -8.68879,2.84579 0,0 z m -23.33587,-3.68499 c 0.54069,-8.53335 11.85224,2.33801 2.47164,0.0709 0.38458,1.95627 -2.80792,1.97192 -2.47164,-0.0709 z m 1.1672,-1.58351 c -0.717,-0.48585 0.51822,3.4355 0,0 z m 4.72438,0.52506 c -3.27729,-3.04168 -2.92517,-0.14639 0,0 z m 12.22145,-0.47453 c -0.22453,-8.75073 14.49709,1.20521 0,0 z m 4.66638,-1.25221 c 1.26382,-3.29641 -8.42019,1.86165 0,0 z m -20.96165,-1.27659 c -1.52237,-4.57715 9.76946,-0.58344 1.64565,0.2791 l -1.64565,-0.2791 z m 3.02925,-0.97676 c 2.00033,-1.41629 -4.87788,1.36929 0,0 z m 0.61727,-2.52466 c -2.26405,-6.26343 9.22396,-8.97347 4.54897,-4.02566 6.23653,5.201 -3.52712,0.86416 -3.94007,4.72234 l -0.60893,-0.69668 3e-5,0 z m 0.8805,-2.62103 c -1.55027,0.36747 1.48198,4.08241 0,0 z m 4.56072,0.61666 c -3.20816,-2.65473 -2.4672,-0.51067 0,0 z m -0.94881,-4.07996 c -1.53826,-0.4739 -0.76756,0.72761 0,0 z M 302.8341,305.5545 c -3.72536,-4.68636 -17.80379,-6.90778 -5.09882,-0.96595 1.00772,-0.0595 7.09675,5.17702 5.09882,0.96595 z m 4.44895,1.15503 c 5.6612,-1.7379 -3.08066,-2.38834 0,0 z m 5.66258,-0.27353 c -1.06728,-1.69904 -2.42154,3.04812 0,0 z m 52.22842,0.0799 c 1.36407,-6.30457 -2.42471,-2.4801 0.48258,0.83566 l -0.48258,-0.83566 z m 3.351,0.19882 c 1.43107,-2.67921 -2.71017,2.44843 0,0 z m -9.20059,0.0749 c -2.09694,-2.41553 -2.59546,-1.79319 0,0 z m -52.61717,-0.93543 c 0.19782,-6.20053 -7.00121,2.41191 0,0 z m 4.98486,-0.3816 c -3.1535,-12.01729 -5.74983,1.47988 0,0 z m 56.19777,-0.41903 c -3.00787,-7.05692 -3.40855,7.56489 0,0 z m -2.13927,0.43783 c 0.48111,-5.33757 4.28748,3.04277 0,0 z m 1.30362,-0.22892 c -0.63365,-1.59137 -1.27587,1.32298 0,0 z m -108.60755,-1.72459 c -0.48524,-13.86305 -3.58286,8.06459 0,0 z m 123.61516,1.8888 c 0.0351,-4.74706 -10.83008,-1.09593 -1.36692,0.20171 l 1.36692,-0.20171 z m 24.04595,-1.31324 c -0.90738,-2.95301 -0.87604,3.56036 0,0 z m -37.58278,-0.72109 c -2.76649,-2.44259 1.50194,2.62098 0,0 z m -67.39174,-0.47146 c -1.53826,-0.4739 -0.76756,0.72761 0,0 z m -1.83523,-0.92577 c 5.22873,-2.70817 -2.41697,-2.93418 -3.37966,-8.92206 -2.94419,-1.99078 -10.36251,-0.63165 -6.8934,-5.79634 1.34931,7.19586 7.99149,2.56773 -0.19464,-0.81651 -2.59941,-2.91183 -10.00885,-15.91866 -6.40986,-6.32391 6.57223,1.99804 -2.43428,6.47924 -0.053,3.71513 5.55979,-0.88583 -6.62245,-4.64878 -1.95694,1.88475 0.52857,9.77413 5.02633,-1.95286 6.62978,-0.58765 1.97245,6.87659 -4.99926,9.48672 3.36658,6.74341 11.74239,0.19145 -6.45214,5.01056 3.39022,4.45194 3.02249,-8.13074 7.98323,11.41854 1.00414,2.04056 -7.46156,1.45451 4.44292,2.43595 4.49678,3.61068 z m -18.64462,-13.28666 c 5.20404,-0.9738 -2.87883,-3.03777 2.16963,-3.20762 1.53239,1.86592 0.53654,4.35002 -2.16963,3.20762 z m 24.31908,12.75552 c 1.18734,-4.84433 -10.61125,3.6858 0,0 l 0,0 z m 47.24886,0.70949 c -1.63125,-1.36238 -1.67464,0.7417 0,0 z m 24.11108,-3.11304 c -1.43143,-12.5505 -4.01229,8.98069 0,0 l 0,0 z m -78.51416,-0.39073 c -3.65678,-12.77405 -1.92079,7.75777 0,0 z m -4.35963,-0.18059 c -0.25737,-6.19146 -5.204,3.81243 0,0 z m 19.48694,0.5569 c -12.71186,-5.68591 -25.94591,-14.56415 -30.35824,-28.80781 -4.25257,-5.27675 0.18221,-25.88217 -3.55446,-23.33776 -4.53129,21.56774 8.74544,44.39693 29.50817,51.51618 0.29057,-0.93297 4.47693,2.85119 4.40453,0.62939 z m -22.52721,-0.9304 c -1.51777,-2.13711 1.15735,3.72905 0,0 z m -0.87112,-0.52049 c -1.80352,-5.30513 -13.05939,-11.11209 -4.68249,-2.80928 0.96774,-0.0973 5.03633,7.06577 4.68249,2.80928 z m 89.11119,-3.07583 c -3.07624,-5.6362 -10.47204,-6.68488 -2.86022,-1.34254 -0.0897,1.16468 7.12783,6.63656 2.86022,1.34254 z m 26.77123,-0.74707 c -10.52597,-8.08167 -17.36225,-20.16912 -19.82235,-33.12454 -4.57957,0.0566 2.85426,17.52647 6.68309,22.18028 1.05416,2.26972 17.16599,19.83646 13.13926,10.94426 z M 350.759,295.6523 c 2.13752,-2.98842 -3.11809,3.03868 0,0 z m -39.53456,-1.2316 c -0.31606,-8.31956 -1.2036,3.83697 0,0 z m -21.67714,0.64956 c -1.25911,-1.37842 -1.27347,0.56722 0,0 z m 4.06922,-1.18486 c -3.18578,-4.81005 -9.20593,2.62714 0,0 z m 18.80683,0.34961 c -0.65807,-4.92087 -0.8992,1.38843 0,0 z m 59.79141,0.12293 c 2.34163,-4.73071 -12.52021,1.5019 0,0 l 0,0 z m -20.41119,-0.53957 c -2.14023,-4.78107 -1.33307,-0.26391 0,0 z m -2.08913,-0.0217 c -0.97509,-1.43516 -1.20344,0.79622 0,0 z m -42.19462,-1.40785 c 3.83369,-8.04174 -4.4346,5.61756 -2.78796,-3.262 0.26917,-4.32361 -3.98523,7.71477 2.78796,3.262 z m 58.19576,-0.92495 c -0.99263,-12.81078 -5.28285,0.99922 0,0 z m -58.59046,-0.23383 c 2.67378,-5.87502 -5.27725,2.85153 0,0 z m -20.08766,-1.00258 c 1.68218,-8.98479 -5.02326,-0.85715 -0.88354,1.19575 l 0.88354,-1.19575 z m 19.64076,0.15725 c -1.67464,-0.74169 -1.63125,1.36235 0,0 z m 63.27099,-0.40297 c 1.44715,-5.41472 -6.07613,1.71679 0,0 z m -7.41453,-1.09307 c -0.71638,-0.71837 0.36072,2.33589 0,0 z m 8.77437,0 c -0.71637,-0.71837 0.36075,2.3359 0,0 z m -72.46509,-0.3525 c -0.62339,-7.4616 -1.32443,-0.6018 0,0 l 0,0 z m 2.82872,-0.206 c 1.43107,-2.67919 -2.71017,2.44843 0,0 z m -22.33248,-0.56864 c 2.04335,-6.66198 -11.65994,-17.34196 -3.74988,-5.18959 0.88953,0.94701 2.73117,5.68373 3.74988,5.18959 z m 20.3084,-0.0725 c -0.84836,-2.16991 3.53562,-2.39969 -1.21036,-0.90772 -0.56733,1.05966 3.01603,1.82962 1.21036,0.90772 z m 11.2079,-0.3102 c -11.40076,-6.46725 -21.28181,-17.9576 -20.56558,-31.81079 -2.01698,-3.79745 -0.78418,14.23419 3.39188,17.58111 3.93807,5.95504 10.26757,13.00165 17.1737,14.22968 z m -10.67666,-0.95448 c -1.88866,-0.79487 -0.13368,2.04475 0,0 z m 59.61002,-0.0412 c 3.78446,-5.36401 -10.9457,3.50877 0,-10e-6 l 0,10e-6 z m 9.66692,0.63588 c -2.30091,-0.67817 -0.41759,0.7313 0,0 z m 36.42125,-0.39473 c -2.9377,-0.91776 2.32374,-9.70222 -1.32372,-5.20721 -3.40698,1.25414 -2.44082,6.48066 1.32372,5.20721 z m -36.94354,-0.48428 c -2.84892,-4.3242 -16.63627,-7.72249 -5.4722,-2.43798 1.71947,0.81735 3.21309,3.72462 5.4722,2.43798 z m -15.87744,-1.51058 c -3.47125,-9.6847 -6.05901,0.8466 0,0 z m -50.97493,0.83723 c -1.35276,-1.93537 -1.47159,-0.32713 0,0 z m 16.61652,-9.72421 c 0.0911,-4.94381 1.66133,-13.64812 -6.19088,-12.51509 -5.63457,4.51548 -2.66442,14.40558 -0.9357,20.33095 6.86941,5.6361 8.02522,-1.90096 7.12119,-7.37193 l 0.005,-0.44393 0,0 z m -4.30197,1.31651 c 2.15545,-3.08904 3.16767,-16.17511 -2.6418,-9.31993 3.90195,4.21594 0.57717,17.78925 0.94973,4.41633 -5.66207,-8.20573 8.18382,-9.50314 3.52461,-0.0405 -1.098,1.35066 -2.46355,12.27586 -1.83254,4.94412 z m -5.00889,6.43167 c -9.2149,-6.12504 -16.49518,-15.79026 -16.47572,-27.28701 -3.84663,5.99877 5.96008,24.89467 16.5983,27.85161 l -0.12258,-0.5646 0,0 z m 0.40464,-3.01892 c -1.68559,-10.71954 -1.4801,4.70956 -5.04341,-3.36807 8.04758,-4.12972 -8.89813,-0.61567 0.0324,1.77951 3.77098,2.22561 4.56773,2.27799 5.69009,3.62745 l -0.67953,-2.03889 4.1e-4,0 z m 47.45369,1.78995 c -0.64541,-5.4954 -5.09926,3.49197 0,0 z m -55.33303,-2.5304 c -4.34334,-3.86658 -12.29607,-17.35809 -4.88885,-4.77023 0.62433,2.01772 13.56603,12.90759 4.88885,4.77023 z m -23.33374,2.02825 c 6.56647,-3.03335 -1.48045,-3.33891 -0.33159,-2.29416 5.44942,-10.31272 -5.45835,-2.52032 0.17107,2.72375 l 0.16052,-0.42959 0,0 z m -1.50088,-2.82033 c 0.36563,-1.88333 0.36564,1.88331 0,0 z m 126.12531,1.24871 c 9.08053,-5.63664 -8.87989,3.90194 -1.42654,-3.84988 9.84812,-6.5684 -9.80119,3.00137 -1.48427,5.06155 l 1.32376,-0.36138 1.58705,-0.85029 0,0 z m 2.49952,-0.67887 c -3.28559,1.54477 -3.40284,3.20424 0,0 z m -51.63217,0.0479 c -0.78855,-4.23604 -11.61701,-1.50562 -1.04329,0.52969 l 1.04329,-0.52969 0,0 z m 51.73663,-2.45999 c 3.0223,-8.53393 -12.04896,8.70038 0,0 z m -98.76369,0.43257 c -3.45776,-3.30045 0.52315,5.03751 0,0 z m -29.41119,-3.74485 c 3.39232,-3.17506 3.74441,6.92855 2.09141,-1.8856 -0.28947,-2.83542 -2.61124,-12.13799 -3.35907,-5.13153 6.10771,3.72539 -2.04225,4.78503 -2.77178,5.47974 6.9229,1.83861 -1.62497,4.73196 -1.10172,1.36671 -0.39383,3.4954 5.14064,4.06056 5.14116,0.17068 z m 26.86325,1.57928 c 2.47701,-7.1705 -6.06644,1.36843 0,0 z m 95.60307,-0.84793 c 7.96235,-2.86879 -10.70879,2.6884 -1.42246,-3.97204 2.55778,-4.33312 -9.44812,6.7551 -0.47551,4.96588 l 1.89797,-0.99345 0,-3.9e-4 z m -124.77467,0.47386 c 1.57783,-6.07684 -6.02674,1.37174 0,0 z m 26.05418,-0.18627 c -6.1e-4,-5.96286 -4.36383,-1.6403 0,0 z m 6.8071,-5.38026 c 1.72381,-7.83588 -12.13234,-8.08773 -2.55049,-2.9548 -0.79341,4.77835 3.72519,11.82021 2.55049,2.9548 z m 95.01053,4.26358 c -2.18817,0.37126 -2.28616,2.00775 0,0 z m -130.55777,-1.86183 c 0.64413,-4.91195 -6.31716,-16.54454 -2.9952,-4.71809 0.71994,1.22745 1.39017,10.17865 2.9952,4.71809 z m 128.91419,0.62378 c 10.86232,-4.41059 -10.35432,-1.46345 -2.31902,1.04268 l 2.31902,-1.04268 0,0 z m -95.69548,-0.16748 c 2.07197,-6.08982 -7.92796,-11.46991 -1.92244,-3.15889 -0.0909,-0.58142 2.8986,6.3105 1.92244,3.15889 z m 48.75348,-9.64997 c 2.97837,-3.92055 14.58911,-23.2374 5.43374,-10.20525 -2.30909,4.00631 -13.87518,19.59564 -10.93617,18.41134 1.93665,-2.66478 3.70308,-5.44818 5.50243,-8.20609 z m -52.17385,8.43116 c 2.40822,-6.00646 -8.306,2.24991 0,0 z m -24.18022,0.0423 c -5.07478,-4.79803 -7.1308,-0.4762 -3.26601,-5.08066 3.91694,-3.05647 -8.4158,0.31144 -1.45736,3.99804 1.4599,0.16585 3.36565,2.18711 4.72337,1.08262 z m 19.89131,-0.37225 c 1.75083,-4.53772 -5.66338,-4.76631 0.0965,0.68562 l -0.0965,-0.68562 -2e-5,0 z m 107.90474,-1.5922 c -13.57838,-8.47258 -26.56852,-18.23783 -40.60526,-25.77015 -6.03177,3.11657 1.76524,1.60308 6.06906,6.06564 6.72531,4.2671 3.45675,2.0993 9.53494,5.97979 -6.78017,-3.83476 6.92266,4.71733 7.98502,4.80622 2.82918,3.1038 2.77825,1.41787 8.14123,5.82907 5.73962,0.66897 2.16754,2.48417 1.58391,3.15055 1.76441,-3.52751 9.47468,5.30191 7.2911,-0.0611 z m -38.066,-22.02123 c -9.20823,-6.77965 10.68134,6.77565 0,0 z m 35.83634,23.04557 c -2.21294,-1.52647 0.4684,1.44 0,0 z m -6.47632,-0.41783 c 1.03597,-1.64563 -3.06201,1.7519 0,0 z m -40.04363,-16.97032 c 2.59271,-5.21878 9.69802,-12.9195 9.61519,-16.91413 -7.5314,10.61843 -15.2481,21.61705 -20.87825,33.31528 4.17601,-4.34562 7.55467,-11.12515 11.26306,-16.40115 z m 39.83471,15.9378 c -0.17198,1.21921 -7.24918,-7.17394 -3.58602,0.23824 l 1.24828,0.35761 2.33774,-0.59585 z M 292.71211,266.159 c -2.20309,-4.50681 1.82167,6.01494 0,0 z m 7.46269,0.10831 c -1.05555,-5.63535 -5.58602,4.17679 0,0 l 0,0 z m 1.90732,0.50618 c -1.5942,-1.56128 -1.62639,2.60445 0,0 z m 49.91022,-10.10402 c 2.42577,-7.54448 18.24325,-20.92657 12.20035,-24.10866 -3.54173,11.02269 -12.9121,20.9397 -18.82974,31.44877 -3.42172,9.53415 5.83913,-6.25156 6.62939,-7.34011 z m -76.90514,7.20532 c 4.05148,-9.54296 -7.61991,6.51778 0,0 l 0,0 z m 12.0247,1.00245 c 4.00687,-4.82729 -6.3835,3.96584 -2.70035,-3.36377 5.68029,-3.32119 -7.07794,3.76305 1.8521,3.85805 l 0.84827,-0.49427 -2e-5,-1e-5 z m 63.76729,-10.90321 c 1.93096,-6.92469 14.25286,-15.47759 11.40864,-21.74331 -7.99408,9.44843 -14.23825,21.0216 -21.37903,31.45779 4.12401,5.37375 6.87502,-7.89139 9.97039,-9.71448 z m -66.22908,9.489 c -1.31398,-2.35121 0.42951,2.83464 0,0 z m 2.30155,-0.45838 c -1.01008,-0.21986 -0.19581,2.60658 0,0 z m -12.57728,-2.49791 c 4.10456,-0.23403 2.58076,4.52893 2.45449,-3.6017 -0.5602,-2.68266 -0.9387,6.52834 -5.04049,-0.48391 1.79376,-1.63439 -1.8638,10.56966 2.586,4.08561 z m 23.30442,2.29449 c 0.66963,-3.80944 -5.11983,0.5987 0,0 z m -11.58727,-0.82755 c -1.53824,-0.47392 -0.76758,0.72764 0,0 z m 55.22317,-8.90187 c 4.57865,-5.77833 9.29244,-12.90388 -2.13797,-10.44211 -9.13583,1.42261 -23.84184,-2.98265 -30.40937,1.51469 0.4436,5.64058 -2.67323,15.54499 6.87008,11.5398 6.67992,2.04685 14.82483,2.06106 19.75857,5.96079 2.18317,-2.70549 4.01342,-5.67307 5.91869,-8.57317 z m -17.9267,2.25616 c 2.0055,-4.78871 -9.40658,-5.58223 -0.12137,-7.09907 -0.71443,-7.47408 4.28854,-1.74429 4.95966,-0.0689 7.51837,2.62676 -3.99629,2.92709 -1.83863,7.1072 l -1.59915,0.66484 -1.40051,-0.60404 0,-4e-5 z m 2.27069,-0.86068 c -1.60329,-4.69776 8.75364,-5.05279 -0.30021,-5.10623 1.44297,-8.74215 -2.15669,2.13263 -4.78615,0.93101 7.0573,-1.89458 0.80627,4.95735 5.08636,4.17522 z m 80.19061,5.38371 c -3.44266,-3.74242 -7.05912,-3.94183 -11.06726,-7.89733 -2.02919,0.0394 -4.58467,-2.71151 -5.51029,-3.35459 -3.62868,-1.50128 -3.9068,-2.48671 -7.18209,-4.34988 -1.42335,-0.9666 -3.36866,-1.87344 -5.8496,-3.76045 -1.96298,-0.53039 -4.45058,-4.06115 -7.3779,-3.57711 6.63243,5.53326 18.12576,12.55263 26.92146,18.39844 1.274,0.11909 12.95116,9.95851 10.06568,4.54092 z m -136.2234,0.80826 c 6.77634,0.59176 -2.88955,-5.24261 0.0628,0.7069 l -0.0628,-0.70687 5e-5,-3e-5 z m 0.88131,-3.40638 c -2.27624,1.17865 -1.45749,1.79311 0,0 z m 5.43405,0.27268 c -7.72855,-13.01122 -4.55816,1.94726 0,0 z m 7.65201,0.48882 c -2.1723,-8.39832 7.43218,4.16342 1.71158,-4.18415 -4.09877,-0.6473 -3.55974,4.5881 -1.71158,4.18415 z m -13.30218,-3.01739 c 1.59217,-6.88087 -1.90846,-11.53862 -1.5935,-2.0579 -0.77144,2.85726 0.71358,6.9865 1.59345,2.0579 l 5e-5,0 z m 14.2991,2.18456 c -2.59789,-3.81003 0.15475,1.47557 0,0 z m 121.52937,-41.02089 c -0.3957,-14.26017 0.8782,-28.73253 -0.8448,-42.85244 -6.52668,-4.78525 -15.93711,-1.82265 -23.82646,-2.56962 -7.77704,-0.98141 -9.03925,10.41633 -14.15026,14.66387 -11.77495,10.4557 4.44424,23.56898 -4.62754,33.53925 -4.34476,7.14095 -0.57435,12.17376 5.93245,14.82172 7.38132,7.38465 12.10811,6.11891 17.18821,-2.16138 9.46493,-2.16781 5.43528,-3.79214 3.21795,-10.40695 5.171,-6.65714 3.47327,-12.05494 0.65933,-17.96556 8.98915,-6.06818 -9.79752,-23.7269 8.63307,-23.34882 12.74898,5.44264 -3.18885,18.19132 5.06081,25.7366 -9.93257,6.25395 7.50052,14.48784 -1.89136,21.59686 -1.53083,5.97044 7.8257,20.33947 -3.96197,23.99882 0.16618,2.50082 12.7474,10.95854 8.47339,-0.70365 0.11548,-11.44915 0.13283,-22.89906 0.13718,-34.3487 z m -120.95944,40.21587 c -0.50533,-1.52762 -1.03046,1.48843 0,0 z m 0.69712,-0.9324 c -1.2855,-0.6196 1.37005,2.98471 0,0 z m -7.99367,-4.91718 c 3.04833,-5.14367 -5.08859,-15.18247 -3.33019,-11.65452 5.38622,8.91639 9.28489,-2.64713 4.56819,-3.59617 -3.55571,0.1585 -8.88757,5.37221 -1.67131,8.3504 -1.77666,4.00947 -6.38305,-6.09265 -3.56911,1.73566 -5.90391,2.69222 -0.51221,10.23903 2.54627,1.52154 -4.81928,2.95634 -7.26817,4.88589 -1.72462,-0.56566 6.48515,-0.3365 -5.4384,8.87965 2.74747,2.51686 -7.18389,2.61018 2.52811,13.70023 0.4333,1.69189 z m 19.20463,5.61424 c -2.8906,-5.10893 -6.42738,-10.08308 -4.93626,-16.06898 -2.86528,5.32122 1.72808,12.92856 4.93626,16.06898 z m -26.0377,-1.93213 c -0.71638,-0.71839 0.36074,2.33587 0,0 z m 3.51002,-0.5123 c -3.43091,-5.19955 -4.77082,0.0277 0,0 z m 27.29852,1.17268 c 1.35718,-7.76755 0.37214,-16.01102 0.66091,-23.98037 -4.45541,-0.0874 -1.00014,7.73591 -2.08914,11.01492 0.84687,2.93198 -1.59379,12.66207 1.42823,12.96545 z m 92.16509,-3.28322 c -1.8855,-1.77185 -1.72351,-0.18526 0,0 z m 3.96936,-1.80741 c -0.0775,-1.06024 -5.17434,-2.91196 -2.65436,1.56325 l 0.60888,-0.44716 2.04548,-1.11604 0,-5e-5 z m -3.86776,-0.19197 c -1.28244,-6.9217 -6.47369,-6.69166 -3.49343,-14.32564 10.60489,-0.44195 -0.13822,-7.79939 -3.97549,-1.27315 -12.01531,7.91729 2.4858,12.78189 7.46892,15.59879 z m -97.14419,-3.954 c 0.59418,-4.60777 -9.39123,-22.92623 -4.06373,-9.49518 4.39385,1.01832 2.80785,19.11369 4.06373,9.49518 z m 104.42734,0.87444 c 0.93426,-3.75639 -5.6955,0.18116 -0.28169,0.27739 -2.7319,3.82583 0.0852,2.48539 0.28169,-0.27738 l 0,-1e-5 z m -106.21952,-1.32852 c 0.28602,-10.17062 -4.7003,0.6274 -0.43793,3.2378 l 0.33136,-1.07359 0.10657,-2.16421 z m -7.07561,-13.79338 c -2.63749,4.88536 0.19931,25.86147 0.10446,8.69999 0.0166,-2.89987 0.10575,-5.80424 -0.10446,-8.69999 z m 111.3696,16.61991 c 2.8676,-3.05248 -4.64465,1.67484 0,0 z m -2.79914,-1.78767 c 0.91977,-3.51496 -0.35289,-5.90354 -0.57481,-8.07693 -9.47987,0.8512 6.33338,-5.28564 -4.60889,-1.87772 -3.33645,3.44402 8.45732,5.94847 1.29909,5.17153 5.22819,2.8803 -0.77154,7.63745 3.88461,4.78312 z m -123.84666,-0.47561 c 1.23375,-5.42176 -5.73031,1.42754 0,0 z m 111.99438,-0.005 c -1.8855,-1.77185 -1.72351,-0.18526 0,0 z m -113.76222,-2.62612 c -0.28801,-1.93921 -2.9263,5.23719 0,0 z m 128.74667,1.12494 c 3.81136,-4.00125 -6.87303,2.8193 0,0 z m -120.69476,-0.4184 c -1.11049,-1.47822 -0.82438,2.23879 0,0 z m -2.08913,-0.15441 c -3.24314,-6.19486 -3.36963,1.47317 0,0 z m 125.67733,-1.13154 c -1.01008,-0.21985 -0.19581,2.60658 0,0 z m -23.72747,-0.55492 c -1.8855,-1.77185 -1.72351,-0.18526 0,0 z m 11.98458,-0.71978 c -0.71637,-0.71836 0.36074,2.3359 0,0 z m 11.25738,0.3317 c 2.88398,-4.38165 -5.41967,2.04023 -1.51494,0.30202 l 1.51494,-0.30202 z m -21.57065,-0.48302 c 2.42611,-4.68916 -0.68834,-2.02113 -0.59733,0.64749 l 0.59733,-0.64749 z m 14.20612,0.22966 c -1.06752,-1.49895 -1.06752,1.49895 0,0 z m 5.23712,-0.89944 c 6.12037,-5.94251 -9.55826,3.61029 0,0 z m -51.0296,0.12915 c -11.99638,-1.10631 -30.66846,-1.39847 -38.74293,-0.30463 12.8939,0.34822 25.88048,0.66195 38.74293,0.30463 z m 1.29388,-1.5242 c -9.25385,-3.84012 9.89528,-3.59973 -1.24926,-4.34181 -13.3745,-0.0358 -26.82374,-0.92048 -40.15708,-0.11597 6.51602,2.01585 -4.72309,6.19451 5.57925,4.54706 11.94048,0.12979 23.88839,0.13979 35.82709,-0.0893 z m -34.1571,-0.50043 c -4.83564,-9.15217 10.29557,-0.0703 0,0 z m 2.53443,-1.90564 c -3.01539,-4.82651 -3.58398,4.46212 0,0 z m 5.34652,1.65287 c -2.85326,-9.37471 10.50293,1.26557 0,0 z m 3.01003,-1.65287 c -3.133,-4.82685 -3.57366,4.61269 0,0 z m 5.1742,1.69221 c -2.85338,-9.40456 11.71518,1.41462 0,0 z m 3.05013,-1.58775 c -3.41856,-4.92792 -3.41369,4.8239 0,0 z m 5.30056,1.6484 c -3.33765,-7.64912 9.57556,0.47069 0,0 z m 2.77753,-1.37941 c -1.50337,-4.45326 -4.88304,3.46191 0,0 z m 30.98877,2.04376 c -1.88551,-1.77185 -1.72351,-0.18526 0,0 z m 28.23996,-1.85445 c -1.22396,-7.0054 -2.17046,1.77259 0.4883,1.4953 l -0.4883,-1.4953 0,0 z m -91.83208,-0.61167 c -2.83577,-3.97898 -1.67278,4.33624 0,0 z m 40.5447,0.41235 c -2.54546,-5.65906 -4.43939,4.5105 0,0 z m 43.1465,0.0351 c -3.99512,-1.08862 1.97556,2.2852 0,0 z m -117.82486,-2.60081 c 4.93683,-4.22224 14.12824,-4.87652 17.43347,-9.83984 2.33807,-6.84875 9.79972,-8.95028 8.88566,-17.53296 2.6188,-6.76869 10.53077,-14.05455 4.27377,-21.00023 -4.78637,-5.22547 -5.25298,-17.9111 -14.57743,-15.331 -11.32832,0.36604 -22.87226,-1.00853 -34.01366,1.09469 -4.55217,10.02899 -0.90124,22.52835 -2.10195,33.48632 -6.1e-4,8.73707 -10e-4,17.47413 -0.002,26.21119 6.82069,1.10346 13.98732,8.62174 20.10198,2.91183 z m -5.05974,-9.99451 c 1.64084,-3.07633 8.7802,-19.74621 2.3827,-11.21041 -13.08982,12.33608 -22.64138,-10.44914 -10.95176,-18.86119 5.81934,-5.58656 11.63093,-19.47868 17.85243,-20.1968 6.79506,10.68625 17.74797,19.35145 20.71772,32.0464 1.68022,11.41389 -14.45624,13.78449 -19.13758,4.53517 1.21948,6.82185 9.53548,17.15663 -2.92479,14.28891 -2.48194,-0.33732 -5.73444,0.62371 -7.93872,-0.60208 z m 13.51455,-2.29684 c -3.06748,-5.26633 -6.58471,-20.91215 1.77819,-8.86628 16.35105,9.28489 15.99064,-15.52514 5.49905,-22.08575 -5.79909,-3.16782 -11.27731,-24.27749 -16.74357,-11.28658 -5.94624,9.80358 -20.51342,19.55786 -15.5188,32.37111 6.28962,13.0719 22.52048,-14.56524 16.50907,2.97734 -4.94354,8.03948 -1.7121,10.20582 6.7198,8.95342 2.31539,0.0203 3.44893,0.50939 1.75626,-2.06326 z m 114.59619,14.03718 c 3.09419,-6.54552 -6.8464,3.56476 0,0 z m -30.33915,-0.45901 c -0.97512,-1.43515 -1.20341,0.79622 0,0 z m -72.71097,-1.05238 c 3.36736,-10.15445 -3.31764,2.09643 0,0 z m 87.98795,-0.53913 c 4.05217,-4.34981 -4.75689,4.45471 0,0 z m 15.23271,-1.14902 c 0.53208,-3.88427 -5.23197,3.1068 0,0 z m -46.2166,0.47994 c -14.67332,-1.52102 -29.69096,-0.95289 -44.46022,-0.48981 14.71512,1.02678 29.6976,0.86838 44.46022,0.48981 z m 42.03003,-1.47335 c -1.35279,-1.93536 -1.47158,-0.32715 0,0 z m 2.20154,-0.95197 c -2.40906,-0.32066 -1.02172,0.59659 0,0 z m -42.09279,-1.44366 c 6.15935,-2.65246 4.28023,-11.3656 -3.41373,-8.52436 0.32186,-1.34699 -12.93888,0.23969 -7.40469,-7.27633 7.20947,-1.38996 3.3311,3.76929 1.61497,3.46151 4.56731,-0.25963 14.13324,-1.62134 8.02993,-6.94308 4.48334,-7.02544 -0.32994,7.34524 7.54576,0.16609 6.44944,1.64043 -6.54249,-12.28402 -0.85155,-16.76608 -1.69515,-7.68856 -15.83109,-5.10663 -21.69539,-4.32572 -3.37359,8.864 -9.91819,16.79306 -2.40226,24.32972 -1.86264,5.79178 -8.81539,8.20132 0.19639,12.3232 5.20007,3.60543 12.22382,4.65017 18.38057,3.55505 z m -4.95555,-22.79481 c 9.27646,-7.38375 -18.55984,-1.36789 -3.59641,-10.2884 12.06065,-9.56107 13.17112,8.86605 3.59641,10.2884 z m 4.45892,-5.80006 c 4.14134,-8.37036 -10.65507,0.67648 -8.48587,-3.06463 -7.25433,7.85957 5.50997,-1.01527 6.61432,2.14564 -3.15354,0.22799 2.82671,8.08494 1.87155,0.91899 z m -4.63301,0.78797 c -2.30091,-0.67817 -0.41759,0.7313 0,0 z m 0.31337,-1.16102 c -0.7643,-1.38989 -2.02645,0.90064 0,0 z m 2.50696,-4.41185 c 1.22423,-1.43134 -4.74987,1.47564 0,0 z m 2.39381,0.16539 c -1.53826,-0.4739 -0.76755,0.72761 0,0 z m -3.34262,-1.25348 c -1.53824,-0.47392 -0.76758,0.72764 0,0 z m -10.75035,0.66115 c 1.32596,-8.57948 26.22644,-4.52876 13.15569,-2.28893 -4.31821,-1.72598 -10.21374,4.26107 -13.15569,2.28893 z m 9.851,-3.36692 c 14.84043,0.20461 -4.29797,-3.2641 -7.91771,2.53943 2.63865,-0.85094 5.15363,-2.1175 7.91771,-2.53943 z m 46.84712,36.86728 c 3.59654,-4.75543 -10.48401,-0.26946 -2.94539,0.61727 l 2.66254,-0.15276 0.37487,-0.17987 -0.092,-0.28463 0,-1e-5 z m -94.47242,-1.55618 c 6.09191,-3.52519 8.36098,-15.02554 1.69402,-3.75807 -5.83043,12.26573 -12.55439,-7.94398 -3.38533,-1.09388 -0.56007,6.17831 -5.0767,-4.53463 -2.66773,3.03642 11.29335,-1.86682 -6.78653,-11.67975 -3.30341,0.10565 1.5146,3.0924 5.03296,3.76988 7.66245,1.70988 z m 14.34471,0.007 c 4.99562,-4.72794 5.24754,-15.34984 1.02554,-3.78326 -4.99169,11.89388 -10.64074,-6.89205 -3.4324,0.83528 -8.03422,0.37095 6.52746,2.02206 -0.68515,-3.88996 -9.7419,-1.6245 -4.04951,13.86671 3.09201,6.83794 z m 5.22775,-3.11059 c 3.29341,-6.4329 1.18054,-10.29877 -0.70681,-1.4451 -2.77763,4.11185 -1.9823,7.0192 0.70681,1.4451 z m 2.61979,1.45721 c 4.51229,-9.44003 -1.09126,-5.42736 -1.9829,1.77475 l 0.32238,0.0309 1.66055,-1.80561 -3e-5,0 z m 6.54864,-1.00167 c -4.85111,-6.95042 -7.11151,7.44838 1.77786,2.88542 2.70961,0.57581 -1.50211,-2.14879 -1.77786,-2.88542 z m -15.93459,1.52748 c 1.82343,-1.97735 -5.37997,3.21813 0,0 z m 82.06825,0.25365 c 5.5503,-4.53175 4.33412,-6.41675 2.57332,-9.92124 -0.54051,-1.40651 -3.45737,-6.02649 -3.23249,-5.68751 5.72494,-7.26922 4.87471,-6.95594 0.51218,-13.37097 3.03585,7.85047 -2.85704,-4.61307 3.3989,-6.57313 2.01432,-5.04462 -2.14496,-10.78169 -2.27415,-8.87174 -5.39433,-3.82492 -13.24242,8.1382 -5.71306,-1.26666 -9.70297,3.23852 2.38265,16.89485 -2.23291,11.65951 6.47782,4.18786 1.11184,6.50748 1.14158,8.00744 -3.80089,4.06972 -1.90778,5.41289 0.90774,7.79553 2.77101,6.56686 -3.7367,7.92431 -3.47651,10.49143 -1.75657,-0.11853 1.02993,10.21725 8.3954,7.73734 z m -5.09856,-1.93875 c -5.96639,-7.83206 7.96924,-17.01867 6.7187,-4.02819 -2.0669,-13.08689 -11.97246,4.65123 -2.16692,2.86478 3.69373,-5.05626 -2.53829,5.98921 2.23702,-1.96139 0.49148,3.35952 -4.44644,5.46029 -6.7888,3.1248 z m 3.45618,0.28364 c -1.53826,-0.47389 -0.76756,0.72761 0,0 z m -1.55815,-0.3296 c -1.2591,-1.37843 -1.27349,0.5672 0,0 z m -2.05528,-1.86167 c 1.71247,-9.369 -0.98765,-7.09018 0,0 z m 5.54,-6.22169 c -8.06276,-9.36726 4.56199,8.38975 0,0 z m -0.55993,-7.3698 c 1.35279,-1.93537 1.47158,-0.32712 0,0 z m -3.20143,-1.20018 c -8.43079,-6.60102 7.56053,-13.09195 4.20573,-2.29521 -1.12943,0.76757 -2.67273,5.11672 -4.20573,2.29521 z m 3.00124,-2.17695 c 4.62158,-5.37079 -7.88361,-8.65326 -3.51463,0.11183 l 1.63386,1.75175 1.88077,-1.86358 0,0 z m -2.86876,-0.154 c -2.62773,-10.08852 8.722,0.20458 0,0 z m 1.79883,-1.09608 c 0.84474,-7.08184 -3.99217,2.84948 0,0 z m 2.5236,2.9559 c 1.3528,-1.93535 1.47157,-0.32713 0,0 z m -5.04217,-14.54443 c -8.81164,-7.78616 6.42281,-12.86523 5.27599,-7.28804 -2.40164,-3.07961 1.68977,3.68564 -3.17996,-1.32391 -7.58898,0.96365 1.63511,14.64494 2.80873,3.55251 1.75748,0.007 -0.24002,6.94761 -3.7313,6.35765 l -1.17346,-1.29821 z m 4.00868,-0.94754 c 3.17264,-6.12271 -4.35259,7.7101 -4.95948,-2.41903 -3.1235,-9.56405 1.1346,10.14017 4.95948,2.41903 z m -3.44682,-8.55108 c -3.11795,1.8338 -2.76536,3.76231 0,0 z m -95.41523,43.31195 c -2.43897,-2.35547 -3.30356,-1.83956 0,0 z m 13.4744,-0.55823 c -2.00995,-3.41272 5.15993,-3.96848 -1.32259,-1.7171 -1.10868,0.60324 3.29015,3.74829 1.32259,1.7171 z M 360.0378,224.94 c -0.64489,0.75807 0.60712,3.66393 0,0 z m 33.13068,2.05264 c -2.70865,-3.06077 -2.43393,-1.65545 0,0 z m -88.61576,-2.59071 c 2.4205,-7.19698 -4.3379,6.77212 0,0 z m 30.95559,1.73338 c -1.3528,-1.93535 -1.47157,-0.32713 0,0 z m -36.64852,-3.80704 c -0.0778,-1.54069 -2.85675,6.33994 0,0 z m 2.80451,1.06651 c -1.83518,-5.82278 -0.61123,3.42345 0,0 z m 89.1414,0.58222 c -1.33876,-1.64538 0.45718,2.07162 0,0 z m -65.33805,-1.23546 c -1.46419,0.56806 -0.34036,2.33395 0,0 z m -4.60301,-4.25458 c 2.25633,-6.66414 -4.09001,10.88824 -3.01369,0.10778 -3.99019,2.74542 2.58619,8.97773 3.01369,-0.10778 z m 11.30105,4.31934 c -2.09693,-2.41554 -2.59547,-1.79319 0,0 z m 29.44166,-5.07869 c -1.553,1.15097 -13.45859,3.35798 -2.93273,2.89946 3.64203,2.75379 1.86232,0.91781 2.93273,-2.89946 z m -65.63321,3.73874 c 0.0346,-1.75868 -1.23969,2.08337 0,0 z m 10.75738,-0.0828 c 1.29074,-1.88104 -2.33201,2.22413 0,0 z m -0.27727,-1.24602 c 3.30284,-6.80251 -4.66621,4.5916 0,0 z m 13.14123,-1.55641 c -3.20599,1.01733 -0.25766,5.56632 0,0 z m -15.33287,1.71053 c -5.2239,-2.45177 4.30659,-4.95459 -4.40641,-1.40154 -2.61428,-1.40945 6.14823,3.31467 4.40641,1.40154 z m 21.92109,-0.34438 c -0.71637,-0.71839 0.36074,2.33588 0,0 z m 4.02288,0.11261 c 1.30845,-3.37499 -2.89699,1.40262 0,-1e-5 l 0,1e-5 z m -21.85705,-1.43725 c -1.24733,0.62289 -1.1933,3.07103 0,0 z m 44.70752,-0.39362 c 12.27901,-4.17561 -1.46075,-1.31487 -5.88589,0.64028 -5.92474,-2.38692 4.54912,3.3858 5.88589,-0.64028 z m -36.2116,0.36475 c -0.94579,-4.41208 -2.16558,2.71953 0,0 z m 6.82258,-0.76174 c -0.73127,0.41759 0.67814,2.30088 0,0 z m 4.2315,0.76881 c -2.25302,-2.7248 -2.169,1.62927 0,0 z m 29.99206,-0.5652 c -4.0191,0.0242 -3.24062,1.91861 0,0 z m -23.72768,-0.41253 c 1.77925,-2.39253 -5.19653,4.15217 0,0 z m -1.78504,0.1296 c 10.85427,-6.81867 -9.84963,-11.33441 -1.7513,-2.46272 4.96183,-1.36586 -5.20891,-6.06236 2.95929,-3.9846 1.52225,12.09795 -13.44837,0.78477 -5.64097,-6.47874 2.9178,-5.43921 9.89335,-25.29264 2.44955,-9.29902 -3.24728,5.28443 -10.55623,23.7445 1.98343,22.22508 z m -14.00148,-0.18935 c -1.6094,-2.19422 -0.88226,0.97803 0,0 z m 41.53964,0.11951 c 3.64227,-7.84111 -3.07616,-0.89799 0,0 z m -53.24958,-0.91631 c -6.43304,-5.66547 -2.52966,1.51287 0,0 z m 18.91082,-0.25879 c 1.81495,2.1762 -1.78338,-7.77502 -2.3067,0.33403 0.95037,0.0957 1.42278,-1.96613 2.3067,-0.33403 z m 20.05401,-1.39162 c 7.58238,-0.44244 -2.508,-0.76624 -0.62944,1.35794 l 0.62943,-1.35794 10e-6,0 z m -22.55433,-0.12929 c 6.77025,-9.26367 -12.26954,-7.36433 -3.20947,-1.22865 3.08297,-2.67796 -1.13629,-3.56538 -0.92912,-1.3481 0.69885,-9.16238 9.21966,5.9828 -1.11544,2.432 -7.27789,-6.4656 9.31808,-21.77382 5.26375,-24.46079 -3.99303,6.14079 -15.5637,29.33546 -0.01,24.60554 l 0,0 z m -11.1351,-0.1423 c 5.63811,-9.76112 -10.74937,-2.21216 -1.7223,-2.48953 -2.71252,-6.58308 6.1843,5.03576 -2.81583,2.39063 -5.99813,-6.39853 8.03841,-18.40083 5.84442,-22.94546 -3.13132,5.14254 -17.62697,28.18029 -1.30629,23.04436 z m 19.80501,1.25741 c -3.94212,-1.1353 -3.14506,0.6989 0,0 z m 1.30678,-0.98582 c 1.29074,-1.88104 -2.33201,2.22413 0,0 z m 3.16701,-2.29318 c -0.64493,0.75807 0.60715,3.66393 0,0 z m 26.88103,-0.39136 c -7.03754,0.52296 -4.17845,0.55777 -0.3955,0.90877 -2.44061,3.60998 1.90308,0.29032 0.3955,-0.90877 z m -54.40704,1.7534 c -5.45508,-1.96331 3.02305,1.55416 0,0 z m 13.83681,-1.41884 c -2.03879,1.74981 -2.00253,2.86554 0,0 z m -18.91142,0.49587 c -0.71638,-0.71837 0.36072,2.33589 0,0 z m 7.65329,-0.75731 c -1.38359,-5.28312 -1.22442,5.29305 0,0 z m 6.18232,0.85466 c -2.18652,-2.35104 1.41737,2.75091 0,0 z m 16.24795,-0.0974 c -0.71637,-0.71836 0.36074,2.3359 0,0 z m -5.41083,-2.9509 c -0.84807,-6.02366 -1.83777,7.24827 0,0 z m 28.52374,2.87149 c -1.35279,-1.93537 -1.47158,-0.32713 0,0 z m 8.40984,-0.99127 c 1.29074,-1.88104 -2.33201,2.22413 0,0 z m -51.14383,-2.18542 c -1.43795,-3.61827 -5.76119,-2.94386 -0.30862,1.34976 l 0.20416,1.14903 0.10446,-2.49879 0,0 z m 19.14393,1.69093 c -1.88728,-1.78492 0.54696,2.08257 0,0 z m -30.02424,-0.52397 c -0.71637,-0.71837 0.36075,2.3359 0,0 z m 14.30852,-3.0192 c 3.95918,-5.28212 -4.35909,8.73163 0,0 z m 4.46013,2.33466 c -1.97399,-1.72892 2.21107,3.53289 0,0 z m 13.58831,0.23364 c -1.3887,-1.08144 1.32122,2.27903 0,0 z m -10.91734,-1.43969 c -1.11836,-1.8312 0.9776,4.19192 0,0 z m -16.12266,-0.92337 c 1.25519,-2.79658 -5.07064,4.10354 0,0 z m 22.9979,0.35886 c 3.53762,-1.58063 -5.73932,1.0642 0,0 z m -0.27788,-4.3607 c 3.43701,-5.38388 9.12556,-24.50678 2.48764,-8.98118 -1.86115,2.6304 -8.53857,20.46827 -2.48764,8.98118 z m -5.36135,-0.56378 c -9.71356,12.63738 5.89593,-19.85369 -2.32305,-2.92721 -6.27504,5.98001 -0.65862,11.15745 2.32305,2.92721 z m -6.18675,-10.25274 c 3.64817,-10.62373 -9.91208,15.54331 -6.33278,12.76267 2.34678,-4.12957 4.45679,-8.39932 6.33278,-12.76267 z m -6.14022,6.32487 c 2.71537,-4.07359 5.53284,-13.74619 0.93725,-4.44323 -2.5056,4.1424 -8.11157,17.92707 -1.75273,6.11601 l 0.81548,-1.67278 0,0 z m 1.87113,4.90947 c -1.83042,1.63955 -0.8104,3.05634 0,0 z m 48.54858,1.18037 c -1.52224,-1.91224 1.13412,3.08278 0,0 z m -51.87439,-0.76254 c -1.46419,0.56804 -0.34038,2.33396 0,0 z m 13.63571,-3.06115 c 3.23268,-4.40301 7.75668,-20.97253 1.77105,-7.45901 -2.20286,3.20431 -7.21771,17.80274 -1.77105,7.45901 l 0,0 z m 3.05442,2.64332 c -2.15595,0.99999 0.38041,2.78541 0,0 z m -23.39611,0.20892 c 1.21186,-3.05311 -2.26445,3.99808 0,0 z m 15.20931,0.50062 c 3.65405,-4.48814 10.61986,-25.22299 3.17791,-9.8734 0.28836,1.35432 -7.83534,12.54152 -3.17791,9.8734 z m -0.59532,-3.32096 c 3.86392,-9.10356 -4.96713,9.34692 0,0 z m -4.17674,-4.90947 c -3.81057,5.64466 -5.3295,12.02424 0,0 z m 46.05398,4.10516 c -1.52224,-1.91223 1.13414,3.08278 0,0 z m -30.60517,-2.03478 c 4.15413,-9.20527 -4.89517,8.76267 0,0 z m -23.34555,1.06333 c 1.02451,-2.96565 -1.98658,2.9984 0,0 z m 21.27143,-3.55154 c -2.68833,3.52005 -1.74426,4.80267 0,0 z m 32.08815,1.36282 c -0.64492,0.75807 0.60712,3.66391 0,0 z m -40.86531,-3.86978 c -4.09404,6.39022 -3.41064,7.98005 0,0 z m 2.84952,1.25348 c 5.5279,-13.12991 -4.15319,6.89409 -0.80648,1.75673 l 0.80648,-1.75673 z m 75.90198,0.81396 c 0.0346,-1.75873 -1.23972,2.08338 0,0 z m -84.59015,-2.90309 c -1.83042,1.63954 -0.81041,3.05632 0,0 z m 15.89425,0.41782 c -1.46419,0.56807 -0.34039,2.33395 0,0 z m -19.22005,-0.41782 c -1.46419,0.56805 -0.34039,2.33394 0,0 z m 22.56267,0 c -1.46419,0.56805 -0.34039,2.33394 0,0 z m -6.26741,-0.41783 c -1.46419,0.56804 -0.34038,2.33396 0,0 z m 35.71752,-3.96273 c 2.94372,-4.56022 13.11095,-17.00282 10.69571,-17.14209 -5.55021,4.12955 -6.94403,17.96459 -15.57036,14.99497 -15.45839,-2.03428 -31.21019,-1.48614 -46.45256,1.82161 -3.85628,-4.44197 -8.74706,-16.60971 -11.52387,-17.04994 5.99838,5.83176 7.50121,23.6956 15.36963,19.00907 4.55929,-1.56119 8.06145,-0.63227 11.59053,-2.30442 7.81761,-1.25306 9.85848,0.0249 15.21244,-1.01863 6.77367,1.17292 20.32345,-2.82634 19.80512,7.13264 0.16171,-1.03164 0.0308,-3.99811 0.87336,-5.44321 z m -45.32755,3.5449 c -1.46418,0.56806 -0.34039,2.33395 0,0 z m 3.34262,-0.41783 c -1.46419,0.56807 -0.34039,2.33395 0,0 z m 10.43097,-1.46239 c -0.91287,-0.52152 -2.07565,5.90102 0,0 z m 3.74061,-1.67131 c -3.11996,3.40171 -0.0813,4.07451 0,0 z m -6.67309,0.41783 c -1.96135,2.18634 -0.66369,3.81108 0,0 z m 3.24541,-0.49617 c -0.71636,-0.71838 0.36073,2.33588 0,0 z m 58.49583,-0.41783 c -0.71638,-0.71837 0.36072,2.33589 0,0 z m -75.38193,-1.03138 c -2.40905,-0.32068 -1.02173,0.5966 0,0 z m 2.08118,-0.42048 c -2.30088,-0.67817 -0.41758,0.7313 0,0 z m 3.71726,-1.34773 c 13.54152,-2.25709 27.44315,-2.15987 40.98432,0.0446 3.17347,-4.28563 9.18162,-11.40224 10.02098,-15.13319 -6.68523,-1.61969 -6.28511,8.44025 -10.35028,11.56049 -5.12444,2.15327 -17.6912,-0.0633 -11.76776,-8.82915 -0.0428,-8.02645 -5.42888,3.20417 -4.63644,6.91995 -4.18752,1.59345 -16.7769,4.02281 -17.67164,-2.53787 1.25472,-6.58826 -5.78667,-10.67994 -2.8097,-0.95446 2.3533,11.20481 -16.07684,8.39768 -15.37805,-2.09519 -1.83925,-7.24248 -9.11379,-3.57002 -2.01045,2.17794 4.02453,6.5333 4.30728,12.91162 13.61902,8.84693 z m -1.62812,0.9299 c -2.30091,-0.67817 -0.41759,0.7313 0,0 z m 2.50696,-0.41782 c -2.30088,-0.67814 -0.41759,0.73127 0,0 z m 41.7099,-0.87231 c 4.56675,-2.72548 -10.96444,3.7184 0,0 z m -38.77715,0.45713 c -2.40908,-0.32065 -1.02173,0.59659 0,0 z m 33.00835,0 c -2.40905,-0.32066 -1.02173,0.5966 0,0 z m -29.66574,-0.41783 c -2.40906,-0.32067 -1.02172,0.59662 0,0 z m 26.74095,0 c -2.40906,-0.32067 -1.02173,0.59662 0,0 z m -21.10074,-0.44231 c -5.62318,-0.6342 -1.0406,0.6295 0,0 z m 17.12343,-8.3e-4 c -5.0992,-0.6096 -1.00591,0.61655 0,0 z m -7.93872,-0.42568 c -5.28654,-0.37133 -5.22443,0.45499 0,0 z m 23.50279,-3.03538 c 2.63806,-4.43955 -3.60454,4.49397 0,0 z m 31.44725,-0.71195 c -4.68688,-0.66175 -0.85655,0.65535 0,0 z m -26.0155,-7.22677 c 4.81915,-8.08173 -5.48134,7.75637 0,0 z m -74.55737,241.96214 c -2.16437,-10.76893 17.51811,-11.53634 11.54956,-0.73413 -1.90992,2.20395 -8.68148,0.46491 -11.54956,0.73413 z m 11.45096,-3.06938 c 2.54393,-9.28946 -13.88768,-3.52956 -10.07122,2.61142 3.20765,-1.05241 10.19839,2.50155 10.07122,-2.61142 l 0,0 z m 8.64959,3.16852 c -4.28885,-12.95183 23.27654,-7.35504 12.18712,0.17945 -4.0581,0.0772 -8.14372,0.27079 -12.18712,-0.17945 z m 13.74869,-3.09228 c -0.40088,-11.35888 -22.60651,2.61983 -9.26984,2.53518 2.62816,-0.93818 11.34722,2.33065 9.26984,-2.53518 z m 9.51719,3.05107 c -7.01232,-11.47906 9.1382,-13.01269 9.20395,-1.86473 1.9461,3.87302 -7.2644,1.6762 -9.20395,1.86473 z m 9.0461,-0.66886 c 0.0718,-9.53587 -14.88668,-11.24354 -8.75978,-0.25999 2.71679,0.88275 5.9119,0.30389 8.75978,0.25999 z m -21.72702,-13.2175 c 3.36762,-1.54057 -1.61439,1.66358 0,0 z m 14.5195,-1.94803 c 2.30088,-0.67817 0.41758,0.7313 0,0 z m 2.72382,-0.43066 c 3.43538,-0.51799 -0.48559,0.71679 0,0 z m -48.01349,-70.5375 c 2.08223,-5.79085 10.36783,2.53323 0,0 z m 3.9944,-0.88911 c -2.33043,-0.68647 -2.7274,1.37273 0,0 z m -22.52785,-1.57928 c 1.68842,-5.58137 13.01265,2.16354 1.74543,1.42914 -1.59144,-0.0644 -2.00198,0.55061 -1.74543,-1.42914 z m 4.54387,0.33235 c 4.60122,-2.57423 -8.90939,0.97957 0,0 z m 14.81795,-0.96508 c -5.22882,-6.74679 5.18959,2.0912 4.25032,-4.45575 3.92566,5.77458 0.008,5.12675 -4.25032,4.45575 z m 1.73845,-0.69791 c -6.94504,-4.39498 2.56518,2.56714 0,0 z m 2.75669,-1.71873 c -1.50795,-1.62735 1.13121,4.78292 0,0 z m -24.89018,-2.51915 c 1.57372,-7.02562 13.47239,0.23956 2.09353,0.72981 -0.53957,0.22351 -2.19214,0.3846 -2.09353,-0.72981 z m 5.67568,-1.17862 c -2.29897,-2.21381 -7.26851,2.64527 0,0 z m 20.1138,1.614 c -2.67889,-5.38236 10.09486,0.19001 0,0 l 0,0 z m 2.62177,-1.39318 c -1.70544,-0.91292 -2.9965,1.60919 0,0 z m -2.385,-2.37955 c -5.12378,-6.23565 4.55383,0.82857 4.50931,-4.01356 3.99542,3.6298 -1.22133,5.97561 -4.50931,4.01356 z m 1.20233,-1.16844 c -5.41455,-3.53571 3.39711,3.61803 0,0 z m 3.09274,-1.75055 c -1.59718,-1.21963 1.23219,5.3154 0,0 z m -49.58323,1.77272 c -1.68526,-2.12571 3.18912,1.67805 0,0 z m 17.78527,-1.05895 c 0.66001,-7.49958 13.11088,-1.88193 1.98462,0.34347 l -1.3686,0.22158 -0.61608,-0.56505 6e-5,0 z m 4.84512,-1.75888 c 3.76665,-3.61299 -9.15629,3.09158 0,0 z m -7.42424,-4.29206 c 0.46581,-6.57297 13.24106,-3.37434 2.7676,0.43741 -0.76167,0.43022 -2.41213,0.78676 -2.7676,-0.43741 z m 5.12805,-2.02984 c 1.60366,-3.55783 -8.17975,4.93753 0,0 z m -8.17124,-3.28272 c 0.27972,-7.44334 12.69527,-3.61102 2.50427,0.339 -0.72156,0.48594 -2.0553,0.62991 -2.50427,-0.339 z m 3.66318,-1.57453 c 7.38405,-6.16511 -8.41412,4.43418 0,0 z m -7.4129,-3.44122 c -0.43164,-6.8224 11.94552,-5.10028 3.39639,-0.44521 l -2.43612,1.37028 -0.96027,-0.92505 0,-2e-5 z m 4.24341,-2.38222 c 3.7523,-5.65608 -7.65544,5.53356 0,0 z m -8.38312,-2.05292 c -1.61865,-7.5036 11.7709,-6.29557 2.05928,0.0384 l -1.02379,0.72572 -1.03549,-0.76409 z m 3.15581,-2.63528 c 5.10743,-6.01533 -7.42438,5.74514 0,0 z m -7.92112,-1.47852 c -3.65309,-5.68967 10.61542,-8.90456 3.27649,-1.39359 -0.84381,0.29585 -2.00426,3.49932 -3.27649,1.39359 z m 2.98401,-2.7034 c 4.00406,-5.01302 -3.5672,-0.32821 -2.43318,1.79436 l 0.61833,-0.19762 1.81485,-1.59674 z m 52.06796,-111.49306 c -9.07392,-15.11053 21.38748,-0.60374 5.46259,4.8468 -3.46116,1.40751 -4.12947,-2.7724 -5.46259,-4.8468 z m 7.46492,3.66581 c 3.16156,-1.82745 1.0042,-11.8831 -4.57798,-9.10399 -9.1547,-3.47998 -0.0868,13.45741 4.57798,9.10399 z m 35.06015,0.34793 c -9.4,-1.8429 -1.9498,-14.57434 6.05626,-10.25689 8.63755,-2.60266 -1.66412,14.62232 -6.05626,10.25689 z m 4.57147,-0.78201 c 3.44026,-5.10371 7.2125,-10.74561 -1.61602,-8.66991 -9.01965,-2.58417 -8.90864,13.26944 1.61602,8.66991 z m -29.77101,-1.18393 c -8.81244,-13.41615 24.88648,-10.67804 11.98353,0.74372 -3.75507,-0.26764 -8.80324,1.14552 -11.98353,-0.74372 z m 12.30539,-0.18382 c 7.18573,-10.0991 -8.73428,-7.7258 -12.84951,-6.5809 -0.55093,9.81757 5.94918,7.19147 12.84951,6.5809 z m 78.01627,227.08782 c -7.26223,-5.03346 -17.20663,-26.90011 -0.68724,-20.01486 -7.63311,-10.34388 11.14268,-7.21476 4.70227,-0.35524 13.85612,-6.48406 7.82377,13.38846 0.61384,17.74945 -1.34167,0.51489 -2.96202,6.19978 -4.62887,2.62065 z m 4.81442,-4.81907 c 7.16202,-3.44131 10.16309,-22.15278 -0.81916,-13.58087 -5.22997,2.29962 4.7276,-11.1945 -5.43681,-7.07639 2.29274,5.07917 3.19353,11.64943 -3.11874,4.44652 -12.91705,-0.77082 6.8979,28.92895 9.37471,16.21074 z M 236.48204,207.17737 c 7.81429,-10.46495 -9.94788,0.65541 -7.27979,-10.73073 3.84588,-6.7537 12.09294,-25.54629 17.6366,-9.40473 11.05497,7.74629 2.39845,18.90473 -3.56936,15.12907 4.92937,7.61539 -1.71247,5.04722 -6.78745,5.00639 z m 7.10426,-0.7851 c -3.97693,-9.35839 -1.38637,-7.46932 5.28588,-4.51663 7.49864,-4.92492 -8.68788,-28.64896 -12.85193,-14.36385 -10.65911,8.60361 -2.46874,17.24455 4.09757,12.47887 -1.11548,5.96547 -5.19096,7.70999 3.46848,6.40161 z m -7.10285,-29.87233 c -8.82036,-2.5971 -1.87633,-16.11058 1.21163,-4.80361 9.98911,2.44125 5.142,-13.12456 6.42919,-19.71924 -2.5233,-6.02882 6.7055,-7.23265 4.47596,-0.72901 -0.62749,7.73767 1.81394,16.45044 -2.06078,23.35373 -2.41276,2.90564 -6.74128,2.57646 -10.056,1.89813 z m 7.88811,-1.51914 c 5.85533,-6.568 2.57904,-16.38675 3.39086,-24.57792 -1.40611,-6.62686 -4.30519,2.33957 -2.97007,5.81355 -0.4172,5.20838 0.61277,11.09029 -0.71828,15.87335 -5.54068,7.66145 -12.21061,-11.24311 -9.88138,0.76348 1.91092,3.76335 6.85147,3.76459 10.17887,2.12754 z"
       style="fill:#000000" />
  </g>
  <g
     transform="translate(-227.10993,-141.34877)"
     style="display:inline"
     id="layer2" />
</svg>
