<?xml version="1.0" encoding="UTF-8" standalone="no"?>
<!-- Created with Inkscape (http://www.inkscape.org/) -->

<svg
   xmlns:dc="http://purl.org/dc/elements/1.1/"
   xmlns:cc="http://creativecommons.org/ns#"
   xmlns:rdf="http://www.w3.org/1999/02/22-rdf-syntax-ns#"
   xmlns:svg="http://www.w3.org/2000/svg"
   xmlns="http://www.w3.org/2000/svg"
   xmlns:sodipodi="http://sodipodi.sourceforge.net/DTD/sodipodi-0.dtd"
   xmlns:inkscape="http://www.inkscape.org/namespaces/inkscape"
   width="210mm"
   height="297mm"
   viewBox="0 0 744.09448819 1052.3622047"
   id="svg2"
   version="1.1"
   inkscape:version="0.91 r13725"
   sodipodi:docname="tachy-temp.svg">
  <defs
     id="defs4" />
  <sodipodi:namedview
     id="base"
     pagecolor="#ffffff"
     bordercolor="#666666"
     borderopacity="1.0"
     inkscape:pageopacity="0.0"
     inkscape:pageshadow="2"
     inkscape:zoom="32"
     inkscape:cx="284.39013"
     inkscape:cy="668.53765"
     inkscape:document-units="px"
     inkscape:current-layer="layer3"
     showgrid="false"
     inkscape:window-width="1920"
     inkscape:window-height="1017"
     inkscape:window-x="-8"
     inkscape:window-y="-8"
     inkscape:window-maximized="1" />
  <metadata
     id="metadata7">
    <rdf:RDF>
      <cc:Work
         rdf:about="">
        <dc:format>image/svg+xml</dc:format>
        <dc:type
           rdf:resource="http://purl.org/dc/dcmitype/StillImage" />
        <dc:title></dc:title>
      </cc:Work>
    </rdf:RDF>
  </metadata>
  <g
     inkscape:groupmode="layer"
     id="layer3"
     inkscape:label="Layer 3"
     style="display:inline">
    <path
       style="opacity:1;fill:none;fill-rule:evenodd;stroke:#000000;stroke-width:1px;stroke-linecap:butt;stroke-linejoin:miter;stroke-opacity:1"
       d="m 343.75176,526.41997 c 0.66291,0.39459 0.66291,0.39459 0.66291,0.39459 l 0.22097,0.20518 0.0316,0.12627 -0.11049,0.14206 -0.29989,0.17362 -0.63134,0.15783 -0.88389,0.0789 -1.43631,-0.0158 -1.18377,-0.0947 -0.85232,-0.0789 -0.82075,0.0473 -0.66291,0.22097 -0.33145,0.23675 -0.31568,0.31568 -0.3788,0.64713 -0.23676,0.78918 -0.14205,0.85231 -0.0473,0.61557 -0.0158,0.80496 0,0.55243 0.0789,0.45772 0.0553,0.3354 0.0947,0.25254 0.0947,0.12627 0.0947,0.0789 0.16178,0.075 0.31962,0.0868 0.39854,0.0513 0.41037,0.0316 0.42222,0.0197 0.36302,0.008 0.5761,0.004 1.3061,0.004 0.72999,-0.0118 0.62345,-0.0197 0.64713,-0.0237 0.82864,-0.0434 0.26438,-0.0276 0.0829,-0.0118 0.11838,-0.0237 0.12232,-0.0118 0.0947,0 0.0789,0.0316 0.0908,0.0434 0.12627,0.13416 0.15783,0.32357 0.15784,0.46167 0.24465,0.87599 0.1381,0.4301 0.11049,0.25254 0.11049,0.16178 0.0671,0.0789 0.10654,0.0868 0.16572,0.0987 0.20124,0.0671 0.29595,0.071 0.26832,0.0434 0.38275,0.0474 0.34724,0.0473 0.38276,0.0434 0.32751,0.0197 0.44983,0.0237 0.11443,0.0197 0.20519,0.0474 0.28805,0.0947 0.34329,0.16178 0.19335,0.11048 0.18941,0.12627 0.23675,0.17362 0.146,0.11049 0.16573,0.15783 0.28016,0.28411 0.20913,0.26832 0.0829,0.1026 0.0829,0.14599 0.0987,0.16968 0.0671,0.16967 0.0592,0.146 0.0434,0.18546 0.0789,0.23281 0.0908,0.21308 0.12627,0.20124 0.11838,0.14994 0.16967,0.16573 0.1539,0.10259 0.10259,0.0434 0.13416,0 0.0829,-0.0237 0.0868,-0.0671 0.0592,-0.10259 0.0434,-0.15784 0.0158,-0.17362 0.0197,-0.18545 0.075,-0.26438 0.146,-0.31962 0.18941,-0.29989 0.15783,-0.21702 0.69407,-0.80523 0.1973,-0.22886 0.0118,0.39064 0.0237,0.584 0.0513,0.70237 0.075,0.87599 0.0987,1.00226 0.0868,0.93913 0.12232,1.16799 0.14205,1.37712 0.20914,2.13474 0.0946,0.95491 0.0276,0.0552 0.10259,0.0908 0.0986,0.0592 0.20519,0.0789 0.49324,0.16573 0.64318,0.15389 0.48535,0.10259 0.4301,0.0789 0.4301,0.071 0.39065,0.0631 0.37881,0.0474 0.67869,0.0789 0.69054,0.0671 0.45772,0.0355 0.74578,0.0434 0.61556,0.0197 0.52086,-0.004 0.84442,-0.0197 0.67475,-0.0473 0.60767,-0.0552 0.63135,-0.071 0.68659,-0.0907 0.99437,-0.15389 2.00452,-0.3433 1.89403,-0.31567 1.00621,-0.15389 1.58626,-0.20124 1.60598,-0.15389 0.76945,-0.0513 1.02199,-0.0434 1.20745,0.0158 0.52875,0.0316 0.47351,0.0316 0.35908,0.0474 0.37092,0.0434 0.31567,0.0355 0.41432,0.0355 0.82469,0.0474 0.85627,0.0316 1.74803,0.0316 3.64997,0.004 1.17193,-0.0158 1.44815,-0.0276 2.81738,-0.075 2.43857,-0.0947 1.35345,-0.0829 0.91545,-0.0671 0.72605,-0.075 0.55637,-0.0868 0.22492,-0.071 0.0513,-0.0473 0.10654,-0.30384 0.0829,-0.36302 0.10259,-0.53665 0.15389,-1.12853 0.0987,-0.94307 0.14205,-1.57836 0.10259,-1.55864 0.11444,-1.78355 0.11048,-1.74803 0.23676,0.4814 0.3354,0.7221 0.21557,0.44413 0.25781,0.45313 0.23438,0.32812 0.16796,0.19532 0.1211,0.11328 0.10156,0.0781 0.0742,0.0312 0.0742,0 0.16797,-0.0547 0.14062,-0.10547 0.1875,-0.23828 0.16016,-0.29297 0.12109,-0.29688 0.10156,-0.33984 0.082,-0.42969 0.0312,-0.33203 0.0156,-0.34766 0.0195,-0.17187 0.0547,-0.15625 0.10547,-0.1211 0.10547,-0.0625 0.10156,-0.0312 0.10547,-0.0195 0.0703,0.004 0.10156,-0.004 0.13282,-0.0312 0.13281,-0.0469 0.16406,-0.10156 0.17578,-0.15235 0.15235,-0.1914 0.15625,-0.28907 0.10546,-0.21093 0.125,-0.15235 0.10938,-0.10156 0.16016,-0.0898 0.21484,-0.0586 0.22656,-0.0351 0.20313,-0.0234 0.5664,-0.0156 0.66797,-0.008 0.375,-0.0117 0.35938,-0.0391 0.27734,-0.0625 0.26563,-0.0977 0.16796,-0.0977 0.14844,-0.12891 0.0937,-0.11719 0.13281,-0.21093 0.10547,-0.23438 0.0471,-0.16003 0.0937,-0.39453 0.0859,-0.54297 0.10156,-1.04687 0.0508,-0.83984 0.0117,-0.44141 -0.008,-0.41406 -0.0274,-0.30078 -0.043,-0.21485 -0.0391,-0.14844 -0.0859,-0.19531 -0.082,-0.13672 -0.13672,-0.16406 -0.0976,-0.14453 -0.0742,-0.15625 -0.0469,-0.14453 -0.0156,-0.23047 0.0469,-0.24609 0.0937,-0.26954 0.0859,-0.35156 0.082,-0.54687 0.0352,-0.41016 0.0156,-0.46875 0.0156,-0.14062 0.0312,-0.17188 0.0391,-0.12109 0.043,-0.0977 0.0742,-0.11719 0.0508,-0.0625 0.082,-0.082 0.12109,-0.0976 0.15235,-0.11329 0.33203,-0.21093 0.94141,-0.4961 1.41796,-0.70312 2.875,-1.57422 1.5,-0.89063 2.40235,-1.54687 2.41053,-1.67191 2.65625,-1.98438 1.98438,-1.64062 1.65625,-1.42188 1.90625,-1.875 2,-2.04687 2.53125,-2.82813 2.28125,-2.78125 2.6875,-3.5625 3.54687,-5.4375 2.15625,-3.6875 1.76563,-3.40625 1.6875,-3.75 1.65625,-4.28125 0.95312,-3.04687 0.82813,-3.28125 0.5625,-3.125 0.35937,-2.98438 0.1875,-1.82812 0.15625,-2.3125 0.125,-3.375 0.0625,-5 -0.0156,-3.04688 -0.0469,-2 -0.0469,-1.9375 -0.375,-4.73437 -0.3125,-2.17188 -0.75,-3.40625 -0.85938,-2.92187 -1.45312,-4.23438 -1.45313,-3.65625 -1.82812,-3.96875 -1.57813,-3.125 -1.70312,-3.0625 -1.57813,-2.60937 -2.60937,-3.9375 -2.625,-3.5625 -1.79688,-2.09375 -2.23437,-2.4375 -2.98438,-2.95313 -3.95312,-3.60937 -1.76563,-1.39063 -2.20312,-1.57812 -1.71875,-1.17188 -3.25,-2.03125 -3.64063,-2.04687 -3.89062,-1.92188 -2.90625,-1.25 -2.03125,-0.8125 -3.23438,-1.15625 -2.89062,-0.89062 -3.22923,-0.86383 -3.52449,-0.76235 -2.51906,-0.47508 -3.20408,-0.46404 -1.86721,-0.15468 -1.97769,-0.0884 -2.55221,-0.0552 -2.08817,-0.0111 -1.65728,0 -3.13779,0.0221 -3.62392,0.11049 -1.72358,0.13258 -2.2318,0.30936 -2.17657,0.39775 -1.8672,0.3646 -2.41963,0.56348 -1.5026,0.3867 -3.00521,0.86178 -1.99978,0.64082 -1.33688,0.46404 -1.96664,0.7292 -2.07712,0.82864 -2.94996,1.30373 -1.72358,0.81759 -3.09359,1.64623 -1.75672,0.99437 -1.54679,0.92808 -2.41963,1.55785 -2.06608,1.44735 -2.57431,1.9335 -1.65728,1.31478 -1.67938,1.44736 -2.25391,2.04398 -2.16551,2.01083 -0.69606,0.57453 -0.11048,-0.11049 -0.11049,-0.99437 -0.0221,-1.02751 -0.0663,-0.66292 -0.11048,-0.97227 -0.35356,-1.8893 -0.37564,-1.52469 -0.54138,-1.61309 -0.48613,-1.138 -0.33146,-1.02751 -0.13258,-0.59662 -0.0442,-0.58557 -0.20993,-0.66292 -0.3425,-0.7513 -0.28726,-0.44194 -0.68501,-0.80654 -0.35356,-0.26517 -0.56347,-0.24307 -0.11049,0.0111 -0.11048,-0.0111 -0.27621,-0.19887 -0.50823,-0.39222 -0.60767,-0.51928 -1.1159,-1.03304 -1.38107,-1.37555 -1.02199,-1.01646 -1.18219,-1.14353 -1.55233,-1.51365 -1.39211,-1.30925 -1.7291,-1.57442 -1.55784,-1.35344 -1.01094,-0.80102 -1.39212,-1.07724 -1.33135,-0.90045 -1.53022,-0.92808 -1.33135,-0.72368 -0.93913,-0.45851 -1.60756,-0.71264 -1.58547,-0.60767 -0.87836,-0.28726 -1.67938,-0.48061 -1.55232,-0.32041 -1.38659,-0.2044 -0.94465,-0.0994 -0.55243,-0.0387 -0.67948,-0.0276 -0.69054,-0.0111 -0.54137,0.0111 -0.66292,0.0221 -1.11038,0.0718 -1.76224,0.19335 -1.06618,0.16573 -0.9999,0.17677 -1.37002,0.30384 -1.18219,0.30936 -0.91703,0.27068 -0.90046,0.27621 -1.06618,0.39222 -0.99989,0.40328 -1.02199,0.45299 -0.81207,0.39222 -0.83417,0.44747 -0.80654,0.46403 -1.20982,0.76788 -0.61871,0.42537 -0.71816,0.53585 -0.569,0.46404 -0.61872,0.52481 -0.60767,0.569 -0.81207,0.83416 -0.67396,0.76235 -0.86731,1.12143 -0.74025,1.01646 -0.56348,0.83969 -1.14352,1.86168 -0.49166,0.88941 -0.58557,1.16562 -0.45299,0.98332 -0.44747,1.06619 -0.24307,0.62424 -0.39774,1.14352 -0.24307,0.75683 -0.1823,0.62424 -0.12706,0.47509 -0.0939,0.38117 -0.25412,1.11038 -0.21545,1.12143 -0.16573,1.0938 -0.16572,1.5689 -0.0663,1.24296 -0.0166,1.10485 0.0166,1.03304 0.0663,1.1601 0.12705,1.23744 0.10497,0.73472 0.20439,1.23192 0.25964,1.22639 0.49719,1.81748 0.32593,0.99989 0.4185,1.15842 0.73606,1.69763 0.86731,1.73462 0.67949,1.19877 0.38117,0.62424 0.46957,0.72368 0.569,0.84522 0.74577,0.97227 0.59663,0.70158 0.7513,0.80102 1.05513,1.07723 1.11591,1.03304 0.76787,0.67949 0.90598,0.74577 0.71263,0.54691 1.17115,0.83969 0.66291,0.41432 0.95017,0.54138 1.06619,0.56347 0.62424,0.30936 1.07171,0.48061 1.23744,0.48614 0.97227,0.33145 1.25953,0.36461 1.27058,0.30383 1.24297,0.24307 1.91139,0.30383 1.33688,0.15468 1.13247,0.12706 1.1601,0.0939 3.50239,0.25412 1.18219,0.0884 0.66292,0.0608 0.65738,0.0718 0.50824,0.0829 0.22649,0.0442 0.23202,0.0939 0.10846,0.0487 0.0664,0.0508 0.0859,0.10156 0.0508,0.125 0.0273,0.17969 0.0625,0.21484 0.12891,0.25 0.0859,0.11719 0.125,0.125 0.16797,0.12891 0.28907,0.14453 0.27734,0.0898 0.28906,0.0625 0.25391,0.043 0.4375,0.0469 0.6914,0.0234 1.00391,-0.0117 0.41406,-0.0312 0.34375,-0.0469 0.26953,-0.0703 0.19141,-0.0742 0.19922,-0.10938 0.21484,-0.14843 0.40625,-0.36329 0.14063,-0.12109 0.16406,-0.11719 0.23047,-0.14453 0.23437,-0.11719 0.46094,-0.19531 0.4336,-0.14062 0.44921,-0.13282 1.6875,-0.375 0.73047,-0.16015 1.16416,-0.28533 1.16407,-0.3125 0.71093,-0.21875 0.33594,-0.10937 0.28906,-0.0625 0.16407,-0.008 0.0703,0.0312 0.0625,0.0937 -0.0937,0.21875 -0.32031,0.8125 -0.77344,2.35937 -0.51563,1.73438 -0.64843,2.29687 -0.52344,1.96875 -0.51563,2.10156 -0.34375,1.46094 -0.51562,2.39844 -0.46875,2.74219 -0.23438,1.67187 -0.21093,1.72656 -0.10157,1.05469 -0.0703,0.74219 -0.0625,0.78906 -0.11719,2.03125 -0.0547,1.17188 -0.0391,2.39062 0.0234,0.98438 0,0.75781 0.10156,2.01562 0.10938,1.71875 0.29687,3.03907 0.3125,2.1875 0.25,1.54687 0.25782,1.25 0.24218,1.27344 0.53125,2.21875 0.80469,3.02344 0.51563,1.73437 1.08593,3.35156 0.92969,2.57813 1.00781,2.53906 0.53907,1.28125 0.75781,1.69531 0.51562,1.10157 1.04688,2.14843 0.30469,0.55469 0.77343,1.4375 1.0625,1.91406 0.71875,1.17188 1.34375,2.13281 1.4375,2.09375 1.00786,1.39092 1.21875,1.50781 1.16406,1.33594 1.73437,1.89843 1.53907,1.57032 2.14843,2.03125 1.90625,1.73437 2.72657,2.30469 1.90625,1.53906 2.04687,1.55469 2.15625,1.5625 2.53125,1.74219 1.53906,0.99218 2.27344,1.35938 1.46875,0.82031 1.46094,0.76563 0.86719,0.46875 z"
       id="path4152"
       inkscape:connector-curvature="0" />
    <path
       style="fill:none;fill-rule:evenodd;stroke:#000000;stroke-width:1px;stroke-linecap:butt;stroke-linejoin:miter;stroke-opacity:1"
       d="m 312.82846,387.70393 -0.33146,0.13258 -0.28726,0.30936 -0.0442,0.46404 0.26516,0.79549 0.61872,1.41422 0.30936,0.61872 0.37565,0.44194 0.33146,0.19887 0.35355,0.0221 0.59662,-0.13258"
       id="path4155"
       inkscape:connector-curvature="0" />
    <path
       style="fill:none;fill-rule:evenodd;stroke:#000000;stroke-width:1px;stroke-linecap:butt;stroke-linejoin:miter;stroke-opacity:1"
       d="m 290.64063,427.45986 0.21875,-0.13281 0.4375,-0.15625 0.51171,-0.11719 0.5586,-0.11328 0.52344,-0.0977 0.5664,-0.0937 0.66016,-0.0898 0.27734,-0.0273 0.32031,0 0.28516,0.0469 0.15234,0.082 0.17579,0.15625"
       id="path4161"
       inkscape:connector-curvature="0" />
    <path
       style="fill:none;fill-rule:evenodd;stroke:#000000;stroke-width:1px;stroke-linecap:butt;stroke-linejoin:miter;stroke-opacity:1"
       d="m 260.84375,380.39346 -1.375,2.625 -1.0625,2.15625 -1.21875,3.25 -0.84375,2.8125 -0.59375,2.71875 -0.3125,1.75"
       id="path4163"
       inkscape:connector-curvature="0" />
    <path
       style="fill:none;fill-rule:evenodd;stroke:#000000;stroke-width:1px;stroke-linecap:butt;stroke-linejoin:miter;stroke-opacity:1"
       d="m 273.5625,378.39346 -1.25,0.6875 -1.875,1.34375 -1.375,1.1875 -1.8125,1.90625 -1.8125,2.46875 -1,1.59375 -1.15625,2.5625 -0.84375,2.375 -0.4375,1.84375 -0.25,1.59375 -0.0625,0.84375 -0.0625,1.6875 0.1875,2.4375 0.65625,3.21875 0.65625,2 0.25,0.59375 0.875,2.0625 1.03125,1.9375 1.28125,1.875 1.5,1.84375 0.75,0.96875"
       id="path4165"
       inkscape:connector-curvature="0" />
    <path
       style="fill:none;fill-rule:evenodd;stroke:#000000;stroke-width:1px;stroke-linecap:butt;stroke-linejoin:miter;stroke-opacity:1"
       d="m 285.59375,425.92471 0.9375,-0.0937 1.90625,-0.375 1.625,-0.4375 2.21875,-0.71875 2.15625,-0.875 2.59375,-1.25 2.6875,-1.59375 0.90625,-0.4375"
       id="path4167"
       inkscape:connector-curvature="0" />
    <path
       style="fill:none;fill-rule:evenodd;stroke:#000000;stroke-width:1px;stroke-linecap:butt;stroke-linejoin:miter;stroke-opacity:1"
       d="m 304.4375,414.83096 -1.375,1.625"
       id="path4169"
       inkscape:connector-curvature="0" />
    <path
       style="fill:none;fill-rule:evenodd;stroke:#000000;stroke-width:1px;stroke-linecap:butt;stroke-linejoin:miter;stroke-opacity:1"
       d="m 308.65625,408.23721 0.375,-0.71875"
       id="path4171"
       inkscape:connector-curvature="0" />
    <path
       style="fill:none;fill-rule:evenodd;stroke:#000000;stroke-width:1px;stroke-linecap:butt;stroke-linejoin:miter;stroke-opacity:1"
       d="m 310.53125,402.39346 0.125,-1.53125 0.0625,-2.5625 -0.125,-2.09375 -0.34375,-2.90625 -0.5,-2.6875 -0.78125,-2.5625 -1.53125,-3.25"
       id="path4173"
       inkscape:connector-curvature="0" />
  </g>
</svg>
