<?xml version="1.0" encoding="UTF-8" standalone="no"?>
<svg
   xmlns:dc="http://purl.org/dc/elements/1.1/"
   xmlns:cc="http://creativecommons.org/ns#"
   xmlns:rdf="http://www.w3.org/1999/02/22-rdf-syntax-ns#"
   xmlns:svg="http://www.w3.org/2000/svg"
   xmlns="http://www.w3.org/2000/svg"
   version="1.1"
   id="svg2"
   viewBox="0 0 201.1144 182.5032"
   height="51.506458mm"
   width="56.758953mm">
  <defs
     id="defs4" />
  <metadata
     id="metadata7">
    <rdf:RDF>
      <cc:Work
         rdf:about="">
        <dc:format>image/svg+xml</dc:format>
        <dc:type
           rdf:resource="http://purl.org/dc/dcmitype/StillImage" />
        <dc:title></dc:title>
      </cc:Work>
    </rdf:RDF>
  </metadata>
  <g
     transform="translate(-252.49499,-367.36616)"
     id="layer4">
    <circle
       r="69.625298"
       cy="455.36221"
       cx="376.25"
       id="path4375"
       style="opacity:1;fill:none;fill-opacity:1;stroke:#000000;stroke-width:1.32213247;stroke-miterlimit:4;stroke-dasharray:none;stroke-opacity:1" />
    <path
       id="indicatorLight1"
       d="M 302.90942,398.23721 A 19.78442,19.78442 0 0 1 283.125,418.02163 19.78442,19.78442 0 0 1 263.34058,398.23721 19.78442,19.78442 0 0 1 283.125,378.45279 19.78442,19.78442 0 0 1 302.90942,398.23721 Z"
       style="opacity:1;fill:none;fill-opacity:1;stroke:#000000;stroke-width:1.18115938;stroke-miterlimit:4;stroke-dasharray:none;stroke-opacity:1" />
    <circle
       r="3.1717563"
       cy="434.57184"
       cx="409.45901"
       id="indicatorLight2"
       style="opacity:1;fill:none;fill-opacity:1;stroke:#000000;stroke-width:0.93206036;stroke-miterlimit:4;stroke-dasharray:none;stroke-opacity:1" />
    <path
       id="path4402"
       d="m 420.75,427.73721 0,2.875 1.625,-1.125 1.375,0.875 1.875,0.25 3.625,0.25 0.375,-0.625"
       style="fill:none;fill-rule:evenodd;stroke:#000000;stroke-width:1px;stroke-linecap:butt;stroke-linejoin:miter;stroke-opacity:1" />
    <path
       id="path4404"
       d="m 432.375,427.61221 -11.625,-0.25 8,2.125 2.875,0.875 -0.125,-1.75"
       style="fill:none;fill-rule:evenodd;stroke:#000000;stroke-width:1px;stroke-linecap:butt;stroke-linejoin:miter;stroke-opacity:1" />
    <path
       id="path4406"
       d="m 420.75,433.11221 c 0.5,0 5,0.375 5,0.375 l -0.625,2.625 -2.25,-2.125 -1.5,2.625 -0.5,-2.875"
       style="fill:none;fill-rule:evenodd;stroke:#000000;stroke-width:1px;stroke-linecap:butt;stroke-linejoin:miter;stroke-opacity:1" />
    <path
       id="path4408"
       d="m 428.625,433.48721 0,-0.625"
       style="fill:none;fill-rule:evenodd;stroke:#000000;stroke-width:1px;stroke-linecap:butt;stroke-linejoin:miter;stroke-opacity:1" />
    <path
       id="path4410"
       d="m 432.75,432.36221 -0.75,1.25"
       style="fill:none;fill-rule:evenodd;stroke:#000000;stroke-width:1px;stroke-linecap:butt;stroke-linejoin:miter;stroke-opacity:1" />
    <path
       id="path4412"
       d="m 420.25,438.73721 0.5,3 14.375,-0.25 1.25,-2.5 -5.875,-0.375 z"
       style="fill:none;fill-rule:evenodd;stroke:#000000;stroke-width:1px;stroke-linecap:butt;stroke-linejoin:miter;stroke-opacity:1" />
    <path
       id="path4414"
       d="m 421,440.23721 13.5,0"
       style="fill:none;fill-rule:evenodd;stroke:#000000;stroke-width:1px;stroke-linecap:butt;stroke-linejoin:miter;stroke-opacity:1" />
    <path
       id="path4416"
       d="m 406.05607,463.43064 3.35876,-0.35355 1.59099,-0.17678 1.23743,0.61872 1.50261,0.17678 2.91681,1.5026 2.74004,2.12132 1.67938,2.65165 0.88388,3.53554 0.35355,1.32582 3.0936,-0.26516 0.17677,-2.20971 -0.88388,-2.91682 -2.12132,-3.8007 -3.44715,-3.71231 -3.18198,-1.67938 -2.56326,-0.79549 -4.77297,-0.35355 -3.35876,0.7071 -0.88388,1.41422 1.76777,2.65165 z"
       style="fill:none;fill-rule:evenodd;stroke:#000000;stroke-width:1px;stroke-linecap:butt;stroke-linejoin:miter;stroke-opacity:1" />
    <path
       id="path4418"
       d="m 405.43735,462.10482 7.51301,-0.97227 5.39169,2.65165 3.71231,4.33103 1.59099,4.41941 0.26516,2.03294"
       style="fill:none;fill-rule:evenodd;stroke:#000000;stroke-width:1px;stroke-linecap:butt;stroke-linejoin:miter;stroke-opacity:1" />
    <g
       id="text4420"
       style="font-style:normal;font-weight:normal;font-size:7.5px;line-height:81.99999928%;font-family:sans-serif;letter-spacing:0px;word-spacing:0px;fill:#000000;fill-opacity:1;stroke:none;stroke-width:1px;stroke-linecap:butt;stroke-linejoin:miter;stroke-opacity:1">
      <path
         id="path4427"
         style="font-style:normal;font-variant:normal;font-weight:normal;font-stretch:normal;line-height:81.99999928%;font-family:'Gill Sans Ultra Bold';-inkscape-font-specification:'Gill Sans Ultra Bold, ';text-align:center;text-anchor:middle"
         d="m 411.06653,445.93448 -0.61524,1.76147 q -0.60424,-0.81665 -1.38794,-0.81665 -0.43579,0 -0.43579,0.32959 0,0.10254 0.1355,0.20874 0.13916,0.1062 0.72144,0.33326 0.64087,0.25268 0.9851,0.46142 0.3479,0.20508 0.52002,0.52734 0.17212,0.32227 0.17212,0.75074 0,0.89721 -0.68115,1.36963 -0.68115,0.46875 -2.00317,0.46875 -1.48316,0 -2.55616,-0.42115 l 0.60425,-1.86767 q 0.26367,0.41015 0.65186,0.65185 0.39184,0.2417 0.75073,0.2417 0.17578,0 0.29297,-0.0915 0.12085,-0.0915 0.12085,-0.22339 0,-0.12451 -0.11719,-0.23804 -0.11352,-0.11352 -0.60791,-0.31494 -0.44678,-0.17944 -0.73974,-0.3479 -0.29297,-0.17212 -0.50904,-0.48706 -0.21606,-0.31494 -0.21606,-0.79468 0,-0.93017 0.67749,-1.40258 0.67749,-0.47242 1.99951,-0.47242 1.2085,0 2.23755,0.37354 z" />
      <path
         id="path4429"
         style="font-style:normal;font-variant:normal;font-weight:normal;font-stretch:normal;line-height:81.99999928%;font-family:'Gill Sans Ultra Bold';-inkscape-font-specification:'Gill Sans Ultra Bold, ';text-align:center;text-anchor:middle"
         d="m 411.42908,448.12442 0,-2.47559 4.96582,0 0,2.47559 -1.24512,0 0,3.11279 -2.47559,0 0,-3.11279 -1.24511,0 z" />
      <path
         id="path4431"
         style="font-style:normal;font-variant:normal;font-weight:normal;font-stretch:normal;line-height:81.99999928%;font-family:'Gill Sans Ultra Bold';-inkscape-font-specification:'Gill Sans Ultra Bold, ';text-align:center;text-anchor:middle"
         d="m 419.62122,451.32877 q -1.19751,0 -2.03247,-0.83863 -0.8313,-0.84228 -0.8313,-2.05078 0,-1.20483 0.8313,-2.03979 0.83496,-0.83863 2.03247,-0.83863 1.20117,0 2.03247,0.83863 0.83496,0.83496 0.83496,2.03979 0,1.2085 -0.83496,2.05078 -0.8313,0.83863 -2.03247,0.83863 z m 0,-3.62549 q -0.23804,0 -0.39551,0.16845 -0.15747,0.1648 -0.15747,0.41749 0,0.25268 0.15747,0.42114 0.15747,0.16479 0.39551,0.16479 0.2417,0 0.39917,-0.16479 0.15747,-0.16846 0.15747,-0.42114 0,-0.25269 -0.15747,-0.41749 -0.15747,-0.16845 -0.39917,-0.16845 z" />
      <path
         id="path4433"
         style="font-style:normal;font-variant:normal;font-weight:normal;font-stretch:normal;line-height:81.99999928%;font-family:'Gill Sans Ultra Bold';-inkscape-font-specification:'Gill Sans Ultra Bold, ';text-align:center;text-anchor:middle"
         d="m 423.37122,445.64883 3.65112,0 q 0.94849,0 1.49048,0.47974 0.54199,0.47607 0.54199,1.19385 0,0.79101 -0.63721,1.23779 0.90454,1.03272 1.08032,2.677 l -2.56713,0 q -0.0696,-1.05835 -0.31861,-1.56372 -0.24536,-0.50537 -0.76904,-0.50537 l 0,2.06909 -2.47192,0 0,-5.58838 z m 2.47192,1.14991 0,1.07666 0.0696,0 q 0.6665,0 0.6665,-0.52368 0,-0.21973 -0.13549,-0.38453 -0.1355,-0.16845 -0.45044,-0.16845 l -0.15015,0 z" />
      <path
         id="path4435"
         style="font-style:normal;font-variant:normal;font-weight:normal;font-stretch:normal;line-height:81.99999928%;font-family:'Gill Sans Ultra Bold';-inkscape-font-specification:'Gill Sans Ultra Bold, ';text-align:center;text-anchor:middle"
         d="m 433.62512,451.23721 -2.47558,0 0,-2.43896 -2.13135,-3.14942 2.50488,0 0.86426,1.26709 0.86059,-1.26709 2.50489,0 -2.12769,3.14942 0,2.43896 z" />
      <path
         id="path4437"
         style="font-style:normal;font-variant:normal;font-weight:normal;font-stretch:normal;line-height:81.99999928%;font-family:'Gill Sans Ultra Bold';-inkscape-font-specification:'Gill Sans Ultra Bold, ';text-align:center;text-anchor:middle"
         d="m 404.57727,451.79883 3.38745,0 q 1.073,0 1.64795,0.54566 0.57495,0.54199 0.57495,1.34399 0,0.78369 -0.54565,1.33301 -0.54566,0.54932 -1.3147,0.54932 -0.64087,0 -1.27808,-0.48706 l 0,2.30346 -2.47192,0 0,-5.58838 z m 2.47192,1.2085 0,1.21582 q 0.10987,0.0293 0.20508,0.0293 0.27832,0 0.45044,-0.17578 0.17212,-0.17579 0.17212,-0.46143 0,-0.28198 -0.14648,-0.44311 -0.14649,-0.1648 -0.41748,-0.1648 l -0.26368,0 z" />
      <path
         id="path4439"
         style="font-style:normal;font-variant:normal;font-weight:normal;font-stretch:normal;line-height:81.99999928%;font-family:'Gill Sans Ultra Bold';-inkscape-font-specification:'Gill Sans Ultra Bold, ';text-align:center;text-anchor:middle"
         d="m 413.46887,457.47877 q -1.19751,0 -2.03247,-0.83863 -0.8313,-0.84228 -0.8313,-2.05078 0,-1.20483 0.8313,-2.03979 0.83496,-0.83863 2.03247,-0.83863 1.20117,0 2.03247,0.83863 0.83496,0.83496 0.83496,2.03979 0,1.2085 -0.83496,2.05078 -0.8313,0.83863 -2.03247,0.83863 z m 0,-3.62549 q -0.23804,0 -0.39551,0.16845 -0.15747,0.1648 -0.15747,0.41749 0,0.25268 0.15747,0.42114 0.15747,0.16479 0.39551,0.16479 0.2417,0 0.39917,-0.16479 0.15747,-0.16846 0.15747,-0.42114 0,-0.25269 -0.15747,-0.41749 -0.15747,-0.16845 -0.39917,-0.16845 z" />
      <path
         id="path4441"
         style="font-style:normal;font-variant:normal;font-weight:normal;font-stretch:normal;line-height:81.99999928%;font-family:'Gill Sans Ultra Bold';-inkscape-font-specification:'Gill Sans Ultra Bold, ';text-align:center;text-anchor:middle"
         d="m 417.23352,457.38721 0,-5.58838 2.47192,0 0,5.58838 -2.47192,0 z" />
      <path
         id="path4443"
         style="font-style:normal;font-variant:normal;font-weight:normal;font-stretch:normal;line-height:81.99999928%;font-family:'Gill Sans Ultra Bold';-inkscape-font-specification:'Gill Sans Ultra Bold, ';text-align:center;text-anchor:middle"
         d="m 426.35583,457.43116 -1.875,0 -1.20117,-1.76148 0,1.71753 -2.47192,0 0,-5.58838 1.7688,0 1.30371,1.88965 0,-1.88965 2.47558,0 0,5.63233 z" />
      <path
         id="path4445"
         style="font-style:normal;font-variant:normal;font-weight:normal;font-stretch:normal;line-height:81.99999928%;font-family:'Gill Sans Ultra Bold';-inkscape-font-specification:'Gill Sans Ultra Bold, ';text-align:center;text-anchor:middle"
         d="m 427.02966,454.27442 0,-2.47559 4.96582,0 0,2.47559 -1.24511,0 0,3.11279 -2.47559,0 0,-3.11279 -1.24512,0 z" />
      <path
         id="path4447"
         style="font-style:normal;font-variant:normal;font-weight:normal;font-stretch:normal;line-height:81.99999928%;font-family:'Gill Sans Ultra Bold';-inkscape-font-specification:'Gill Sans Ultra Bold, ';text-align:center;text-anchor:middle"
         d="m 437.37512,452.08448 -0.61523,1.76147 q -0.60425,-0.81665 -1.38794,-0.81665 -0.43579,0 -0.43579,0.32959 0,0.10254 0.1355,0.20874 0.13916,0.1062 0.72143,0.33325 0.64087,0.25269 0.98511,0.46143 0.3479,0.20508 0.52002,0.52734 0.17212,0.32227 0.17212,0.75074 0,0.89721 -0.68116,1.36963 -0.68115,0.46875 -2.00317,0.46875 -1.48315,0 -2.55615,-0.42115 l 0.60425,-1.86767 q 0.26367,0.41015 0.65185,0.65185 0.39185,0.2417 0.75073,0.2417 0.17579,0 0.29297,-0.0916 0.12085,-0.0915 0.12085,-0.22339 0,-0.12451 -0.11718,-0.23804 -0.11353,-0.11352 -0.60791,-0.31494 -0.44678,-0.17944 -0.73975,-0.3479 -0.29297,-0.17212 -0.50903,-0.48706 -0.21607,-0.31494 -0.21607,-0.79468 0,-0.93017 0.67749,-1.40258 0.67749,-0.47242 1.99951,-0.47242 1.2085,0 2.23755,0.37354 z" />
    </g>
    <path
       id="pointer"
       d="m 324.625,478.36221 0.3125,0.5625 46.25,-18.6875 -1.75,-4.5 z"
       style="fill:none;fill-rule:evenodd;stroke:#000000;stroke-width:1px;stroke-linecap:butt;stroke-linejoin:bevel;stroke-opacity:1" />
  </g>
  <g
     transform="translate(-252.49499,-367.36616)"
     style="display:inline"
     id="layer3">
    <path
       id="path4152"
       d="m 343.75176,526.41997 c 0.66291,0.39459 0.66291,0.39459 0.66291,0.39459 l 0.22097,0.20518 0.0316,0.12627 -0.11049,0.14206 -0.29989,0.17362 -0.63134,0.15783 -0.88389,0.0789 -1.43631,-0.0158 -1.18377,-0.0947 -0.85232,-0.0789 -0.82075,0.0473 -0.66291,0.22097 -0.33145,0.23675 -0.31568,0.31568 -0.3788,0.64713 -0.23676,0.78918 -0.14205,0.85231 -0.0473,0.61557 -0.0158,0.80496 0,0.55243 0.0789,0.45772 0.0553,0.3354 0.0947,0.25254 0.0947,0.12627 0.0947,0.0789 0.16178,0.075 0.31962,0.0868 0.39854,0.0513 0.41037,0.0316 0.42222,0.0197 0.36302,0.008 0.5761,0.004 1.3061,0.004 0.72999,-0.0118 0.62345,-0.0197 0.64713,-0.0237 0.82864,-0.0434 0.26438,-0.0276 0.0829,-0.0118 0.11838,-0.0237 0.12232,-0.0118 0.0947,0 0.0789,0.0316 0.0908,0.0434 0.12627,0.13416 0.15783,0.32357 0.15784,0.46167 0.24465,0.87599 0.1381,0.4301 0.11049,0.25254 0.11049,0.16178 0.0671,0.0789 0.10654,0.0868 0.16572,0.0987 0.20124,0.0671 0.29595,0.071 0.26832,0.0434 0.38275,0.0474 0.34724,0.0473 0.38276,0.0434 0.32751,0.0197 0.44983,0.0237 0.11443,0.0197 0.20519,0.0474 0.28805,0.0947 0.34329,0.16178 0.19335,0.11048 0.18941,0.12627 0.23675,0.17362 0.146,0.11049 0.16573,0.15783 0.28016,0.28411 0.20913,0.26832 0.0829,0.1026 0.0829,0.14599 0.0987,0.16968 0.0671,0.16967 0.0592,0.146 0.0434,0.18546 0.0789,0.23281 0.0908,0.21308 0.12627,0.20124 0.11838,0.14994 0.16967,0.16573 0.1539,0.10259 0.10259,0.0434 0.13416,0 0.0829,-0.0237 0.0868,-0.0671 0.0592,-0.10259 0.0434,-0.15784 0.0158,-0.17362 0.0197,-0.18545 0.075,-0.26438 0.146,-0.31962 0.18941,-0.29989 0.15783,-0.21702 0.69407,-0.80523 0.1973,-0.22886 0.0118,0.39064 0.0237,0.584 0.0513,0.70237 0.075,0.87599 0.0987,1.00226 0.0868,0.93913 0.12232,1.16799 0.14205,1.37712 0.20914,2.13474 0.0946,0.95491 0.0276,0.0552 0.10259,0.0908 0.0986,0.0592 0.20519,0.0789 0.49324,0.16573 0.64318,0.15389 0.48535,0.10259 0.4301,0.0789 0.4301,0.071 0.39065,0.0631 0.37881,0.0474 0.67869,0.0789 0.69054,0.0671 0.45772,0.0355 0.74578,0.0434 0.61556,0.0197 0.52086,-0.004 0.84442,-0.0197 0.67475,-0.0473 0.60767,-0.0552 0.63135,-0.071 0.68659,-0.0907 0.99437,-0.15389 2.00452,-0.3433 1.89403,-0.31567 1.00621,-0.15389 1.58626,-0.20124 1.60598,-0.15389 0.76945,-0.0513 1.02199,-0.0434 1.20745,0.0158 0.52875,0.0316 0.47351,0.0316 0.35908,0.0474 0.37092,0.0434 0.31567,0.0355 0.41432,0.0355 0.82469,0.0474 0.85627,0.0316 1.74803,0.0316 3.64997,0.004 1.17193,-0.0158 1.44815,-0.0276 2.81738,-0.075 2.43857,-0.0947 1.35345,-0.0829 0.91545,-0.0671 0.72605,-0.075 0.55637,-0.0868 0.22492,-0.071 0.0513,-0.0473 0.10654,-0.30384 0.0829,-0.36302 0.10259,-0.53665 0.15389,-1.12853 0.0987,-0.94307 0.14205,-1.57836 0.10259,-1.55864 0.11444,-1.78355 0.11048,-1.74803 0.23676,0.4814 0.3354,0.7221 0.21557,0.44413 0.25781,0.45313 0.23438,0.32812 0.16796,0.19532 0.1211,0.11328 0.10156,0.0781 0.0742,0.0312 0.0742,0 0.16797,-0.0547 0.14062,-0.10547 0.1875,-0.23828 0.16016,-0.29297 0.12109,-0.29688 0.10156,-0.33984 0.082,-0.42969 0.0312,-0.33203 0.0156,-0.34766 0.0195,-0.17187 0.0547,-0.15625 0.10547,-0.1211 0.10547,-0.0625 0.10156,-0.0312 0.10547,-0.0195 0.0703,0.004 0.10156,-0.004 0.13282,-0.0312 0.13281,-0.0469 0.16406,-0.10156 0.17578,-0.15235 0.15235,-0.1914 0.15625,-0.28907 0.10546,-0.21093 0.125,-0.15235 0.10938,-0.10156 0.16016,-0.0898 0.21484,-0.0586 0.22656,-0.0351 0.20313,-0.0234 0.5664,-0.0156 0.66797,-0.008 0.375,-0.0117 0.35938,-0.0391 0.27734,-0.0625 0.26563,-0.0977 0.16796,-0.0977 0.14844,-0.12891 0.0937,-0.11719 0.13281,-0.21093 0.10547,-0.23438 0.0471,-0.16003 0.0937,-0.39453 0.0859,-0.54297 0.10156,-1.04687 0.0508,-0.83984 0.0117,-0.44141 -0.008,-0.41406 -0.0274,-0.30078 -0.043,-0.21485 -0.0391,-0.14844 -0.0859,-0.19531 -0.082,-0.13672 -0.13672,-0.16406 -0.0976,-0.14453 -0.0742,-0.15625 -0.0469,-0.14453 -0.0156,-0.23047 0.0469,-0.24609 0.0937,-0.26954 0.0859,-0.35156 0.082,-0.54687 0.0352,-0.41016 0.0156,-0.46875 0.0156,-0.14062 0.0312,-0.17188 0.0391,-0.12109 0.043,-0.0977 0.0742,-0.11719 0.0508,-0.0625 0.082,-0.082 0.12109,-0.0976 0.15235,-0.11329 0.33203,-0.21093 0.94141,-0.4961 1.41796,-0.70312 2.875,-1.57422 1.5,-0.89063 2.40235,-1.54687 2.41053,-1.67191 2.65625,-1.98438 1.98438,-1.64062 1.65625,-1.42188 1.90625,-1.875 2,-2.04687 2.53125,-2.82813 2.28125,-2.78125 2.6875,-3.5625 3.54687,-5.4375 2.15625,-3.6875 1.76563,-3.40625 1.6875,-3.75 1.65625,-4.28125 0.95312,-3.04687 0.82813,-3.28125 0.5625,-3.125 0.35937,-2.98438 0.1875,-1.82812 0.15625,-2.3125 0.125,-3.375 0.0625,-5 -0.0156,-3.04688 -0.0469,-2 -0.0469,-1.9375 -0.375,-4.73437 -0.3125,-2.17188 -0.75,-3.40625 -0.85938,-2.92187 -1.45312,-4.23438 -1.45313,-3.65625 -1.82812,-3.96875 -1.57813,-3.125 -1.70312,-3.0625 -1.57813,-2.60937 -2.60937,-3.9375 -2.625,-3.5625 -1.79688,-2.09375 -2.23437,-2.4375 -2.98438,-2.95313 -3.95312,-3.60937 -1.76563,-1.39063 -2.20312,-1.57812 -1.71875,-1.17188 -3.25,-2.03125 -3.64063,-2.04687 -3.89062,-1.92188 -2.90625,-1.25 -2.03125,-0.8125 -3.23438,-1.15625 -2.89062,-0.89062 -3.22923,-0.86383 -3.52449,-0.76235 -2.51906,-0.47508 -3.20408,-0.46404 -1.86721,-0.15468 -1.97769,-0.0884 -2.55221,-0.0552 -2.08817,-0.0111 -1.65728,0 -3.13779,0.0221 -3.62392,0.11049 -1.72358,0.13258 -2.2318,0.30936 -2.17657,0.39775 -1.8672,0.3646 -2.41963,0.56348 -1.5026,0.3867 -3.00521,0.86178 -1.99978,0.64082 -1.33688,0.46404 -1.96664,0.7292 -2.07712,0.82864 -2.94996,1.30373 -1.72358,0.81759 -3.09359,1.64623 -1.75672,0.99437 -1.54679,0.92808 -2.41963,1.55785 -2.06608,1.44735 -2.57431,1.9335 -1.65728,1.31478 -1.67938,1.44736 -2.25391,2.04398 -2.16551,2.01083 -0.69606,0.57453 -0.11048,-0.11049 -0.11049,-0.99437 -0.0221,-1.02751 -0.0663,-0.66292 -0.11048,-0.97227 -0.35356,-1.8893 -0.37564,-1.52469 -0.54138,-1.61309 -0.48613,-1.138 -0.33146,-1.02751 -0.13258,-0.59662 -0.0442,-0.58557 -0.20993,-0.66292 -0.3425,-0.7513 -0.28726,-0.44194 -0.68501,-0.80654 -0.35356,-0.26517 -0.56347,-0.24307 -0.11049,0.0111 -0.11048,-0.0111 -0.27621,-0.19887 -0.50823,-0.39222 -0.60767,-0.51928 -1.1159,-1.03304 -1.38107,-1.37555 -1.02199,-1.01646 -1.18219,-1.14353 -1.55233,-1.51365 -1.39211,-1.30925 -1.7291,-1.57442 -1.55784,-1.35344 -1.01094,-0.80102 -1.39212,-1.07724 -1.33135,-0.90045 -1.53022,-0.92808 -1.33135,-0.72368 -0.93913,-0.45851 -1.60756,-0.71264 -1.58547,-0.60767 -0.87836,-0.28726 -1.67938,-0.48061 -1.55232,-0.32041 -1.38659,-0.2044 -0.94465,-0.0994 -0.55243,-0.0387 -0.67948,-0.0276 -0.69054,-0.0111 -0.54137,0.0111 -0.66292,0.0221 -1.11038,0.0718 -1.76224,0.19335 -1.06618,0.16573 -0.9999,0.17677 -1.37002,0.30384 -1.18219,0.30936 -0.91703,0.27068 -0.90046,0.27621 -1.06618,0.39222 -0.99989,0.40328 -1.02199,0.45299 -0.81207,0.39222 -0.83417,0.44747 -0.80654,0.46403 -1.20982,0.76788 -0.61871,0.42537 -0.71816,0.53585 -0.569,0.46404 -0.61872,0.52481 -0.60767,0.569 -0.81207,0.83416 -0.67396,0.76235 -0.86731,1.12143 -0.74025,1.01646 -0.56348,0.83969 -1.14352,1.86168 -0.49166,0.88941 -0.58557,1.16562 -0.45299,0.98332 -0.44747,1.06619 -0.24307,0.62424 -0.39774,1.14352 -0.24307,0.75683 -0.1823,0.62424 -0.12706,0.47509 -0.0939,0.38117 -0.25412,1.11038 -0.21545,1.12143 -0.16573,1.0938 -0.16572,1.5689 -0.0663,1.24296 -0.0166,1.10485 0.0166,1.03304 0.0663,1.1601 0.12705,1.23744 0.10497,0.73472 0.20439,1.23192 0.25964,1.22639 0.49719,1.81748 0.32593,0.99989 0.4185,1.15842 0.73606,1.69763 0.86731,1.73462 0.67949,1.19877 0.38117,0.62424 0.46957,0.72368 0.569,0.84522 0.74577,0.97227 0.59663,0.70158 0.7513,0.80102 1.05513,1.07723 1.11591,1.03304 0.76787,0.67949 0.90598,0.74577 0.71263,0.54691 1.17115,0.83969 0.66291,0.41432 0.95017,0.54138 1.06619,0.56347 0.62424,0.30936 1.07171,0.48061 1.23744,0.48614 0.97227,0.33145 1.25953,0.36461 1.27058,0.30383 1.24297,0.24307 1.91139,0.30383 1.33688,0.15468 1.13247,0.12706 1.1601,0.0939 3.50239,0.25412 1.18219,0.0884 0.66292,0.0608 0.65738,0.0718 0.50824,0.0829 0.22649,0.0442 0.23202,0.0939 0.10846,0.0487 0.0664,0.0508 0.0859,0.10156 0.0508,0.125 0.0273,0.17969 0.0625,0.21484 0.12891,0.25 0.0859,0.11719 0.125,0.125 0.16797,0.12891 0.28907,0.14453 0.27734,0.0898 0.28906,0.0625 0.25391,0.043 0.4375,0.0469 0.6914,0.0234 1.00391,-0.0117 0.41406,-0.0312 0.34375,-0.0469 0.26953,-0.0703 0.19141,-0.0742 0.19922,-0.10938 0.21484,-0.14843 0.40625,-0.36329 0.14063,-0.12109 0.16406,-0.11719 0.23047,-0.14453 0.23437,-0.11719 0.46094,-0.19531 0.4336,-0.14062 0.44921,-0.13282 1.6875,-0.375 0.73047,-0.16015 1.16416,-0.28533 1.16407,-0.3125 0.71093,-0.21875 0.33594,-0.10937 0.28906,-0.0625 0.16407,-0.008 0.0703,0.0312 0.0625,0.0937 -0.0937,0.21875 -0.32031,0.8125 -0.77344,2.35937 -0.51563,1.73438 -0.64843,2.29687 -0.52344,1.96875 -0.51563,2.10156 -0.34375,1.46094 -0.51562,2.39844 -0.46875,2.74219 -0.23438,1.67187 -0.21093,1.72656 -0.10157,1.05469 -0.0703,0.74219 -0.0625,0.78906 -0.11719,2.03125 -0.0547,1.17188 -0.0391,2.39062 0.0234,0.98438 0,0.75781 0.10156,2.01562 0.10938,1.71875 0.29687,3.03907 0.3125,2.1875 0.25,1.54687 0.25782,1.25 0.24218,1.27344 0.53125,2.21875 0.80469,3.02344 0.51563,1.73437 1.08593,3.35156 0.92969,2.57813 1.00781,2.53906 0.53907,1.28125 0.75781,1.69531 0.51562,1.10157 1.04688,2.14843 0.30469,0.55469 0.77343,1.4375 1.0625,1.91406 0.71875,1.17188 1.34375,2.13281 1.4375,2.09375 1.00786,1.39092 1.21875,1.50781 1.16406,1.33594 1.73437,1.89843 1.53907,1.57032 2.14843,2.03125 1.90625,1.73437 2.72657,2.30469 1.90625,1.53906 2.04687,1.55469 2.15625,1.5625 2.53125,1.74219 1.53906,0.99218 2.27344,1.35938 1.46875,0.82031 1.46094,0.76563 0.86719,0.46875 z"
       style="opacity:1;fill:none;fill-rule:evenodd;stroke:#000000;stroke-width:1px;stroke-linecap:butt;stroke-linejoin:miter;stroke-opacity:1" />
    <path
       id="path4155"
       d="m 312.82846,387.70393 -0.33146,0.13258 -0.28726,0.30936 -0.0442,0.46404 0.26516,0.79549 0.61872,1.41422 0.30936,0.61872 0.37565,0.44194 0.33146,0.19887 0.35355,0.0221 0.59662,-0.13258"
       style="fill:none;fill-rule:evenodd;stroke:#000000;stroke-width:1px;stroke-linecap:butt;stroke-linejoin:miter;stroke-opacity:1" />
    <path
       id="path4161"
       d="m 290.64063,427.45986 0.21875,-0.13281 0.4375,-0.15625 0.51171,-0.11719 0.5586,-0.11328 0.52344,-0.0977 0.5664,-0.0937 0.66016,-0.0898 0.27734,-0.0273 0.32031,0 0.28516,0.0469 0.15234,0.082 0.17579,0.15625"
       style="fill:none;fill-rule:evenodd;stroke:#000000;stroke-width:1px;stroke-linecap:butt;stroke-linejoin:miter;stroke-opacity:1" />
    <path
       id="path4163"
       d="m 260.84375,380.39346 -1.375,2.625 -1.0625,2.15625 -1.21875,3.25 -0.84375,2.8125 -0.59375,2.71875 -0.3125,1.75"
       style="fill:none;fill-rule:evenodd;stroke:#000000;stroke-width:1px;stroke-linecap:butt;stroke-linejoin:miter;stroke-opacity:1" />
    <path
       id="path4165"
       d="m 273.5625,378.39346 -1.25,0.6875 -1.875,1.34375 -1.375,1.1875 -1.8125,1.90625 -1.8125,2.46875 -1,1.59375 -1.15625,2.5625 -0.84375,2.375 -0.4375,1.84375 -0.25,1.59375 -0.0625,0.84375 -0.0625,1.6875 0.1875,2.4375 0.65625,3.21875 0.65625,2 0.25,0.59375 0.875,2.0625 1.03125,1.9375 1.28125,1.875 1.5,1.84375 0.75,0.96875"
       style="fill:none;fill-rule:evenodd;stroke:#000000;stroke-width:1px;stroke-linecap:butt;stroke-linejoin:miter;stroke-opacity:1" />
    <path
       id="path4167"
       d="m 285.59375,425.92471 0.9375,-0.0937 1.90625,-0.375 1.625,-0.4375 2.21875,-0.71875 2.15625,-0.875 2.59375,-1.25 2.6875,-1.59375 0.90625,-0.4375"
       style="fill:none;fill-rule:evenodd;stroke:#000000;stroke-width:1px;stroke-linecap:butt;stroke-linejoin:miter;stroke-opacity:1" />
    <path
       id="path4169"
       d="m 304.4375,414.83096 -1.375,1.625"
       style="fill:none;fill-rule:evenodd;stroke:#000000;stroke-width:1px;stroke-linecap:butt;stroke-linejoin:miter;stroke-opacity:1" />
    <path
       id="path4171"
       d="m 308.65625,408.23721 0.375,-0.71875"
       style="fill:none;fill-rule:evenodd;stroke:#000000;stroke-width:1px;stroke-linecap:butt;stroke-linejoin:miter;stroke-opacity:1" />
    <path
       id="path4173"
       d="m 310.53125,402.39346 0.125,-1.53125 0.0625,-2.5625 -0.125,-2.09375 -0.34375,-2.90625 -0.5,-2.6875 -0.78125,-2.5625 -1.53125,-3.25"
       style="fill:none;fill-rule:evenodd;stroke:#000000;stroke-width:1px;stroke-linecap:butt;stroke-linejoin:miter;stroke-opacity:1" />
    <path
       id="path4146"
       d="m 299.68069,382.70999 0.7734,0.68501 0.89493,1.02751 1.04961,1.40316 0.95018,1.41422 0.65186,1.19324 0.56348,1.07171 0.4088,0.95017 0.19887,0.50824 0.22097,0.60767 0.23202,0.82864 0.20992,0.92808 0.0994,0.87283"
       style="fill:none;fill-rule:evenodd;stroke:#000000;stroke-width:1px;stroke-linecap:butt;stroke-linejoin:miter;stroke-opacity:1" />
    <path
       id="path4148"
       d="m 296.76563,416.0497 1.39062,-0.90625 1.46875,-1.23437 1.46875,-1.5 1.39063,-1.70313 0.75,-1.1875 0.42187,-0.78125"
       style="fill:none;fill-rule:evenodd;stroke:#000000;stroke-width:1px;stroke-linecap:butt;stroke-linejoin:miter;stroke-opacity:1" />
    <path
       id="path4150"
       d="m 304.51953,424.51455 -0.16406,-0.25391 -0.21875,-0.25391 -0.375,-0.40234 -0.42578,-0.44531 -0.33203,-0.41797 -0.17188,-0.27734 -0.10547,-0.23438 -0.0195,-0.15625 0.0195,-0.12891 0.0586,-0.1289 0.11718,-0.1211"
       style="fill:none;fill-rule:evenodd;stroke:#000000;stroke-width:1px;stroke-linecap:butt;stroke-linejoin:miter;stroke-opacity:1" />
    <path
       id="path4153"
       d="m 294.79724,425.36841 0.85073,-0.35355 1.62414,-0.74025 1.38107,-0.67397 1.34792,-0.76234 0.89493,-0.61872"
       style="fill:none;fill-rule:evenodd;stroke:#000000;stroke-width:1px;stroke-linecap:butt;stroke-linejoin:miter;stroke-opacity:1" />
    <path
       id="path4156"
       d="m 317.3125,403.96377 -0.30469,-0.0703 -0.49218,-0.0469 -0.76563,-0.0547 -1.17969,-0.0703 -0.33593,0 -0.3125,0.0625 -0.34375,0.1875"
       style="fill:none;fill-rule:evenodd;stroke:#000000;stroke-width:1px;stroke-linecap:butt;stroke-linejoin:miter;stroke-opacity:1" />
    <path
       id="path4158"
       d="m 339.5,530.70595 0.4375,0.0937 1.15625,0.0937 1.59375,0.0312 1.46875,-0.0625 0.8125,-0.1875 0.5625,-0.5625 0.3125,-0.75"
       style="fill:none;fill-rule:evenodd;stroke:#000000;stroke-width:1px;stroke-linecap:butt;stroke-linejoin:miter;stroke-opacity:1" />
    <path
       id="path4160"
       d="m 339.0625,529.45595 1.21875,0.0937 1,0.21875 1.03125,-0.34375 0.84375,-0.0625 0.8125,0.0312"
       style="fill:none;fill-rule:evenodd;stroke:#000000;stroke-width:1px;stroke-linecap:butt;stroke-linejoin:miter;stroke-opacity:1" />
    <path
       id="path4162"
       d="m 338,529.76845 0.0312,0.875 0.0313,0.34375"
       style="fill:none;fill-rule:evenodd;stroke:#000000;stroke-width:1px;stroke-linecap:butt;stroke-linejoin:miter;stroke-opacity:1" />
    <path
       id="path4164"
       d="m 348.84375,528.64345 0.125,-0.25 0.25,0.0625 0.1875,0.5625 0.15625,0.625 0.3125,1.90625 0.21875,0.875 0.125,0.84375 0.0625,0.875 0.0937,0.6875 -1.65625,0.1875"
       style="fill:none;fill-rule:evenodd;stroke:#000000;stroke-width:1px;stroke-linecap:butt;stroke-linejoin:miter;stroke-opacity:1" />
    <path
       id="path4168"
       d="m 355.125,529.7997 1.40625,0.375 1.75,0.40625 1.3125,0.25 1.40625,0.3125 1.125,0.1875"
       style="fill:none;fill-rule:evenodd;stroke:#000000;stroke-width:1px;stroke-linecap:butt;stroke-linejoin:miter;stroke-opacity:1" />
    <path
       id="path4170"
       d="m 389.9375,531.33095 2.15625,-0.3125 1.71875,-0.4375 0.8125,-0.15625 2.0625,-0.53125 2.125,-0.46875 3.34375,-1.15625 2.40625,-1 0.4375,0.125 0.1875,0.5 0.125,0.65625 0.0312,0.59375 0.21875,0.25 0.53125,0.1875 0.65625,0.0937"
       style="fill:none;fill-rule:evenodd;stroke:#000000;stroke-width:1px;stroke-linecap:butt;stroke-linejoin:miter;stroke-opacity:1" />
    <path
       id="path4172"
       d="m 403.5625,528.5497 0.1875,1.15625"
       style="fill:none;fill-rule:evenodd;stroke:#000000;stroke-width:1px;stroke-linecap:butt;stroke-linejoin:miter;stroke-opacity:1" />
    <path
       id="path4174"
       d="m 402.75,531.3622 -0.0937,1.25 0.0312,1.09375 0.15625,1.15625"
       style="fill:none;fill-rule:evenodd;stroke:#000000;stroke-width:1px;stroke-linecap:butt;stroke-linejoin:miter;stroke-opacity:1" />
    <path
       id="path4176"
       d="m 404.1875,506.61221 1.1875,2.6875 4.5625,-2.875 -1.6875,-2.375 z"
       style="fill:none;fill-rule:evenodd;stroke:#000000;stroke-width:1px;stroke-linecap:butt;stroke-linejoin:miter;stroke-opacity:1" />
    <path
       id="path4178"
       d="m 399.125,507.11221 1.875,4"
       style="fill:none;fill-rule:evenodd;stroke:#000000;stroke-width:1px;stroke-linecap:butt;stroke-linejoin:miter;stroke-opacity:1" />
    <path
       id="path4180"
       d="m 396.875,508.17471 1.75,3.9375"
       style="fill:none;fill-rule:evenodd;stroke:#000000;stroke-width:1px;stroke-linecap:butt;stroke-linejoin:miter;stroke-opacity:1" />
    <path
       id="path4182"
       d="m 394,507.67471 0.25,1.4375 0.75,1.6875 0.5625,0.9375 0.4375,0 0.125,-0.375 -1.1875,-3.5 -0.4375,-0.75 z"
       style="fill:none;fill-rule:evenodd;stroke:#000000;stroke-width:1px;stroke-linecap:butt;stroke-linejoin:miter;stroke-opacity:1" />
    <path
       id="path4184"
       d="m 392.5,509.86221 1.3125,3.875"
       style="fill:none;fill-rule:evenodd;stroke:#000000;stroke-width:1px;stroke-linecap:butt;stroke-linejoin:miter;stroke-opacity:1" />
    <path
       id="path4186"
       d="m 390.25,510.42471 1.0625,4.1875"
       style="fill:none;fill-rule:evenodd;stroke:#000000;stroke-width:1px;stroke-linecap:butt;stroke-linejoin:miter;stroke-opacity:1" />
    <path
       id="path4188"
       d="m 387.8125,510.92471 0.9375,4.4375"
       style="fill:none;fill-rule:evenodd;stroke:#000000;stroke-width:1px;stroke-linecap:butt;stroke-linejoin:miter;stroke-opacity:1" />
    <path
       id="path4190"
       d="m 385.6875,511.67471 0.6875,3.875"
       style="fill:none;fill-rule:evenodd;stroke:#000000;stroke-width:1px;stroke-linecap:butt;stroke-linejoin:miter;stroke-opacity:1" />
    <path
       id="path4192"
       d="m 382.0625,507.29971 1.125,8 0.375,1.375 0.625,-0.3125 0.25,-0.5625 -0.9375,-8.3125 z"
       style="fill:none;fill-rule:evenodd;stroke:#000000;stroke-width:1px;stroke-linecap:butt;stroke-linejoin:miter;stroke-opacity:1" />
    <path
       id="path4194"
       d="m 380.9375,512.11221 0.375,4.4375"
       style="fill:none;fill-rule:evenodd;stroke:#000000;stroke-width:1px;stroke-linecap:butt;stroke-linejoin:miter;stroke-opacity:1" />
    <path
       id="path4196"
       d="m 378.5625,512.48721 0.1875,4"
       style="fill:none;fill-rule:evenodd;stroke:#000000;stroke-width:1px;stroke-linecap:butt;stroke-linejoin:miter;stroke-opacity:1" />
    <path
       id="path4198"
       d="m 376.25,512.36221 0.0625,4.1875"
       style="fill:none;fill-rule:evenodd;stroke:#000000;stroke-width:1px;stroke-linecap:butt;stroke-linejoin:miter;stroke-opacity:1" />
    <path
       id="path4200"
       d="m 373.875,512.42471 -0.125,4.125"
       style="fill:none;fill-rule:evenodd;stroke:#000000;stroke-width:1px;stroke-linecap:butt;stroke-linejoin:miter;stroke-opacity:1" />
    <path
       id="path4202"
       d="m 371.25,510.67471 -0.3125,1.8125 -0.0625,2.5 0.1875,0.4375 0.4375,-0.1875 0.375,-0.9375 0.125,-1.375 0,-1.25 -0.125,-1.0625 z"
       style="fill:none;fill-rule:evenodd;stroke:#000000;stroke-width:1px;stroke-linecap:butt;stroke-linejoin:miter;stroke-opacity:1" />
    <path
       id="path4204"
       d="m 369,512.04971 -0.3125,4.125"
       style="fill:none;fill-rule:evenodd;stroke:#000000;stroke-width:1px;stroke-linecap:butt;stroke-linejoin:miter;stroke-opacity:1" />
    <path
       id="path4206"
       d="m 366.75,511.79971 -0.625,4.1875"
       style="fill:none;fill-rule:evenodd;stroke:#000000;stroke-width:1px;stroke-linecap:butt;stroke-linejoin:miter;stroke-opacity:1" />
    <path
       id="path4208"
       d="m 364.5,511.23721 -1,4.4375"
       style="fill:none;fill-rule:evenodd;stroke:#000000;stroke-width:1px;stroke-linecap:butt;stroke-linejoin:miter;stroke-opacity:1" />
    <path
       id="path4210"
       d="m 362.125,510.79971 -1,4.125"
       style="fill:none;fill-rule:evenodd;stroke:#000000;stroke-width:1px;stroke-linecap:butt;stroke-linejoin:miter;stroke-opacity:1" />
    <path
       id="path4212"
       d="m 360.4375,505.92471 -2.3125,8.25 0.75,0.3125 0.5,-0.625 2.3125,-7.625 z"
       style="fill:none;fill-rule:evenodd;stroke:#000000;stroke-width:1px;stroke-linecap:butt;stroke-linejoin:miter;stroke-opacity:1" />
    <path
       id="path4214"
       d="m 357.5,509.48721 -1.4375,4"
       style="fill:none;fill-rule:evenodd;stroke:#000000;stroke-width:1px;stroke-linecap:butt;stroke-linejoin:miter;stroke-opacity:1" />
    <path
       id="path4216"
       d="m 355.5,508.73721 -1.8125,3.75"
       style="fill:none;fill-rule:evenodd;stroke:#000000;stroke-width:1px;stroke-linecap:butt;stroke-linejoin:miter;stroke-opacity:1" />
    <path
       id="path4218"
       d="m 353.3125,507.61221 -2,4.0625"
       style="fill:none;fill-rule:evenodd;stroke:#000000;stroke-width:1px;stroke-linecap:butt;stroke-linejoin:miter;stroke-opacity:1" />
    <path
       id="path4220"
       d="m 351.1875,506.67471 -1.9375,4.0625"
       style="fill:none;fill-rule:evenodd;stroke:#000000;stroke-width:1px;stroke-linecap:butt;stroke-linejoin:miter;stroke-opacity:1" />
    <path
       id="path4222"
       d="m 349.5625,504.04971 -2.3125,4.0625 0.5625,0.3125 2.3125,-4.125 z"
       style="fill:none;fill-rule:evenodd;stroke:#000000;stroke-width:1px;stroke-linecap:butt;stroke-linejoin:miter;stroke-opacity:1" />
    <path
       id="path4224"
       d="m 346.9375,504.73721 -2.25,3.625"
       style="fill:none;fill-rule:evenodd;stroke:#000000;stroke-width:1px;stroke-linecap:butt;stroke-linejoin:miter;stroke-opacity:1" />
    <path
       id="path4226"
       d="m 344.9375,503.29971 -2.5,3.625"
       style="fill:none;fill-rule:evenodd;stroke:#000000;stroke-width:1px;stroke-linecap:butt;stroke-linejoin:miter;stroke-opacity:1" />
    <path
       id="path4228"
       d="m 342.9375,502.11221 -2.5,3.5625"
       style="fill:none;fill-rule:evenodd;stroke:#000000;stroke-width:1px;stroke-linecap:butt;stroke-linejoin:miter;stroke-opacity:1" />
    <path
       id="path4230"
       d="m 341,500.61221 -2.625,3.5"
       style="fill:none;fill-rule:evenodd;stroke:#000000;stroke-width:1px;stroke-linecap:butt;stroke-linejoin:miter;stroke-opacity:1" />
    <path
       id="path4232"
       d="m 341.5,495.29971 -5.6875,6.9375 0.625,0.6875 5.8125,-6.875 z"
       style="fill:none;fill-rule:evenodd;stroke:#000000;stroke-width:1px;stroke-linecap:butt;stroke-linejoin:miter;stroke-opacity:1" />
    <path
       id="path4234"
       d="m 337.3125,497.48721 -2.875,3.3125"
       style="fill:none;fill-rule:evenodd;stroke:#000000;stroke-width:1px;stroke-linecap:butt;stroke-linejoin:miter;stroke-opacity:1" />
    <path
       id="path4236"
       d="m 335.5625,495.98721 -3.0625,2.9375"
       style="fill:none;fill-rule:evenodd;stroke:#000000;stroke-width:1px;stroke-linecap:butt;stroke-linejoin:miter;stroke-opacity:1" />
    <path
       id="path4238"
       d="m 334.0625,494.29971 -3.25,2.75"
       style="fill:none;fill-rule:evenodd;stroke:#000000;stroke-width:1px;stroke-linecap:butt;stroke-linejoin:miter;stroke-opacity:1" />
    <path
       id="path4240"
       d="m 332.375,492.54971 -3.25,2.75"
       style="fill:none;fill-rule:evenodd;stroke:#000000;stroke-width:1px;stroke-linecap:butt;stroke-linejoin:miter;stroke-opacity:1" />
    <path
       id="path4242"
       d="m 332,489.23721 -3.6875,3 0.5625,0.5 3.5625,-2.8125 z"
       style="fill:none;fill-rule:evenodd;stroke:#000000;stroke-width:1px;stroke-linecap:butt;stroke-linejoin:miter;stroke-opacity:1" />
    <path
       id="path4244"
       d="m 329.3125,488.61221 -3.375,2.8125"
       style="fill:none;fill-rule:evenodd;stroke:#000000;stroke-width:1px;stroke-linecap:butt;stroke-linejoin:miter;stroke-opacity:1" />
    <path
       id="path4246"
       d="m 328,486.73721 -3.5625,2.4375"
       style="fill:none;fill-rule:evenodd;stroke:#000000;stroke-width:1px;stroke-linecap:butt;stroke-linejoin:miter;stroke-opacity:1" />
    <path
       id="path4248"
       d="m 326.875,484.79971 -3.6875,2.3125"
       style="fill:none;fill-rule:evenodd;stroke:#000000;stroke-width:1px;stroke-linecap:butt;stroke-linejoin:miter;stroke-opacity:1" />
    <path
       id="path4250"
       d="m 325.8125,482.73721 -3.875,2.0625"
       style="fill:none;fill-rule:evenodd;stroke:#000000;stroke-width:1px;stroke-linecap:butt;stroke-linejoin:miter;stroke-opacity:1" />
    <path
       id="path4252"
       d="m 328.3125,478.23721 -7.9375,3.9375 0.375,0.8125 8,-4.0625 z"
       style="fill:none;fill-rule:evenodd;stroke:#000000;stroke-width:1px;stroke-linecap:butt;stroke-linejoin:miter;stroke-opacity:1" />
    <path
       id="path4254"
       d="m 323.4375,478.48721 -3.75,1.6875"
       style="fill:none;fill-rule:evenodd;stroke:#000000;stroke-width:1px;stroke-linecap:butt;stroke-linejoin:miter;stroke-opacity:1" />
    <path
       id="path4256"
       d="m 322.6875,476.23721 -4.0625,1.625"
       style="fill:none;fill-rule:evenodd;stroke:#000000;stroke-width:1px;stroke-linecap:butt;stroke-linejoin:miter;stroke-opacity:1" />
    <path
       id="path4258"
       d="m 321.75,474.04971 -4,1.375"
       style="fill:none;fill-rule:evenodd;stroke:#000000;stroke-width:1px;stroke-linecap:butt;stroke-linejoin:miter;stroke-opacity:1" />
    <path
       id="path4260"
       d="m 321.25,471.86221 -4.125,1.0625"
       style="fill:none;fill-rule:evenodd;stroke:#000000;stroke-width:1px;stroke-linecap:butt;stroke-linejoin:miter;stroke-opacity:1" />
    <path
       id="path4262"
       d="m 317.5625,469.98721 0.25,0.8125 4.6875,-1.3125 -0.375,-0.9375 z"
       style="fill:none;fill-rule:evenodd;stroke:#000000;stroke-width:1px;stroke-linecap:butt;stroke-linejoin:miter;stroke-opacity:1" />
    <path
       id="path4264"
       d="m 320,467.11221 -4.0625,1.0625"
       style="fill:none;fill-rule:evenodd;stroke:#000000;stroke-width:1px;stroke-linecap:butt;stroke-linejoin:miter;stroke-opacity:1" />
    <path
       id="path4266"
       d="m 319.375,464.92471 -3.9375,0.6875"
       style="fill:none;fill-rule:evenodd;stroke:#000000;stroke-width:1px;stroke-linecap:butt;stroke-linejoin:miter;stroke-opacity:1" />
    <path
       id="path4268"
       d="M 319.0625,462.54971 315,462.73721"
       style="fill:none;fill-rule:evenodd;stroke:#000000;stroke-width:1px;stroke-linecap:butt;stroke-linejoin:miter;stroke-opacity:1" />
    <path
       id="path4270"
       d="m 319.125,460.23721 -4.375,0.125"
       style="fill:none;fill-rule:evenodd;stroke:#000000;stroke-width:1px;stroke-linecap:butt;stroke-linejoin:miter;stroke-opacity:1" />
    <path
       id="path4272"
       d="m 314.375,457.17471 0,1.1875 9.1875,-0.25 -0.1875,-1 z"
       style="fill:none;fill-rule:evenodd;stroke:#000000;stroke-width:1px;stroke-linecap:butt;stroke-linejoin:miter;stroke-opacity:1" />
    <path
       id="path4274"
       d="m 318.75,455.42471 -4.25,-0.125"
       style="fill:none;fill-rule:evenodd;stroke:#000000;stroke-width:1px;stroke-linecap:butt;stroke-linejoin:miter;stroke-opacity:1" />
    <path
       id="path4276"
       d="m 318.875,453.11221 -4.125,-0.3125"
       style="fill:none;fill-rule:evenodd;stroke:#000000;stroke-width:1px;stroke-linecap:butt;stroke-linejoin:miter;stroke-opacity:1" />
    <path
       id="path4278"
       d="m 318.9375,450.67471 -4.375,-0.5"
       style="fill:none;fill-rule:evenodd;stroke:#000000;stroke-width:1px;stroke-linecap:butt;stroke-linejoin:miter;stroke-opacity:1" />
    <path
       id="path4280"
       d="m 319.1875,448.17471 -4.3125,-0.4375"
       style="fill:none;fill-rule:evenodd;stroke:#000000;stroke-width:1px;stroke-linecap:butt;stroke-linejoin:miter;stroke-opacity:1" />
    <path
       id="path4282"
       d="m 321.8125,446.11221 -0.125,0.75 -5.3125,-1.25 0.25,-0.625 4.9375,0.8125 z"
       style="fill:none;fill-rule:evenodd;stroke:#000000;stroke-width:1px;stroke-linecap:butt;stroke-linejoin:miter;stroke-opacity:1" />
    <path
       id="path4284"
       d="m 319.875,443.67471 -4,-1.0625"
       style="fill:none;fill-rule:evenodd;stroke:#000000;stroke-width:1px;stroke-linecap:butt;stroke-linejoin:miter;stroke-opacity:1" />
    <path
       id="path4286"
       d="m 320.6875,441.36221 -4.25,-1.1875"
       style="fill:none;fill-rule:evenodd;stroke:#000000;stroke-width:1px;stroke-linecap:butt;stroke-linejoin:miter;stroke-opacity:1" />
    <path
       id="path4288"
       d="m 321.4375,439.11221 -4.375,-1.3125"
       style="fill:none;fill-rule:evenodd;stroke:#000000;stroke-width:1px;stroke-linecap:butt;stroke-linejoin:miter;stroke-opacity:1" />
    <path
       id="path4290"
       d="m 322.0625,436.92471 -4,-1.5"
       style="fill:none;fill-rule:evenodd;stroke:#000000;stroke-width:1px;stroke-linecap:butt;stroke-linejoin:miter;stroke-opacity:1" />
    <path
       id="path4292"
       d="m 318.6875,433.23721 8.25,3.5 0.4375,-0.8125 -8.1875,-3.375 z"
       style="fill:none;fill-rule:evenodd;stroke:#000000;stroke-width:1px;stroke-linecap:butt;stroke-linejoin:miter;stroke-opacity:1" />
    <path
       id="path4294"
       d="m 319.875,430.48721 4.125,1.9375"
       style="fill:none;fill-rule:evenodd;stroke:#000000;stroke-width:1px;stroke-linecap:butt;stroke-linejoin:miter;stroke-opacity:1" />
    <path
       id="path4296"
       d="m 321.0625,428.11221 3.8125,2.125"
       style="fill:none;fill-rule:evenodd;stroke:#000000;stroke-width:1px;stroke-linecap:butt;stroke-linejoin:miter;stroke-opacity:1" />
    <path
       id="path4298"
       d="m 322.125,425.98721 3.875,2.125"
       style="fill:none;fill-rule:evenodd;stroke:#000000;stroke-width:1px;stroke-linecap:butt;stroke-linejoin:miter;stroke-opacity:1" />
    <path
       id="path4300"
       d="m 323.625,423.67471 3.4375,2.3125"
       style="fill:none;fill-rule:evenodd;stroke:#000000;stroke-width:1px;stroke-linecap:butt;stroke-linejoin:miter;stroke-opacity:1" />
    <path
       id="path4302"
       d="m 325.875,422.67471 4.125,2.8125 0.3125,-0.5625 -4.0625,-2.75 z"
       style="fill:none;fill-rule:evenodd;stroke:#000000;stroke-width:1px;stroke-linecap:butt;stroke-linejoin:miter;stroke-opacity:1" />
    <path
       id="path4304"
       d="m 326.5,419.54971 3.3125,2.625"
       style="fill:none;fill-rule:evenodd;stroke:#000000;stroke-width:1px;stroke-linecap:butt;stroke-linejoin:miter;stroke-opacity:1" />
    <path
       id="path4306"
       d="m 328.1875,417.36221 3.125,3.0625"
       style="fill:none;fill-rule:evenodd;stroke:#000000;stroke-width:1px;stroke-linecap:butt;stroke-linejoin:miter;stroke-opacity:1" />
    <path
       id="path4308"
       d="m 329.625,415.48721 3.1875,3.25"
       style="fill:none;fill-rule:evenodd;stroke:#000000;stroke-width:1px;stroke-linecap:butt;stroke-linejoin:miter;stroke-opacity:1" />
    <path
       id="path4310"
       d="m 331.3125,413.54971 3.1875,3.25"
       style="fill:none;fill-rule:evenodd;stroke:#000000;stroke-width:1px;stroke-linecap:butt;stroke-linejoin:miter;stroke-opacity:1" />
    <path
       id="path4312"
       d="m 332.8125,412.17471 5.8125,6.5 0.9375,-0.6875 -6.125,-6.375 z"
       style="fill:none;fill-rule:evenodd;stroke:#000000;stroke-width:1px;stroke-linecap:butt;stroke-linejoin:miter;stroke-opacity:1" />
    <path
       id="path4314"
       d="m 335,410.11221 2.75,3.5"
       style="fill:none;fill-rule:evenodd;stroke:#000000;stroke-width:1px;stroke-linecap:butt;stroke-linejoin:miter;stroke-opacity:1" />
    <path
       id="path4316"
       d="m 337,408.48721 2.5,3.4375"
       style="fill:none;fill-rule:evenodd;stroke:#000000;stroke-width:1px;stroke-linecap:butt;stroke-linejoin:miter;stroke-opacity:1" />
    <path
       id="path4318"
       d="m 339.0625,406.86221 2.625,3.6875"
       style="fill:none;fill-rule:evenodd;stroke:#000000;stroke-width:1px;stroke-linecap:butt;stroke-linejoin:miter;stroke-opacity:1" />
    <path
       id="path4320"
       d="m 340.875,405.48721 2.75,3.6875"
       style="fill:none;fill-rule:evenodd;stroke:#000000;stroke-width:1px;stroke-linecap:butt;stroke-linejoin:miter;stroke-opacity:1" />
    <path
       id="path4322"
       d="m 343.625,405.42471 2.625,4.0625 0.5625,-0.4375 -2.625,-3.9375 z"
       style="fill:none;fill-rule:evenodd;stroke:#000000;stroke-width:1px;stroke-linecap:butt;stroke-linejoin:miter;stroke-opacity:1" />
    <path
       id="path4324"
       d="m 345.3125,402.54971 2.125,4"
       style="fill:none;fill-rule:evenodd;stroke:#000000;stroke-width:1px;stroke-linecap:butt;stroke-linejoin:miter;stroke-opacity:1" />
    <path
       id="path4326"
       d="m 347.5625,401.42471 2.125,4"
       style="fill:none;fill-rule:evenodd;stroke:#000000;stroke-width:1px;stroke-linecap:butt;stroke-linejoin:miter;stroke-opacity:1" />
    <path
       id="path4328"
       d="m 349.625,400.48721 2.25,3.875"
       style="fill:none;fill-rule:evenodd;stroke:#000000;stroke-width:1px;stroke-linecap:butt;stroke-linejoin:miter;stroke-opacity:1" />
    <path
       id="path4330"
       d="m 352.3125,399.54971 1.5625,3.9375"
       style="fill:none;fill-rule:evenodd;stroke:#000000;stroke-width:1px;stroke-linecap:butt;stroke-linejoin:miter;stroke-opacity:1" />
    <path
       id="path4332"
       d="m 354,398.42471 3.25,8.5 0.9375,-0.4375 -3.1875,-8.375 z"
       style="fill:none;fill-rule:evenodd;stroke:#000000;stroke-width:1px;stroke-linecap:butt;stroke-linejoin:miter;stroke-opacity:1" />
    <path
       id="path4334"
       d="m 357.125,397.67471 1,4.0625"
       style="fill:none;fill-rule:evenodd;stroke:#000000;stroke-width:1px;stroke-linecap:butt;stroke-linejoin:miter;stroke-opacity:1" />
    <path
       id="path4336"
       d="m 359.3125,396.79971 1.1875,4.25"
       style="fill:none;fill-rule:evenodd;stroke:#000000;stroke-width:1px;stroke-linecap:butt;stroke-linejoin:miter;stroke-opacity:1" />
    <path
       id="path4338"
       d="m 362,396.42471 0.9375,4.3125"
       style="fill:none;fill-rule:evenodd;stroke:#000000;stroke-width:1px;stroke-linecap:butt;stroke-linejoin:miter;stroke-opacity:1" />
    <path
       id="path4340"
       d="m 364.5,395.98721 0.8125,4.0625"
       style="fill:none;fill-rule:evenodd;stroke:#000000;stroke-width:1px;stroke-linecap:butt;stroke-linejoin:miter;stroke-opacity:1" />
    <path
       id="path4342"
       d="m 366.6875,396.54971 0.5625,5.0625 1.125,0 -0.6875,-5 z"
       style="fill:none;fill-rule:evenodd;stroke:#000000;stroke-width:1px;stroke-linecap:butt;stroke-linejoin:miter;stroke-opacity:1" />
    <path
       id="path4344"
       d="m 369.4375,394.98721 0.375,4.5625"
       style="fill:none;fill-rule:evenodd;stroke:#000000;stroke-width:1px;stroke-linecap:butt;stroke-linejoin:miter;stroke-opacity:1" />
    <path
       id="path4346"
       d="m 372,395.17471 0.1875,3.9375"
       style="fill:none;fill-rule:evenodd;stroke:#000000;stroke-width:1px;stroke-linecap:butt;stroke-linejoin:miter;stroke-opacity:1" />
    <path
       id="path4348"
       d="m 374.5625,394.86221 0.0625,4.375"
       style="fill:none;fill-rule:evenodd;stroke:#000000;stroke-width:1px;stroke-linecap:butt;stroke-linejoin:miter;stroke-opacity:1" />
    <path
       id="path4350"
       d="m 377.25,394.86221 -0.25,4.375"
       style="fill:none;fill-rule:evenodd;stroke:#000000;stroke-width:1px;stroke-linecap:butt;stroke-linejoin:miter;stroke-opacity:1" />
    <path
       id="path4352"
       d="m 379.125,394.92471 -0.625,9.125 1.1875,0.0625 0.6875,-9.3125 -0.9375,0 z"
       style="fill:none;fill-rule:evenodd;stroke:#000000;stroke-width:1px;stroke-linecap:butt;stroke-linejoin:miter;stroke-opacity:1" />
    <path
       id="path4354"
       d="m 382.1875,395.36221 -0.3125,4.0625"
       style="fill:none;fill-rule:evenodd;stroke:#000000;stroke-width:1px;stroke-linecap:butt;stroke-linejoin:miter;stroke-opacity:1" />
    <path
       id="path4356"
       d="m 384.6875,395.67471 -0.4375,4.0625"
       style="fill:none;fill-rule:evenodd;stroke:#000000;stroke-width:1px;stroke-linecap:butt;stroke-linejoin:miter;stroke-opacity:1" />
    <path
       id="path4358"
       d="m 387.3125,396.17471 -0.8125,3.875"
       style="fill:none;fill-rule:evenodd;stroke:#000000;stroke-width:1px;stroke-linecap:butt;stroke-linejoin:miter;stroke-opacity:1" />
    <path
       id="path4360"
       d="m 389.8125,396.67471 -1.125,4.0625"
       style="fill:none;fill-rule:evenodd;stroke:#000000;stroke-width:1px;stroke-linecap:butt;stroke-linejoin:miter;stroke-opacity:1" />
    <path
       id="path4362"
       d="m 391.4375,398.48721 -1.1875,4.6875 0.6875,0.1875 1.4375,-4.6875 z"
       style="fill:none;fill-rule:evenodd;stroke:#000000;stroke-width:1px;stroke-linecap:butt;stroke-linejoin:miter;stroke-opacity:1" />
    <path
       id="path4364"
       d="m 394.8125,397.92471 -1.5,4"
       style="fill:none;fill-rule:evenodd;stroke:#000000;stroke-width:1px;stroke-linecap:butt;stroke-linejoin:miter;stroke-opacity:1" />
    <path
       id="path4366"
       d="m 397.25,398.86221 -1.75,4.0625"
       style="fill:none;fill-rule:evenodd;stroke:#000000;stroke-width:1px;stroke-linecap:butt;stroke-linejoin:miter;stroke-opacity:1" />
    <path
       id="path4368"
       d="m 399.5625,399.92471 -1.875,3.8125"
       style="fill:none;fill-rule:evenodd;stroke:#000000;stroke-width:1px;stroke-linecap:butt;stroke-linejoin:miter;stroke-opacity:1" />
    <path
       id="path4370"
       d="m 401.9375,400.92471 -2,3.75"
       style="fill:none;fill-rule:evenodd;stroke:#000000;stroke-width:1px;stroke-linecap:butt;stroke-linejoin:miter;stroke-opacity:1" />
    <path
       id="path4372"
       d="m 403.625,401.67471 -4.1875,7.9375 1.25,0.8125 3.875,-8.1875 z"
       style="fill:none;fill-rule:evenodd;stroke:#000000;stroke-width:1px;stroke-linecap:butt;stroke-linejoin:miter;stroke-opacity:1" />
    <path
       id="path4384"
       d="m 404.24411,428.78241 -1.5468,3.8007 -1.10485,3.22618 1.72357,1.98873 2.69584,3.00521 0.88389,0.79549 6.23138,-0.97227 0.88388,-0.26516 0.7513,-1.06066 1.01647,-2.65165 0.92807,-3.00521 0.0442,-0.48613 -1.59099,-2.38649 -2.82843,-2.91682 -0.97227,-0.35355 -3.93328,0.57453 z"
       style="fill:none;fill-rule:evenodd;stroke:#000000;stroke-width:1px;stroke-linecap:butt;stroke-linejoin:miter;stroke-opacity:1" />
    <path
       id="path4386"
       d="m 406.93995,430.77115 -1.28163,1.45841 -0.61872,1.14905 -0.22097,0.48613 0,0.70711 0.53033,1.32582 0.66291,1.10486 0.39775,0.66291 0.7955,0.57453 0.79549,0.39774 0.22097,-0.0442"
       style="fill:none;fill-rule:evenodd;stroke:#000000;stroke-width:1px;stroke-linecap:butt;stroke-linejoin:miter;stroke-opacity:1" />
    <path
       id="path4388"
       d="m 411.44776,430.4176 1.37002,1.01646 0.97227,1.19325 0.35355,0.7513 0.0442,0.66291"
       style="fill:none;fill-rule:evenodd;stroke:#000000;stroke-width:1px;stroke-linecap:butt;stroke-linejoin:miter;stroke-opacity:1" />
    <path
       id="path4390"
       d="m 413.61327,435.7209 -0.97227,1.94454 -0.53033,0.30936"
       style="fill:none;fill-rule:evenodd;stroke:#000000;stroke-width:1px;stroke-linecap:butt;stroke-linejoin:miter;stroke-opacity:1" />
  </g>
</svg>
